M48
; DRILL file {KiCad 8.0.5} date 2024-09-28T14:46:49+0530
; FORMAT={-:-/ absolute / metric / decimal}
; #@! TF.CreationDate,2024-09-28T14:46:49+05:30
; #@! TF.GenerationSoftware,Kicad,Pcbnew,8.0.5
; #@! TF.FileFunction,Plated,1,2,PTH
FMAT,2
METRIC
; #@! TA.AperFunction,Plated,PTH,ViaDrill
T1C0.300
; #@! TA.AperFunction,Plated,PTH,ComponentDrill
T2C0.500
; #@! TA.AperFunction,Plated,PTH,ComponentDrill
T3C0.550
; #@! TA.AperFunction,Plated,PTH,ComponentDrill
T4C0.600
; #@! TA.AperFunction,Plated,PTH,ComponentDrill
T5C0.900
%
G90
G05
T1
X47.167Y-42.091
X47.167Y-50.677
X49.65Y-54.285
X49.778Y-53.52
X50.647Y-42.091
X51.084Y-37.959
X51.918Y-42.293
X52.075Y-53.573
X52.677Y-50.677
X53.184Y-42.527
X55.366Y-43.424
X55.546Y-44.62
X56.087Y-42.724
X56.333Y-41.785
X57.459Y-57.198
X57.584Y-38.074
X57.753Y-52.704
X58.072Y-50.325
X58.11Y-46.786
X58.292Y-48.751
X59.016Y-48.412
X59.124Y-45.988
X59.125Y-44.915
X59.131Y-49.397
X59.723Y-57.287
X60.259Y-50.848
X60.474Y-57.151
X61.162Y-51.06
X61.172Y-40.233
X61.746Y-40.807
X61.938Y-42.206
X62.367Y-57.828
X62.407Y-39.09
X62.812Y-52.064
X64.16Y-52.653
X64.401Y-41.425
X64.986Y-54.565
X65.051Y-58.774
X65.317Y-51.49
X65.527Y-58.166
X65.879Y-52.84
X66.067Y-42.277
X66.735Y-58.192
X66.872Y-42.567
X67.746Y-43.465
X67.747Y-52.09
X67.896Y-47.246
X68.084Y-52.84
X68.424Y-46.001
X68.688Y-46.975
X68.807Y-43.226
X68.842Y-55.092
X68.962Y-45.474
X68.977Y-47.915
X69.898Y-34.57
X71.211Y-47.555
X71.508Y-44.64
X71.91Y-38.285
X72.261Y-44.64
X72.976Y-40.464
X73.755Y-40.599
X73.937Y-35.765
X75.669Y-36.658
X76.205Y-45.346
X76.235Y-50.802
X76.886Y-47.189
X77.708Y-46.281
X78.996Y-43.277
X79.276Y-45.771
T2
X51.308Y-43.982
X51.308Y-44.982
X51.308Y-45.982
X51.308Y-46.982
X51.308Y-47.982
X51.308Y-48.982
T4
X54.456Y-59.842
X55.706Y-59.842
X56.956Y-59.842
X58.206Y-59.842
X59.456Y-59.842
X60.706Y-59.842
X66.548Y-59.842
X66.775Y-33.528
X67.798Y-59.842
X68.025Y-33.528
X69.048Y-59.842
X69.275Y-33.528
X70.298Y-59.842
X70.525Y-33.528
X71.548Y-59.842
X71.775Y-33.528
X72.798Y-59.842
X73.025Y-33.528
X81.178Y-39.717
X81.178Y-40.967
X81.178Y-42.217
X81.178Y-43.467
X81.178Y-44.717
X81.178Y-45.967
X81.178Y-47.217
X81.178Y-48.467
X81.178Y-49.717
X81.178Y-50.967
X81.178Y-52.217
X81.178Y-53.467
T5
X52.832Y-34.036
X54.102Y-34.036
X55.372Y-34.036
X56.642Y-34.036
X60.06Y-34.406
X62.56Y-31.906
X62.56Y-36.906
T2
X45.885Y-42.952G85X45.235Y-42.952
G05
X45.885Y-49.952G85X45.235Y-49.952
G05
T3
X48.26Y-43.802G85X48.26Y-44.102
G05
X48.26Y-48.802G85X48.26Y-49.102
G05
M30
