G04 #@! TF.GenerationSoftware,KiCad,Pcbnew,8.0.5*
G04 #@! TF.CreationDate,2024-09-28T14:46:52+05:30*
G04 #@! TF.ProjectId,MKM01V10,4d4b4d30-3156-4313-902e-6b696361645f,1.0*
G04 #@! TF.SameCoordinates,Original*
G04 #@! TF.FileFunction,Soldermask,Top*
G04 #@! TF.FilePolarity,Negative*
%FSLAX46Y46*%
G04 Gerber Fmt 4.6, Leading zero omitted, Abs format (unit mm)*
G04 Created by KiCad (PCBNEW 8.0.5) date 2024-09-28 14:46:52*
%MOMM*%
%LPD*%
G01*
G04 APERTURE LIST*
G04 Aperture macros list*
%AMRoundRect*
0 Rectangle with rounded corners*
0 $1 Rounding radius*
0 $2 $3 $4 $5 $6 $7 $8 $9 X,Y pos of 4 corners*
0 Add a 4 corners polygon primitive as box body*
4,1,4,$2,$3,$4,$5,$6,$7,$8,$9,$2,$3,0*
0 Add four circle primitives for the rounded corners*
1,1,$1+$1,$2,$3*
1,1,$1+$1,$4,$5*
1,1,$1+$1,$6,$7*
1,1,$1+$1,$8,$9*
0 Add four rect primitives between the rounded corners*
20,1,$1+$1,$2,$3,$4,$5,0*
20,1,$1+$1,$4,$5,$6,$7,0*
20,1,$1+$1,$6,$7,$8,$9,0*
20,1,$1+$1,$8,$9,$2,$3,0*%
G04 Aperture macros list end*
%ADD10R,0.850000X0.850000*%
%ADD11O,0.850000X0.850000*%
%ADD12R,1.500000X1.000000*%
%ADD13RoundRect,0.237500X0.237500X-0.300000X0.237500X0.300000X-0.237500X0.300000X-0.237500X-0.300000X0*%
%ADD14C,3.200000*%
%ADD15RoundRect,0.237500X-0.237500X0.250000X-0.237500X-0.250000X0.237500X-0.250000X0.237500X0.250000X0*%
%ADD16RoundRect,0.062500X-0.375000X-0.062500X0.375000X-0.062500X0.375000X0.062500X-0.375000X0.062500X0*%
%ADD17RoundRect,0.062500X-0.062500X-0.375000X0.062500X-0.375000X0.062500X0.375000X-0.062500X0.375000X0*%
%ADD18R,5.600000X5.600000*%
%ADD19RoundRect,0.237500X-0.237500X0.300000X-0.237500X-0.300000X0.237500X-0.300000X0.237500X0.300000X0*%
%ADD20RoundRect,0.250000X-0.650000X0.412500X-0.650000X-0.412500X0.650000X-0.412500X0.650000X0.412500X0*%
%ADD21RoundRect,0.237500X-0.287500X-0.237500X0.287500X-0.237500X0.287500X0.237500X-0.287500X0.237500X0*%
%ADD22RoundRect,0.237500X0.237500X-0.250000X0.237500X0.250000X-0.237500X0.250000X-0.237500X-0.250000X0*%
%ADD23R,1.000000X1.500000*%
%ADD24RoundRect,0.218750X0.256250X-0.218750X0.256250X0.218750X-0.256250X0.218750X-0.256250X-0.218750X0*%
%ADD25RoundRect,0.237500X-0.250000X-0.237500X0.250000X-0.237500X0.250000X0.237500X-0.250000X0.237500X0*%
%ADD26RoundRect,0.225000X0.225000X0.475000X-0.225000X0.475000X-0.225000X-0.475000X0.225000X-0.475000X0*%
%ADD27O,0.900000X1.400000*%
%ADD28R,0.900000X1.700000*%
%ADD29R,1.350000X0.400000*%
%ADD30O,1.550000X0.890000*%
%ADD31R,1.550000X1.200000*%
%ADD32O,0.950000X1.250000*%
%ADD33R,1.550000X1.500000*%
%ADD34RoundRect,0.225000X-0.225000X-0.475000X0.225000X-0.475000X0.225000X0.475000X-0.225000X0.475000X0*%
%ADD35R,1.070000X1.800000*%
%ADD36O,1.070000X1.800000*%
%ADD37RoundRect,0.250000X-0.450000X-0.425000X0.450000X-0.425000X0.450000X0.425000X-0.450000X0.425000X0*%
%ADD38RoundRect,0.250000X0.450000X0.425000X-0.450000X0.425000X-0.450000X-0.425000X0.450000X-0.425000X0*%
%ADD39RoundRect,0.150000X-0.512500X-0.150000X0.512500X-0.150000X0.512500X0.150000X-0.512500X0.150000X0*%
%ADD40RoundRect,0.225000X0.475000X-0.225000X0.475000X0.225000X-0.475000X0.225000X-0.475000X-0.225000X0*%
%ADD41O,1.400000X0.900000*%
%ADD42C,1.620000*%
%ADD43C,0.500000*%
G04 APERTURE END LIST*
D10*
X51308000Y-43982000D03*
D11*
X51308000Y-44982000D03*
X51308000Y-45982000D03*
X51308000Y-46982000D03*
X51308000Y-47982000D03*
X51308000Y-48982000D03*
D12*
X74117200Y-53919600D03*
X74117200Y-55219600D03*
X74117200Y-56519600D03*
D13*
X51689000Y-40844000D03*
X51689000Y-39119000D03*
D14*
X46725000Y-33400000D03*
D15*
X57632600Y-39069000D03*
X57632600Y-40894000D03*
D16*
X60079400Y-43915200D03*
X60079400Y-44415200D03*
X60079400Y-44915200D03*
X60079400Y-45415200D03*
X60079400Y-45915200D03*
X60079400Y-46415200D03*
X60079400Y-46915200D03*
X60079400Y-47415200D03*
X60079400Y-47915200D03*
X60079400Y-48415200D03*
X60079400Y-48915200D03*
X60079400Y-49415200D03*
D17*
X60766900Y-50102700D03*
X61266900Y-50102700D03*
X61766900Y-50102700D03*
X62266900Y-50102700D03*
X62766900Y-50102700D03*
X63266900Y-50102700D03*
X63766900Y-50102700D03*
X64266900Y-50102700D03*
X64766900Y-50102700D03*
X65266900Y-50102700D03*
X65766900Y-50102700D03*
X66266900Y-50102700D03*
D16*
X66954400Y-49415200D03*
X66954400Y-48915200D03*
X66954400Y-48415200D03*
X66954400Y-47915200D03*
X66954400Y-47415200D03*
X66954400Y-46915200D03*
X66954400Y-46415200D03*
X66954400Y-45915200D03*
X66954400Y-45415200D03*
X66954400Y-44915200D03*
X66954400Y-44415200D03*
X66954400Y-43915200D03*
D17*
X66266900Y-43227700D03*
X65766900Y-43227700D03*
X65266900Y-43227700D03*
X64766900Y-43227700D03*
X64266900Y-43227700D03*
X63766900Y-43227700D03*
X63266900Y-43227700D03*
X62766900Y-43227700D03*
X62266900Y-43227700D03*
X61766900Y-43227700D03*
X61266900Y-43227700D03*
X60766900Y-43227700D03*
D18*
X63516900Y-46665200D03*
D15*
X69017400Y-37314500D03*
X69017400Y-39139500D03*
D19*
X54152800Y-50954700D03*
X54152800Y-52679700D03*
D12*
X60071000Y-53534000D03*
X60071000Y-54834000D03*
X60071000Y-56134000D03*
D20*
X70104000Y-53301500D03*
X70104000Y-56426500D03*
D19*
X67825900Y-53950700D03*
X67825900Y-55675700D03*
D21*
X46267400Y-52374800D03*
X48017400Y-52374800D03*
D22*
X70002400Y-47663300D03*
X70002400Y-45838300D03*
D23*
X72614000Y-50802400D03*
X73914000Y-50802400D03*
X75214000Y-50802400D03*
D14*
X46725000Y-60000000D03*
D15*
X64109600Y-53900700D03*
X64109600Y-55725700D03*
D14*
X80275000Y-33400000D03*
D24*
X56184800Y-52705200D03*
X56184800Y-51130200D03*
D25*
X46463300Y-38608000D03*
X48288300Y-38608000D03*
D26*
X72798000Y-59842400D03*
D27*
X71548000Y-59842400D03*
X70298000Y-59842400D03*
X69048000Y-59842400D03*
X67798000Y-59842400D03*
X66548000Y-59842400D03*
D28*
X72163200Y-46700000D03*
X75563200Y-46700000D03*
D12*
X73914000Y-39370000D03*
X73914000Y-38070000D03*
X73914000Y-36770000D03*
D19*
X65967700Y-53950700D03*
X65967700Y-55675700D03*
D29*
X48260000Y-45152000D03*
X48260000Y-45802000D03*
X48260000Y-46452000D03*
X48260000Y-47102000D03*
X48260000Y-47752000D03*
D30*
X45560000Y-42952000D03*
D31*
X45560000Y-43552000D03*
D32*
X48260000Y-43952000D03*
D33*
X45560000Y-45452000D03*
X45560000Y-47452000D03*
D32*
X48260000Y-48952000D03*
D31*
X45560000Y-49352000D03*
D30*
X45560000Y-49952000D03*
D22*
X55651400Y-40894000D03*
X55651400Y-39069000D03*
D34*
X66775000Y-33528000D03*
D27*
X68025000Y-33528000D03*
X69275000Y-33528000D03*
X70525000Y-33528000D03*
X71775000Y-33528000D03*
X73025000Y-33528000D03*
D35*
X52832000Y-34036000D03*
D36*
X54102000Y-34036000D03*
X55372000Y-34036000D03*
X56642000Y-34036000D03*
D37*
X72564000Y-42570400D03*
X75264000Y-42570400D03*
D14*
X80275000Y-60000000D03*
D38*
X56845200Y-43916600D03*
X54145200Y-43916600D03*
D39*
X54334000Y-46741000D03*
X54334000Y-47691000D03*
X54334000Y-48641000D03*
X56609000Y-48641000D03*
X56609000Y-46741000D03*
D13*
X66929000Y-39089500D03*
X66929000Y-37364500D03*
X51257200Y-54354900D03*
X51257200Y-52629900D03*
D22*
X53670200Y-40894000D03*
X53670200Y-39069000D03*
D28*
X53519600Y-55626000D03*
X56919600Y-55626000D03*
D40*
X81178400Y-53467000D03*
D41*
X81178400Y-52217000D03*
X81178400Y-50967000D03*
X81178400Y-49717000D03*
X81178400Y-48467000D03*
X81178400Y-47217000D03*
X81178400Y-45967000D03*
X81178400Y-44717000D03*
X81178400Y-43467000D03*
X81178400Y-42217000D03*
X81178400Y-40967000D03*
X81178400Y-39717000D03*
D21*
X46560800Y-40538400D03*
X48310800Y-40538400D03*
D26*
X60706000Y-59842400D03*
D27*
X59456000Y-59842400D03*
X58206000Y-59842400D03*
X56956000Y-59842400D03*
X55706000Y-59842400D03*
X54456000Y-59842400D03*
D13*
X71105900Y-39089500D03*
X71105900Y-37364500D03*
D25*
X46169900Y-54305200D03*
X47994900Y-54305200D03*
D42*
X62560200Y-36906200D03*
X60060200Y-34406200D03*
X62560200Y-31906200D03*
D43*
X58291800Y-48750700D03*
X56087500Y-42724100D03*
X61172400Y-40233200D03*
X62407400Y-39089500D03*
X65316600Y-51489800D03*
X55365700Y-43424100D03*
X53184200Y-42526900D03*
X57584500Y-38073800D03*
X51918200Y-42292700D03*
X49778400Y-53519500D03*
X57459200Y-57197900D03*
X64159900Y-52653400D03*
X65526700Y-58166500D03*
X68084400Y-52840400D03*
X65878900Y-52840400D03*
X61162200Y-51060100D03*
X64401000Y-41425000D03*
X66067000Y-42277400D03*
X68687500Y-46975100D03*
X59016100Y-48411700D03*
X79276200Y-45771200D03*
X59123800Y-45987700D03*
X59124700Y-44915200D03*
X68962300Y-45473900D03*
X71210900Y-47554900D03*
X68976800Y-47915200D03*
X68841900Y-55091600D03*
X62811700Y-52064300D03*
X65051000Y-58773800D03*
X66735000Y-58192500D03*
X76885800Y-47189000D03*
X77707900Y-46281300D03*
X71507700Y-44640500D03*
X72261200Y-44640500D03*
X67747100Y-52090100D03*
X73754900Y-40598800D03*
X50647200Y-42091100D03*
X47167000Y-42091100D03*
X47167000Y-50677200D03*
X52677500Y-50677200D03*
X58072200Y-50325300D03*
X59130900Y-49397400D03*
X67896200Y-47246500D03*
X61937900Y-42206000D03*
X69898500Y-34569700D03*
X72976000Y-40464400D03*
X60259300Y-50847700D03*
X68423900Y-46000700D03*
X62367200Y-57828200D03*
X67745700Y-43464800D03*
X66871900Y-42566700D03*
X56332600Y-41785100D03*
X52074700Y-53573300D03*
X58110200Y-46785900D03*
X51083900Y-37959300D03*
X71910300Y-38285100D03*
X59722600Y-57287000D03*
X64986000Y-54564700D03*
X61746000Y-40806900D03*
X68807200Y-43226100D03*
X55545900Y-44619700D03*
X57753400Y-52703600D03*
X75669500Y-36658300D03*
X76235200Y-50802400D03*
X49650200Y-54284900D03*
X60474400Y-57151400D03*
X76205200Y-45345500D03*
X78996300Y-43277200D03*
X73936700Y-35765400D03*
M02*
