G04 #@! TF.GenerationSoftware,KiCad,Pcbnew,8.0.5*
G04 #@! TF.CreationDate,2024-09-28T14:46:52+05:30*
G04 #@! TF.ProjectId,MKM01V10,4d4b4d30-3156-4313-902e-6b696361645f,1.0*
G04 #@! TF.SameCoordinates,Original*
G04 #@! TF.FileFunction,Copper,L1,Top*
G04 #@! TF.FilePolarity,Positive*
%FSLAX46Y46*%
G04 Gerber Fmt 4.6, Leading zero omitted, Abs format (unit mm)*
G04 Created by KiCad (PCBNEW 8.0.5) date 2024-09-28 14:46:52*
%MOMM*%
%LPD*%
G01*
G04 APERTURE LIST*
G04 Aperture macros list*
%AMRoundRect*
0 Rectangle with rounded corners*
0 $1 Rounding radius*
0 $2 $3 $4 $5 $6 $7 $8 $9 X,Y pos of 4 corners*
0 Add a 4 corners polygon primitive as box body*
4,1,4,$2,$3,$4,$5,$6,$7,$8,$9,$2,$3,0*
0 Add four circle primitives for the rounded corners*
1,1,$1+$1,$2,$3*
1,1,$1+$1,$4,$5*
1,1,$1+$1,$6,$7*
1,1,$1+$1,$8,$9*
0 Add four rect primitives between the rounded corners*
20,1,$1+$1,$2,$3,$4,$5,0*
20,1,$1+$1,$4,$5,$6,$7,0*
20,1,$1+$1,$6,$7,$8,$9,0*
20,1,$1+$1,$8,$9,$2,$3,0*%
G04 Aperture macros list end*
G04 #@! TA.AperFunction,ComponentPad*
%ADD10R,0.850000X0.850000*%
G04 #@! TD*
G04 #@! TA.AperFunction,ComponentPad*
%ADD11O,0.850000X0.850000*%
G04 #@! TD*
G04 #@! TA.AperFunction,SMDPad,CuDef*
%ADD12R,1.500000X1.000000*%
G04 #@! TD*
G04 #@! TA.AperFunction,SMDPad,CuDef*
%ADD13RoundRect,0.237500X0.237500X-0.300000X0.237500X0.300000X-0.237500X0.300000X-0.237500X-0.300000X0*%
G04 #@! TD*
G04 #@! TA.AperFunction,SMDPad,CuDef*
%ADD14RoundRect,0.237500X-0.237500X0.250000X-0.237500X-0.250000X0.237500X-0.250000X0.237500X0.250000X0*%
G04 #@! TD*
G04 #@! TA.AperFunction,SMDPad,CuDef*
%ADD15RoundRect,0.062500X-0.375000X-0.062500X0.375000X-0.062500X0.375000X0.062500X-0.375000X0.062500X0*%
G04 #@! TD*
G04 #@! TA.AperFunction,SMDPad,CuDef*
%ADD16RoundRect,0.062500X-0.062500X-0.375000X0.062500X-0.375000X0.062500X0.375000X-0.062500X0.375000X0*%
G04 #@! TD*
G04 #@! TA.AperFunction,SMDPad,CuDef*
%ADD17R,5.600000X5.600000*%
G04 #@! TD*
G04 #@! TA.AperFunction,SMDPad,CuDef*
%ADD18RoundRect,0.237500X-0.237500X0.300000X-0.237500X-0.300000X0.237500X-0.300000X0.237500X0.300000X0*%
G04 #@! TD*
G04 #@! TA.AperFunction,SMDPad,CuDef*
%ADD19RoundRect,0.250000X-0.650000X0.412500X-0.650000X-0.412500X0.650000X-0.412500X0.650000X0.412500X0*%
G04 #@! TD*
G04 #@! TA.AperFunction,SMDPad,CuDef*
%ADD20RoundRect,0.237500X-0.287500X-0.237500X0.287500X-0.237500X0.287500X0.237500X-0.287500X0.237500X0*%
G04 #@! TD*
G04 #@! TA.AperFunction,SMDPad,CuDef*
%ADD21RoundRect,0.237500X0.237500X-0.250000X0.237500X0.250000X-0.237500X0.250000X-0.237500X-0.250000X0*%
G04 #@! TD*
G04 #@! TA.AperFunction,SMDPad,CuDef*
%ADD22R,1.000000X1.500000*%
G04 #@! TD*
G04 #@! TA.AperFunction,SMDPad,CuDef*
%ADD23RoundRect,0.218750X0.256250X-0.218750X0.256250X0.218750X-0.256250X0.218750X-0.256250X-0.218750X0*%
G04 #@! TD*
G04 #@! TA.AperFunction,SMDPad,CuDef*
%ADD24RoundRect,0.237500X-0.250000X-0.237500X0.250000X-0.237500X0.250000X0.237500X-0.250000X0.237500X0*%
G04 #@! TD*
G04 #@! TA.AperFunction,ComponentPad*
%ADD25RoundRect,0.225000X0.225000X0.475000X-0.225000X0.475000X-0.225000X-0.475000X0.225000X-0.475000X0*%
G04 #@! TD*
G04 #@! TA.AperFunction,ComponentPad*
%ADD26O,0.900000X1.400000*%
G04 #@! TD*
G04 #@! TA.AperFunction,SMDPad,CuDef*
%ADD27R,0.900000X1.700000*%
G04 #@! TD*
G04 #@! TA.AperFunction,SMDPad,CuDef*
%ADD28R,1.350000X0.400000*%
G04 #@! TD*
G04 #@! TA.AperFunction,ComponentPad*
%ADD29O,1.550000X0.890000*%
G04 #@! TD*
G04 #@! TA.AperFunction,SMDPad,CuDef*
%ADD30R,1.550000X1.200000*%
G04 #@! TD*
G04 #@! TA.AperFunction,ComponentPad*
%ADD31O,0.950000X1.250000*%
G04 #@! TD*
G04 #@! TA.AperFunction,SMDPad,CuDef*
%ADD32R,1.550000X1.500000*%
G04 #@! TD*
G04 #@! TA.AperFunction,ComponentPad*
%ADD33RoundRect,0.225000X-0.225000X-0.475000X0.225000X-0.475000X0.225000X0.475000X-0.225000X0.475000X0*%
G04 #@! TD*
G04 #@! TA.AperFunction,ComponentPad*
%ADD34R,1.070000X1.800000*%
G04 #@! TD*
G04 #@! TA.AperFunction,ComponentPad*
%ADD35O,1.070000X1.800000*%
G04 #@! TD*
G04 #@! TA.AperFunction,SMDPad,CuDef*
%ADD36RoundRect,0.250000X-0.450000X-0.425000X0.450000X-0.425000X0.450000X0.425000X-0.450000X0.425000X0*%
G04 #@! TD*
G04 #@! TA.AperFunction,SMDPad,CuDef*
%ADD37RoundRect,0.250000X0.450000X0.425000X-0.450000X0.425000X-0.450000X-0.425000X0.450000X-0.425000X0*%
G04 #@! TD*
G04 #@! TA.AperFunction,SMDPad,CuDef*
%ADD38RoundRect,0.150000X-0.512500X-0.150000X0.512500X-0.150000X0.512500X0.150000X-0.512500X0.150000X0*%
G04 #@! TD*
G04 #@! TA.AperFunction,ComponentPad*
%ADD39RoundRect,0.225000X0.475000X-0.225000X0.475000X0.225000X-0.475000X0.225000X-0.475000X-0.225000X0*%
G04 #@! TD*
G04 #@! TA.AperFunction,ComponentPad*
%ADD40O,1.400000X0.900000*%
G04 #@! TD*
G04 #@! TA.AperFunction,ComponentPad*
%ADD41C,1.620000*%
G04 #@! TD*
G04 #@! TA.AperFunction,ViaPad*
%ADD42C,0.500000*%
G04 #@! TD*
G04 #@! TA.AperFunction,Conductor*
%ADD43C,0.180000*%
G04 #@! TD*
G04 APERTURE END LIST*
D10*
X51308000Y-43982000D03*
D11*
X51308000Y-44982000D03*
X51308000Y-45982000D03*
X51308000Y-46982000D03*
X51308000Y-47982000D03*
X51308000Y-48982000D03*
D12*
X74117200Y-53919600D03*
X74117200Y-55219600D03*
X74117200Y-56519600D03*
D13*
X51689000Y-40844000D03*
X51689000Y-39119000D03*
D14*
X57632600Y-39069000D03*
X57632600Y-40894000D03*
D15*
X60079400Y-43915200D03*
X60079400Y-44415200D03*
X60079400Y-44915200D03*
X60079400Y-45415200D03*
X60079400Y-45915200D03*
X60079400Y-46415200D03*
X60079400Y-46915200D03*
X60079400Y-47415200D03*
X60079400Y-47915200D03*
X60079400Y-48415200D03*
X60079400Y-48915200D03*
X60079400Y-49415200D03*
D16*
X60766900Y-50102700D03*
X61266900Y-50102700D03*
X61766900Y-50102700D03*
X62266900Y-50102700D03*
X62766900Y-50102700D03*
X63266900Y-50102700D03*
X63766900Y-50102700D03*
X64266900Y-50102700D03*
X64766900Y-50102700D03*
X65266900Y-50102700D03*
X65766900Y-50102700D03*
X66266900Y-50102700D03*
D15*
X66954400Y-49415200D03*
X66954400Y-48915200D03*
X66954400Y-48415200D03*
X66954400Y-47915200D03*
X66954400Y-47415200D03*
X66954400Y-46915200D03*
X66954400Y-46415200D03*
X66954400Y-45915200D03*
X66954400Y-45415200D03*
X66954400Y-44915200D03*
X66954400Y-44415200D03*
X66954400Y-43915200D03*
D16*
X66266900Y-43227700D03*
X65766900Y-43227700D03*
X65266900Y-43227700D03*
X64766900Y-43227700D03*
X64266900Y-43227700D03*
X63766900Y-43227700D03*
X63266900Y-43227700D03*
X62766900Y-43227700D03*
X62266900Y-43227700D03*
X61766900Y-43227700D03*
X61266900Y-43227700D03*
X60766900Y-43227700D03*
D17*
X63516900Y-46665200D03*
D14*
X69017400Y-37314500D03*
X69017400Y-39139500D03*
D18*
X54152800Y-50954700D03*
X54152800Y-52679700D03*
D12*
X60071000Y-53534000D03*
X60071000Y-54834000D03*
X60071000Y-56134000D03*
D19*
X70104000Y-53301500D03*
X70104000Y-56426500D03*
D18*
X67825900Y-53950700D03*
X67825900Y-55675700D03*
D20*
X46267400Y-52374800D03*
X48017400Y-52374800D03*
D21*
X70002400Y-47663300D03*
X70002400Y-45838300D03*
D22*
X72614000Y-50802400D03*
X73914000Y-50802400D03*
X75214000Y-50802400D03*
D14*
X64109600Y-53900700D03*
X64109600Y-55725700D03*
D23*
X56184800Y-52705200D03*
X56184800Y-51130200D03*
D24*
X46463300Y-38608000D03*
X48288300Y-38608000D03*
D25*
X72798000Y-59842400D03*
D26*
X71548000Y-59842400D03*
X70298000Y-59842400D03*
X69048000Y-59842400D03*
X67798000Y-59842400D03*
X66548000Y-59842400D03*
D27*
X72163200Y-46700000D03*
X75563200Y-46700000D03*
D12*
X73914000Y-39370000D03*
X73914000Y-38070000D03*
X73914000Y-36770000D03*
D18*
X65967700Y-53950700D03*
X65967700Y-55675700D03*
D28*
X48260000Y-45152000D03*
X48260000Y-45802000D03*
X48260000Y-46452000D03*
X48260000Y-47102000D03*
X48260000Y-47752000D03*
D29*
X45560000Y-42952000D03*
D30*
X45560000Y-43552000D03*
D31*
X48260000Y-43952000D03*
D32*
X45560000Y-45452000D03*
X45560000Y-47452000D03*
D31*
X48260000Y-48952000D03*
D30*
X45560000Y-49352000D03*
D29*
X45560000Y-49952000D03*
D21*
X55651400Y-40894000D03*
X55651400Y-39069000D03*
D33*
X66775000Y-33528000D03*
D26*
X68025000Y-33528000D03*
X69275000Y-33528000D03*
X70525000Y-33528000D03*
X71775000Y-33528000D03*
X73025000Y-33528000D03*
D34*
X52832000Y-34036000D03*
D35*
X54102000Y-34036000D03*
X55372000Y-34036000D03*
X56642000Y-34036000D03*
D36*
X72564000Y-42570400D03*
X75264000Y-42570400D03*
D37*
X56845200Y-43916600D03*
X54145200Y-43916600D03*
D38*
X54334000Y-46741000D03*
X54334000Y-47691000D03*
X54334000Y-48641000D03*
X56609000Y-48641000D03*
X56609000Y-46741000D03*
D13*
X66929000Y-39089500D03*
X66929000Y-37364500D03*
X51257200Y-54354900D03*
X51257200Y-52629900D03*
D21*
X53670200Y-40894000D03*
X53670200Y-39069000D03*
D27*
X53519600Y-55626000D03*
X56919600Y-55626000D03*
D39*
X81178400Y-53467000D03*
D40*
X81178400Y-52217000D03*
X81178400Y-50967000D03*
X81178400Y-49717000D03*
X81178400Y-48467000D03*
X81178400Y-47217000D03*
X81178400Y-45967000D03*
X81178400Y-44717000D03*
X81178400Y-43467000D03*
X81178400Y-42217000D03*
X81178400Y-40967000D03*
X81178400Y-39717000D03*
D20*
X46560800Y-40538400D03*
X48310800Y-40538400D03*
D25*
X60706000Y-59842400D03*
D26*
X59456000Y-59842400D03*
X58206000Y-59842400D03*
X56956000Y-59842400D03*
X55706000Y-59842400D03*
X54456000Y-59842400D03*
D13*
X71105900Y-39089500D03*
X71105900Y-37364500D03*
D24*
X46169900Y-54305200D03*
X47994900Y-54305200D03*
D41*
X62560200Y-36906200D03*
X60060200Y-34406200D03*
X62560200Y-31906200D03*
D42*
X58291800Y-48750700D03*
X56087500Y-42724100D03*
X61172400Y-40233200D03*
X62407400Y-39089500D03*
X65316600Y-51489800D03*
X55365700Y-43424100D03*
X53184200Y-42526900D03*
X57584500Y-38073800D03*
X51918200Y-42292700D03*
X49778400Y-53519500D03*
X57459200Y-57197900D03*
X64159900Y-52653400D03*
X65526700Y-58166500D03*
X68084400Y-52840400D03*
X65878900Y-52840400D03*
X61162200Y-51060100D03*
X64401000Y-41425000D03*
X66067000Y-42277400D03*
X68687500Y-46975100D03*
X59016100Y-48411700D03*
X79276200Y-45771200D03*
X59123800Y-45987700D03*
X59124700Y-44915200D03*
X68962300Y-45473900D03*
X71210900Y-47554900D03*
X68976800Y-47915200D03*
X68841900Y-55091600D03*
X62811700Y-52064300D03*
X65051000Y-58773800D03*
X66735000Y-58192500D03*
X76885800Y-47189000D03*
X77707900Y-46281300D03*
X71507700Y-44640500D03*
X72261200Y-44640500D03*
X67747100Y-52090100D03*
X73754900Y-40598800D03*
X50647200Y-42091100D03*
X47167000Y-42091100D03*
X47167000Y-50677200D03*
X52677500Y-50677200D03*
X58072200Y-50325300D03*
X59130900Y-49397400D03*
X67896200Y-47246500D03*
X61937900Y-42206000D03*
X69898500Y-34569700D03*
X72976000Y-40464400D03*
X60259300Y-50847700D03*
X68423900Y-46000700D03*
X62367200Y-57828200D03*
X67745700Y-43464800D03*
X66871900Y-42566700D03*
X56332600Y-41785100D03*
X52074700Y-53573300D03*
X58110200Y-46785900D03*
X51083900Y-37959300D03*
X71910300Y-38285100D03*
X59722600Y-57287000D03*
X64986000Y-54564700D03*
X61746000Y-40806900D03*
X68807200Y-43226100D03*
X55545900Y-44619700D03*
X57753400Y-52703600D03*
X75669500Y-36658300D03*
X76235200Y-50802400D03*
X49650200Y-54284900D03*
X60474400Y-57151400D03*
X76205200Y-45345500D03*
X78996300Y-43277200D03*
X73936700Y-35765400D03*
D43*
X60766900Y-50621013D02*
X60766900Y-50102700D01*
X60540213Y-50847700D02*
X60766900Y-50621013D01*
X60259300Y-50847700D02*
X60540213Y-50847700D01*
X68541150Y-58156850D02*
X67798000Y-58900000D01*
X70276850Y-58156850D02*
X68541150Y-58156850D01*
X71346700Y-55752700D02*
X71346700Y-57087000D01*
X71346700Y-57087000D02*
X70276850Y-58156850D01*
X70685600Y-55091600D02*
X71346700Y-55752700D01*
X67798000Y-58900000D02*
X67798000Y-59842400D01*
X68841900Y-55091600D02*
X70685600Y-55091600D01*
X68576700Y-57187700D02*
X66548000Y-59216400D01*
X68576700Y-56426500D02*
X68576700Y-57187700D01*
X66548000Y-59216400D02*
X66548000Y-59842400D01*
X55372000Y-35813800D02*
X56936500Y-37378300D01*
X55372000Y-34036000D02*
X55372000Y-35813800D01*
X80330400Y-44717000D02*
X81178400Y-44717000D01*
X79276200Y-45771200D02*
X80330400Y-44717000D01*
X67699700Y-50897200D02*
X70104000Y-53301500D01*
X65506700Y-50897200D02*
X67699700Y-50897200D01*
X65266900Y-50657400D02*
X65506700Y-50897200D01*
X65266900Y-50102700D02*
X65266900Y-50657400D01*
X66929000Y-39089500D02*
X62407400Y-39089500D01*
X58681500Y-42724100D02*
X61172400Y-40233200D01*
X56087500Y-42724100D02*
X58681500Y-42724100D01*
X58291800Y-48299100D02*
X58291800Y-48750700D01*
X58771000Y-47819900D02*
X58291800Y-48299100D01*
X59261300Y-47819900D02*
X58771000Y-47819900D01*
X59356600Y-47915200D02*
X59261300Y-47819900D01*
X60079400Y-47915200D02*
X59356600Y-47915200D01*
X56184800Y-50857700D02*
X58291800Y-48750700D01*
X56184800Y-51130200D02*
X56184800Y-50857700D01*
X54295300Y-50954700D02*
X56609000Y-48641000D01*
X54152800Y-50954700D02*
X54295300Y-50954700D01*
X57632600Y-38121900D02*
X57584500Y-38073800D01*
X57632600Y-39069000D02*
X57632600Y-38121900D01*
X54468500Y-42526900D02*
X53184200Y-42526900D01*
X55365700Y-43424100D02*
X54468500Y-42526900D01*
X64766900Y-50940100D02*
X65316600Y-51489800D01*
X64766900Y-50102700D02*
X64766900Y-50940100D01*
X52271500Y-42292700D02*
X51918200Y-42292700D01*
X53670200Y-40894000D02*
X52271500Y-42292700D01*
X50242000Y-53983100D02*
X49778400Y-53519500D01*
X50242000Y-54732400D02*
X50242000Y-53983100D01*
X50744600Y-55235000D02*
X50242000Y-54732400D01*
X51345400Y-55235000D02*
X50744600Y-55235000D01*
X53308300Y-57197900D02*
X51345400Y-55235000D01*
X57459200Y-57197900D02*
X53308300Y-57197900D01*
X63835200Y-52328700D02*
X64159900Y-52653400D01*
X63835200Y-51335200D02*
X63835200Y-52328700D01*
X63766900Y-51266900D02*
X63835200Y-51335200D01*
X63766900Y-50102700D02*
X63766900Y-51266900D01*
X65526700Y-57142800D02*
X65526700Y-58166500D01*
X64109600Y-55725700D02*
X65526700Y-57142800D01*
X54102000Y-38637200D02*
X53670200Y-39069000D01*
X54102000Y-34036000D02*
X54102000Y-38637200D01*
X52832000Y-39553600D02*
X52832000Y-34036000D01*
X53259700Y-39981300D02*
X52832000Y-39553600D01*
X56719900Y-39981300D02*
X53259700Y-39981300D01*
X57632600Y-40894000D02*
X56719900Y-39981300D01*
X63403500Y-53194600D02*
X64109600Y-53900700D01*
X63403500Y-51738400D02*
X63403500Y-53194600D01*
X63266900Y-51601800D02*
X63403500Y-51738400D01*
X63266900Y-50102700D02*
X63266900Y-51601800D01*
X48017400Y-52457700D02*
X48017400Y-52374800D01*
X46169900Y-54305200D02*
X48017400Y-52457700D01*
X48310800Y-40455500D02*
X48310800Y-40538400D01*
X46463300Y-38608000D02*
X48310800Y-40455500D01*
X62766900Y-41440400D02*
X62766900Y-43227700D01*
X64076200Y-40131100D02*
X62766900Y-41440400D01*
X68025800Y-40131100D02*
X64076200Y-40131100D01*
X69017400Y-39139500D02*
X68025800Y-40131100D01*
X61266900Y-50955400D02*
X61162200Y-51060100D01*
X61266900Y-50102700D02*
X61266900Y-50955400D01*
X68084400Y-52840400D02*
X65878900Y-52840400D01*
X81178400Y-42217000D02*
X80136700Y-42217000D01*
X64766900Y-42713700D02*
X64766900Y-43227700D01*
X65940500Y-41540100D02*
X64766900Y-42713700D01*
X73261300Y-41540100D02*
X65940500Y-41540100D01*
X73914000Y-42192800D02*
X73261300Y-41540100D01*
X73914000Y-42941900D02*
X73914000Y-42192800D01*
X74567000Y-43594900D02*
X73914000Y-42941900D01*
X76265800Y-43594900D02*
X74567000Y-43594900D01*
X77643700Y-42217000D02*
X76265800Y-43594900D01*
X80136700Y-42217000D02*
X77643700Y-42217000D01*
X63766900Y-42059100D02*
X64401000Y-41425000D01*
X63766900Y-43227700D02*
X63766900Y-42059100D01*
X65766900Y-42577500D02*
X66067000Y-42277400D01*
X65766900Y-43227700D02*
X65766900Y-42577500D01*
X72163200Y-46700000D02*
X71371500Y-46700000D01*
X72163200Y-46700000D02*
X75563200Y-46700000D01*
X70002400Y-46975100D02*
X70002400Y-47663300D01*
X70277500Y-46700000D02*
X70002400Y-46975100D01*
X71371500Y-46700000D02*
X70277500Y-46700000D01*
X60075900Y-48411700D02*
X59016100Y-48411700D01*
X60079400Y-48415200D02*
X60075900Y-48411700D01*
X70002400Y-46975100D02*
X68687500Y-46975100D01*
X59551300Y-46415200D02*
X59123800Y-45987700D01*
X60079400Y-46415200D02*
X59551300Y-46415200D01*
X60079400Y-44915200D02*
X59124700Y-44915200D01*
X66960600Y-45409000D02*
X66954400Y-45415200D01*
X68897400Y-45409000D02*
X66960600Y-45409000D01*
X68962300Y-45473900D02*
X68897400Y-45409000D01*
X66954400Y-47915200D02*
X68976800Y-47915200D01*
X71574600Y-47918600D02*
X71210900Y-47554900D01*
X77046400Y-47918600D02*
X71574600Y-47918600D01*
X77594800Y-48467000D02*
X77046400Y-47918600D01*
X81178400Y-48467000D02*
X77594800Y-48467000D01*
X77930100Y-49717000D02*
X81178400Y-49717000D01*
X76600900Y-48387800D02*
X77930100Y-49717000D01*
X71498200Y-48387800D02*
X76600900Y-48387800D01*
X71353600Y-48532400D02*
X71498200Y-48387800D01*
X68754800Y-48532400D02*
X71353600Y-48532400D01*
X68637600Y-48415200D02*
X68754800Y-48532400D01*
X66954400Y-48415200D02*
X68637600Y-48415200D01*
X78500600Y-50967000D02*
X81178400Y-50967000D01*
X76380900Y-48847300D02*
X78500600Y-50967000D01*
X74214700Y-48847300D02*
X76380900Y-48847300D01*
X74047000Y-49015000D02*
X74214700Y-48847300D01*
X67934800Y-49015000D02*
X74047000Y-49015000D01*
X67835000Y-48915200D02*
X67934800Y-49015000D01*
X66954400Y-48915200D02*
X67835000Y-48915200D01*
X67014300Y-49475100D02*
X66954400Y-49415200D01*
X74197500Y-49475100D02*
X67014300Y-49475100D01*
X74393600Y-49279000D02*
X74197500Y-49475100D01*
X76202000Y-49279000D02*
X74393600Y-49279000D01*
X79140000Y-52217000D02*
X76202000Y-49279000D01*
X81178400Y-52217000D02*
X79140000Y-52217000D01*
X73914000Y-50369200D02*
X73914000Y-50802400D01*
X74572500Y-49710700D02*
X73914000Y-50369200D01*
X76023100Y-49710700D02*
X74572500Y-49710700D01*
X79779400Y-53467000D02*
X76023100Y-49710700D01*
X81178400Y-53467000D02*
X79779400Y-53467000D01*
X62766900Y-52019500D02*
X62811700Y-52064300D01*
X62766900Y-50102700D02*
X62766900Y-52019500D01*
X62220000Y-55942800D02*
X65051000Y-58773800D01*
X62220000Y-51819200D02*
X62220000Y-55942800D01*
X62266900Y-51772300D02*
X62220000Y-51819200D01*
X62266900Y-50102700D02*
X62266900Y-51772300D01*
X66501000Y-58192500D02*
X66735000Y-58192500D01*
X65312100Y-59381400D02*
X66501000Y-58192500D01*
X64821800Y-59381400D02*
X65312100Y-59381400D01*
X61766900Y-56326500D02*
X64821800Y-59381400D01*
X61766900Y-50102700D02*
X61766900Y-56326500D01*
X77707900Y-46366900D02*
X76885800Y-47189000D01*
X77707900Y-46281300D02*
X77707900Y-46366900D01*
X65041600Y-52090100D02*
X67747100Y-52090100D01*
X64266900Y-51315400D02*
X65041600Y-52090100D01*
X64266900Y-50102700D02*
X64266900Y-51315400D01*
X71507700Y-44640500D02*
X72261200Y-44640500D01*
X72798000Y-55447100D02*
X73025500Y-55219600D01*
X72798000Y-59842400D02*
X72798000Y-55447100D01*
X74117200Y-55219600D02*
X73025500Y-55219600D01*
X73283200Y-41070500D02*
X73754900Y-40598800D01*
X65739900Y-41070500D02*
X73283200Y-41070500D01*
X64266900Y-42543500D02*
X65739900Y-41070500D01*
X64266900Y-43227700D02*
X64266900Y-42543500D01*
X67727500Y-47415200D02*
X66954400Y-47415200D01*
X67896200Y-47246500D02*
X67727500Y-47415200D01*
X47167000Y-50677200D02*
X52677500Y-50677200D01*
X50647200Y-42091100D02*
X47167000Y-42091100D01*
X59000100Y-49397400D02*
X59130900Y-49397400D01*
X58072200Y-50325300D02*
X59000100Y-49397400D01*
X62266900Y-42535000D02*
X61937900Y-42206000D01*
X62266900Y-43227700D02*
X62266900Y-42535000D01*
X68025000Y-33528000D02*
X68025000Y-34569700D01*
X68025000Y-34569700D02*
X69898500Y-34569700D01*
X72877600Y-40562800D02*
X72976000Y-40464400D01*
X64360400Y-40562800D02*
X72877600Y-40562800D01*
X63266900Y-41656300D02*
X64360400Y-40562800D01*
X63266900Y-43227700D02*
X63266900Y-41656300D01*
X73914000Y-38070000D02*
X72822300Y-38070000D01*
X72822300Y-35795500D02*
X72822300Y-38070000D01*
X73883500Y-34734300D02*
X72822300Y-35795500D01*
X73883500Y-32999600D02*
X73883500Y-34734300D01*
X73334000Y-32450100D02*
X73883500Y-32999600D01*
X67615300Y-32450100D02*
X73334000Y-32450100D01*
X66775000Y-33290400D02*
X67615300Y-32450100D01*
X66775000Y-33528000D02*
X66775000Y-33290400D01*
X56956000Y-59842400D02*
X56956000Y-58800700D01*
X57576800Y-51917800D02*
X60079400Y-49415200D01*
X55596500Y-51917800D02*
X57576800Y-51917800D01*
X55346200Y-52168100D02*
X55596500Y-51917800D01*
X55346200Y-53136700D02*
X55346200Y-52168100D01*
X56141100Y-53931600D02*
X55346200Y-53136700D01*
X57079600Y-53931600D02*
X56141100Y-53931600D01*
X58050900Y-54902900D02*
X57079600Y-53931600D01*
X58050900Y-57705800D02*
X58050900Y-54902900D01*
X56956000Y-58800700D02*
X58050900Y-57705800D01*
X58239800Y-60917900D02*
X58206000Y-60884100D01*
X61247500Y-60917900D02*
X58239800Y-60917900D01*
X62367200Y-59798200D02*
X61247500Y-60917900D01*
X62367200Y-57828200D02*
X62367200Y-59798200D01*
X58206000Y-59842400D02*
X58206000Y-60884100D01*
X68009400Y-46415200D02*
X68423900Y-46000700D01*
X66954400Y-46415200D02*
X68009400Y-46415200D01*
X60071000Y-54834000D02*
X61162700Y-54834000D01*
X61162700Y-59385700D02*
X60706000Y-59842400D01*
X61162700Y-54834000D02*
X61162700Y-59385700D01*
X50266700Y-45982000D02*
X51308000Y-45982000D01*
X49796700Y-46452000D02*
X50266700Y-45982000D01*
X48260000Y-46452000D02*
X49796700Y-46452000D01*
X67745700Y-44684800D02*
X67745700Y-43464800D01*
X67515300Y-44915200D02*
X67745700Y-44684800D01*
X66954400Y-44915200D02*
X67515300Y-44915200D01*
X50096700Y-44982000D02*
X51308000Y-44982000D01*
X49276700Y-45802000D02*
X50096700Y-44982000D01*
X48260000Y-45802000D02*
X49276700Y-45802000D01*
X50421300Y-47102000D02*
X50541300Y-46982000D01*
X48260000Y-47102000D02*
X50421300Y-47102000D01*
X56919600Y-55626000D02*
X53519600Y-55626000D01*
X53519600Y-55626000D02*
X52727900Y-55626000D01*
X51196900Y-46982000D02*
X50541300Y-46982000D01*
X51196900Y-46982000D02*
X51308000Y-46982000D01*
X52727900Y-55626000D02*
X51456800Y-54354900D01*
X51456800Y-54354900D02*
X51257200Y-54354900D01*
X52074700Y-53737000D02*
X52074700Y-53573300D01*
X51456800Y-54354900D02*
X52074700Y-53737000D01*
X56332600Y-41575200D02*
X56332600Y-41785100D01*
X55651400Y-40894000D02*
X56332600Y-41575200D01*
X58239500Y-46915200D02*
X58110200Y-46785900D01*
X60079400Y-46915200D02*
X58239500Y-46915200D01*
X72614000Y-50802400D02*
X72193200Y-50802400D01*
X72193200Y-50802400D02*
X71772300Y-50802400D01*
X67825900Y-53950700D02*
X65967700Y-53950700D01*
X60766900Y-43227700D02*
X60079400Y-43915200D01*
X48937000Y-37959300D02*
X51083900Y-37959300D01*
X48288300Y-38608000D02*
X48937000Y-37959300D01*
X59525200Y-53534000D02*
X60071000Y-53534000D01*
X74117200Y-53919600D02*
X73133900Y-53919600D01*
X71386400Y-39370000D02*
X71105900Y-39089500D01*
X73914000Y-39370000D02*
X71386400Y-39370000D01*
X59366800Y-53534000D02*
X59423500Y-53534000D01*
X59525200Y-53534000D02*
X59423500Y-53534000D01*
X59366800Y-53534000D02*
X59173100Y-53534000D01*
X59173100Y-53534000D02*
X58979300Y-53534000D01*
X60766900Y-41786000D02*
X61746000Y-40806900D01*
X60766900Y-43227700D02*
X60766900Y-41786000D01*
X61796300Y-37670100D02*
X62560200Y-36906200D01*
X61796300Y-40756600D02*
X61796300Y-37670100D01*
X61746000Y-40806900D02*
X61796300Y-40756600D01*
X71105900Y-39089500D02*
X71910300Y-38285100D01*
X71448600Y-42570400D02*
X70002400Y-44016600D01*
X72564000Y-42570400D02*
X71448600Y-42570400D01*
X70002400Y-44016600D02*
X70002400Y-45838300D01*
X56846600Y-43915200D02*
X56845200Y-43916600D01*
X60079400Y-43915200D02*
X56846600Y-43915200D01*
X58150500Y-52705200D02*
X57753400Y-52705200D01*
X58979300Y-53534000D02*
X58150500Y-52705200D01*
X56184800Y-52705200D02*
X57753400Y-52705200D01*
X56142100Y-46274100D02*
X56609000Y-46741000D01*
X56142100Y-44619700D02*
X56142100Y-46274100D01*
X56845200Y-43916600D02*
X56142100Y-44619700D01*
X56936500Y-37783900D02*
X55651400Y-39069000D01*
X56936500Y-37378300D02*
X56936500Y-37783900D01*
X62088100Y-37378300D02*
X62560200Y-36906200D01*
X56936500Y-37378300D02*
X62088100Y-37378300D01*
X59442800Y-57287000D02*
X59722600Y-57287000D01*
X58979300Y-56823500D02*
X59442800Y-57287000D01*
X58979300Y-53727800D02*
X58979300Y-56823500D01*
X59173100Y-53534000D02*
X58979300Y-53727800D01*
X72193200Y-53614600D02*
X72193200Y-50802400D01*
X72828900Y-53614600D02*
X72193200Y-53614600D01*
X73133900Y-53919600D02*
X72828900Y-53614600D01*
X68226900Y-54351700D02*
X67825900Y-53950700D01*
X71456100Y-54351700D02*
X68226900Y-54351700D01*
X72193200Y-53614600D02*
X71456100Y-54351700D01*
X56142100Y-44619700D02*
X55545900Y-44619700D01*
X69211900Y-43226100D02*
X68807200Y-43226100D01*
X70002400Y-44016600D02*
X69211900Y-43226100D01*
X66954400Y-43368900D02*
X66954400Y-43915200D01*
X67500500Y-42822800D02*
X66954400Y-43368900D01*
X68403900Y-42822800D02*
X67500500Y-42822800D01*
X68807200Y-43226100D02*
X68403900Y-42822800D01*
X71072600Y-50102700D02*
X66266900Y-50102700D01*
X71772300Y-50802400D02*
X71072600Y-50102700D01*
X65600000Y-53950700D02*
X64986000Y-54564700D01*
X65967700Y-53950700D02*
X65600000Y-53950700D01*
X57753400Y-52705200D02*
X57753400Y-52703600D01*
X45560000Y-49952000D02*
X45560000Y-49352000D01*
X47043300Y-49352000D02*
X47443300Y-48952000D01*
X45560000Y-49352000D02*
X47043300Y-49352000D01*
X47860000Y-48952000D02*
X47443300Y-48952000D01*
X47243300Y-48335300D02*
X47243300Y-47752000D01*
X47860000Y-48952000D02*
X47243300Y-48335300D01*
X48260000Y-47752000D02*
X47243300Y-47752000D01*
X46976700Y-47752000D02*
X47243300Y-47752000D01*
X46676700Y-47452000D02*
X46976700Y-47752000D01*
X45560000Y-47452000D02*
X46676700Y-47452000D01*
X47076700Y-43952000D02*
X46676700Y-43552000D01*
X48260000Y-43952000D02*
X47076700Y-43952000D01*
X45560000Y-43552000D02*
X46118400Y-43552000D01*
X45560000Y-42993600D02*
X45560000Y-42952000D01*
X46118400Y-43552000D02*
X45560000Y-42993600D01*
X45560000Y-43552000D02*
X45560000Y-45452000D01*
X45560000Y-45452000D02*
X45560000Y-47452000D01*
X48060000Y-48952000D02*
X47860000Y-48952000D01*
X48060000Y-48952000D02*
X48260000Y-48952000D01*
X51308000Y-47982000D02*
X50541300Y-47982000D01*
X46560800Y-40538400D02*
X46560800Y-43552000D01*
X46118400Y-43552000D02*
X46560800Y-43552000D01*
X46560800Y-43552000D02*
X46676700Y-43552000D01*
X45560000Y-49952000D02*
X46676700Y-49952000D01*
X65967700Y-55675700D02*
X67825900Y-55675700D01*
X63516900Y-44415200D02*
X66954400Y-44415200D01*
X61943900Y-44415200D02*
X63516900Y-44415200D01*
X61266900Y-43738200D02*
X61943900Y-44415200D01*
X61266900Y-43227700D02*
X61266900Y-43738200D01*
X63516900Y-44415200D02*
X63516900Y-46665200D01*
X65766900Y-49592200D02*
X63178400Y-47003700D01*
X65766900Y-50102700D02*
X65766900Y-49592200D01*
X63516900Y-46665200D02*
X63178400Y-47003700D01*
X50157000Y-51529700D02*
X51257200Y-52629900D01*
X46676700Y-51529700D02*
X50157000Y-51529700D01*
X46676700Y-51965500D02*
X46676700Y-51529700D01*
X46267400Y-52374800D02*
X46676700Y-51965500D01*
X54456000Y-59842400D02*
X54456000Y-60884100D01*
X66548000Y-59935800D02*
X66548000Y-60884100D01*
X66548000Y-59935800D02*
X66548000Y-59842400D01*
X70104000Y-56426500D02*
X68576700Y-56426500D01*
X68576700Y-56426500D02*
X67825900Y-55675700D01*
X51689000Y-33235400D02*
X51689000Y-39119000D01*
X52130500Y-32793900D02*
X51689000Y-33235400D01*
X62560200Y-32793900D02*
X52130500Y-32793900D01*
X62560200Y-32793900D02*
X62560200Y-31906200D01*
X62766900Y-47415200D02*
X60079400Y-47415200D01*
X63178400Y-47003700D02*
X62766900Y-47415200D01*
X69067400Y-37364500D02*
X71105900Y-37364500D01*
X69017400Y-37314500D02*
X69067400Y-37364500D01*
X66929000Y-37314500D02*
X66929000Y-37364500D01*
X66929000Y-37314500D02*
X69017400Y-37314500D01*
X62560200Y-32945700D02*
X66929000Y-37314500D01*
X62560200Y-32793900D02*
X62560200Y-32945700D01*
X81178400Y-39717000D02*
X80136700Y-39717000D01*
X75669500Y-39717000D02*
X80136700Y-39717000D01*
X75669500Y-42164900D02*
X75669500Y-39717000D01*
X75264000Y-42570400D02*
X75669500Y-42164900D01*
X75669500Y-39717000D02*
X75669500Y-36658300D01*
X73025000Y-34971100D02*
X73025000Y-33528000D01*
X71105900Y-36890200D02*
X73025000Y-34971100D01*
X71105900Y-37364500D02*
X71105900Y-36890200D01*
X47378400Y-41356000D02*
X46560800Y-40538400D01*
X49431500Y-41356000D02*
X47378400Y-41356000D01*
X51668500Y-39119000D02*
X49431500Y-41356000D01*
X51689000Y-39119000D02*
X51668500Y-39119000D01*
X49571300Y-48952000D02*
X48260000Y-48952000D01*
X50541300Y-47982000D02*
X49571300Y-48952000D01*
X60052400Y-47388200D02*
X55361600Y-47388200D01*
X60079400Y-47415200D02*
X60052400Y-47388200D01*
X55361600Y-45279000D02*
X55361600Y-47388200D01*
X54145200Y-44062600D02*
X55361600Y-45279000D01*
X54145200Y-43916600D02*
X54145200Y-44062600D01*
X55361600Y-47388200D02*
X54949900Y-47799900D01*
X54841000Y-47691000D02*
X54949900Y-47799900D01*
X54334000Y-47691000D02*
X54841000Y-47691000D01*
X66047200Y-61384900D02*
X66548000Y-60884100D01*
X54956800Y-61384900D02*
X66047200Y-61384900D01*
X54456000Y-60884100D02*
X54956800Y-61384900D01*
X46575300Y-51428300D02*
X46676700Y-51529700D01*
X46575300Y-50432100D02*
X46575300Y-51428300D01*
X46676700Y-50330700D02*
X46575300Y-50432100D01*
X46676700Y-49952000D02*
X46676700Y-50330700D01*
X52700800Y-52629900D02*
X53335200Y-51995500D01*
X51257200Y-52629900D02*
X52700800Y-52629900D01*
X53468600Y-51995500D02*
X53335200Y-51995500D01*
X54152800Y-52679700D02*
X53468600Y-51995500D01*
X55359800Y-48209800D02*
X54949900Y-47799900D01*
X55359800Y-48975900D02*
X55359800Y-48209800D01*
X54628100Y-49707600D02*
X55359800Y-48975900D01*
X53982400Y-49707600D02*
X54628100Y-49707600D01*
X53335200Y-50354800D02*
X53982400Y-49707600D01*
X53335200Y-51995500D02*
X53335200Y-50354800D01*
X50446700Y-43982000D02*
X51308000Y-43982000D01*
X49276700Y-45152000D02*
X50446700Y-43982000D01*
X48260000Y-45152000D02*
X49276700Y-45152000D01*
X75208900Y-51899200D02*
X75214000Y-51894100D01*
X75208900Y-56519600D02*
X75208900Y-51899200D01*
X74117200Y-56519600D02*
X75208900Y-56519600D01*
X75214000Y-50802400D02*
X75214000Y-51894100D01*
X51308000Y-43982000D02*
X51308000Y-43598600D01*
X51308000Y-43598600D02*
X51308000Y-43215300D01*
X54334000Y-46741000D02*
X53790900Y-46741000D01*
X73914000Y-35788100D02*
X73936700Y-35765400D01*
X73914000Y-36770000D02*
X73914000Y-35788100D01*
X53327600Y-47204300D02*
X53790900Y-46741000D01*
X53327600Y-48056400D02*
X53327600Y-47204300D01*
X53912200Y-48641000D02*
X53327600Y-48056400D01*
X54334000Y-48641000D02*
X53912200Y-48641000D01*
X53790900Y-46081500D02*
X53790900Y-46741000D01*
X51308000Y-43598600D02*
X53790900Y-46081500D01*
X60474400Y-56537400D02*
X60474400Y-57151400D01*
X60071000Y-56134000D02*
X60474400Y-56537400D01*
X51308000Y-41225000D02*
X51308000Y-43215300D01*
X51689000Y-40844000D02*
X51308000Y-41225000D01*
X48015200Y-54284900D02*
X49650200Y-54284900D01*
X47994900Y-54305200D02*
X48015200Y-54284900D01*
X76235200Y-50802400D02*
X75214000Y-50802400D01*
X76928000Y-45345500D02*
X78996300Y-43277200D01*
X76205200Y-45345500D02*
X76928000Y-45345500D01*
X66266900Y-43227700D02*
X66266900Y-43171700D01*
X66266900Y-43171700D02*
X66871900Y-42566700D01*
M02*
