G04 #@! TF.GenerationSoftware,KiCad,Pcbnew,8.0.5*
G04 #@! TF.CreationDate,2024-09-28T14:46:52+05:30*
G04 #@! TF.ProjectId,MKM01V10,4d4b4d30-3156-4313-902e-6b696361645f,1.0*
G04 #@! TF.SameCoordinates,Original*
G04 #@! TF.FileFunction,Copper,L2,Bot*
G04 #@! TF.FilePolarity,Positive*
%FSLAX46Y46*%
G04 Gerber Fmt 4.6, Leading zero omitted, Abs format (unit mm)*
G04 Created by KiCad (PCBNEW 8.0.5) date 2024-09-28 14:46:52*
%MOMM*%
%LPD*%
G01*
G04 APERTURE LIST*
G04 Aperture macros list*
%AMRoundRect*
0 Rectangle with rounded corners*
0 $1 Rounding radius*
0 $2 $3 $4 $5 $6 $7 $8 $9 X,Y pos of 4 corners*
0 Add a 4 corners polygon primitive as box body*
4,1,4,$2,$3,$4,$5,$6,$7,$8,$9,$2,$3,0*
0 Add four circle primitives for the rounded corners*
1,1,$1+$1,$2,$3*
1,1,$1+$1,$4,$5*
1,1,$1+$1,$6,$7*
1,1,$1+$1,$8,$9*
0 Add four rect primitives between the rounded corners*
20,1,$1+$1,$2,$3,$4,$5,0*
20,1,$1+$1,$4,$5,$6,$7,0*
20,1,$1+$1,$6,$7,$8,$9,0*
20,1,$1+$1,$8,$9,$2,$3,0*%
G04 Aperture macros list end*
G04 #@! TA.AperFunction,ComponentPad*
%ADD10R,0.850000X0.850000*%
G04 #@! TD*
G04 #@! TA.AperFunction,ComponentPad*
%ADD11O,0.850000X0.850000*%
G04 #@! TD*
G04 #@! TA.AperFunction,ComponentPad*
%ADD12RoundRect,0.225000X0.225000X0.475000X-0.225000X0.475000X-0.225000X-0.475000X0.225000X-0.475000X0*%
G04 #@! TD*
G04 #@! TA.AperFunction,ComponentPad*
%ADD13O,0.900000X1.400000*%
G04 #@! TD*
G04 #@! TA.AperFunction,ComponentPad*
%ADD14O,1.550000X0.890000*%
G04 #@! TD*
G04 #@! TA.AperFunction,ComponentPad*
%ADD15O,0.950000X1.250000*%
G04 #@! TD*
G04 #@! TA.AperFunction,ComponentPad*
%ADD16RoundRect,0.225000X-0.225000X-0.475000X0.225000X-0.475000X0.225000X0.475000X-0.225000X0.475000X0*%
G04 #@! TD*
G04 #@! TA.AperFunction,ComponentPad*
%ADD17R,1.070000X1.800000*%
G04 #@! TD*
G04 #@! TA.AperFunction,ComponentPad*
%ADD18O,1.070000X1.800000*%
G04 #@! TD*
G04 #@! TA.AperFunction,ComponentPad*
%ADD19RoundRect,0.225000X0.475000X-0.225000X0.475000X0.225000X-0.475000X0.225000X-0.475000X-0.225000X0*%
G04 #@! TD*
G04 #@! TA.AperFunction,ComponentPad*
%ADD20O,1.400000X0.900000*%
G04 #@! TD*
G04 #@! TA.AperFunction,ComponentPad*
%ADD21C,1.620000*%
G04 #@! TD*
G04 #@! TA.AperFunction,ViaPad*
%ADD22C,0.500000*%
G04 #@! TD*
G04 #@! TA.AperFunction,Conductor*
%ADD23C,0.180000*%
G04 #@! TD*
G04 APERTURE END LIST*
D10*
X51308000Y-43982000D03*
D11*
X51308000Y-44982000D03*
X51308000Y-45982000D03*
X51308000Y-46982000D03*
X51308000Y-47982000D03*
X51308000Y-48982000D03*
D12*
X72798000Y-59842400D03*
D13*
X71548000Y-59842400D03*
X70298000Y-59842400D03*
X69048000Y-59842400D03*
X67798000Y-59842400D03*
X66548000Y-59842400D03*
D14*
X45560000Y-42952000D03*
D15*
X48260000Y-43952000D03*
X48260000Y-48952000D03*
D14*
X45560000Y-49952000D03*
D16*
X66775000Y-33528000D03*
D13*
X68025000Y-33528000D03*
X69275000Y-33528000D03*
X70525000Y-33528000D03*
X71775000Y-33528000D03*
X73025000Y-33528000D03*
D17*
X52832000Y-34036000D03*
D18*
X54102000Y-34036000D03*
X55372000Y-34036000D03*
X56642000Y-34036000D03*
D19*
X81178400Y-53467000D03*
D20*
X81178400Y-52217000D03*
X81178400Y-50967000D03*
X81178400Y-49717000D03*
X81178400Y-48467000D03*
X81178400Y-47217000D03*
X81178400Y-45967000D03*
X81178400Y-44717000D03*
X81178400Y-43467000D03*
X81178400Y-42217000D03*
X81178400Y-40967000D03*
X81178400Y-39717000D03*
D12*
X60706000Y-59842400D03*
D13*
X59456000Y-59842400D03*
X58206000Y-59842400D03*
X56956000Y-59842400D03*
X55706000Y-59842400D03*
X54456000Y-59842400D03*
D21*
X62560200Y-36906200D03*
X60060200Y-34406200D03*
X62560200Y-31906200D03*
D22*
X58291800Y-48750700D03*
X56087500Y-42724100D03*
X61172400Y-40233200D03*
X62407400Y-39089500D03*
X65316600Y-51489800D03*
X55365700Y-43424100D03*
X53184200Y-42526900D03*
X57584500Y-38073800D03*
X51918200Y-42292700D03*
X49778400Y-53519500D03*
X57459200Y-57197900D03*
X64159900Y-52653400D03*
X65526700Y-58166500D03*
X68084400Y-52840400D03*
X65878900Y-52840400D03*
X61162200Y-51060100D03*
X64401000Y-41425000D03*
X66067000Y-42277400D03*
X68687500Y-46975100D03*
X59016100Y-48411700D03*
X79276200Y-45771200D03*
X59123800Y-45987700D03*
X59124700Y-44915200D03*
X68962300Y-45473900D03*
X71210900Y-47554900D03*
X68976800Y-47915200D03*
X68841900Y-55091600D03*
X62811700Y-52064300D03*
X65051000Y-58773800D03*
X66735000Y-58192500D03*
X76885800Y-47189000D03*
X77707900Y-46281300D03*
X71507700Y-44640500D03*
X72261200Y-44640500D03*
X67747100Y-52090100D03*
X73754900Y-40598800D03*
X50647200Y-42091100D03*
X47167000Y-42091100D03*
X47167000Y-50677200D03*
X52677500Y-50677200D03*
X58072200Y-50325300D03*
X59130900Y-49397400D03*
X67896200Y-47246500D03*
X61937900Y-42206000D03*
X69898500Y-34569700D03*
X72976000Y-40464400D03*
X60259300Y-50847700D03*
X68423900Y-46000700D03*
X62367200Y-57828200D03*
X67745700Y-43464800D03*
X66871900Y-42566700D03*
X56332600Y-41785100D03*
X52074700Y-53573300D03*
X58110200Y-46785900D03*
X51083900Y-37959300D03*
X71910300Y-38285100D03*
X59722600Y-57287000D03*
X64986000Y-54564700D03*
X61746000Y-40806900D03*
X68807200Y-43226100D03*
X55545900Y-44619700D03*
X57753400Y-52703600D03*
X75669500Y-36658300D03*
X76235200Y-50802400D03*
X49650200Y-54284900D03*
X60474400Y-57151400D03*
X76205200Y-45345500D03*
X78996300Y-43277200D03*
X73936700Y-35765400D03*
D23*
X52238000Y-44982000D02*
X51308000Y-44982000D01*
X52697250Y-43877250D02*
X52697250Y-44522750D01*
X52697250Y-44522750D02*
X52238000Y-44982000D01*
X60316000Y-43237500D02*
X57809900Y-40731400D01*
X66201100Y-43237500D02*
X60316000Y-43237500D01*
X57809900Y-40731400D02*
X55843100Y-40731400D01*
X66871900Y-42566700D02*
X66201100Y-43237500D01*
X55843100Y-40731400D02*
X52697250Y-43877250D01*
X80950450Y-45739050D02*
X81178400Y-45967000D01*
X77167600Y-42896000D02*
X78782500Y-44510900D01*
X78852800Y-44510900D02*
X80080950Y-45739050D01*
X69974400Y-42896000D02*
X77167600Y-42896000D01*
X78782500Y-44510900D02*
X78852800Y-44510900D01*
X68291400Y-44579000D02*
X69974400Y-42896000D01*
X80080950Y-45739050D02*
X80950450Y-45739050D01*
X59460900Y-44579000D02*
X68291400Y-44579000D01*
X59124700Y-44915200D02*
X59460900Y-44579000D01*
X62316100Y-39089500D02*
X61172400Y-40233200D01*
X62407400Y-39089500D02*
X62316100Y-39089500D01*
X57162400Y-43799000D02*
X56087500Y-42724100D01*
X57162500Y-43799000D02*
X57162400Y-43799000D01*
X57162500Y-47621400D02*
X57162500Y-43799000D01*
X58291800Y-48750700D02*
X57162500Y-47621400D01*
X53184200Y-42474100D02*
X53184200Y-42526900D01*
X57584500Y-38073800D02*
X53184200Y-42474100D01*
X63815900Y-49989100D02*
X65316600Y-51489800D01*
X58625700Y-49989100D02*
X63815900Y-49989100D01*
X56228000Y-47591400D02*
X58625700Y-49989100D01*
X56228000Y-44286400D02*
X56228000Y-47591400D01*
X55365700Y-43424100D02*
X56228000Y-44286400D01*
X49778400Y-44111300D02*
X49778400Y-53519500D01*
X51597000Y-42292700D02*
X49778400Y-44111300D01*
X51918200Y-42292700D02*
X51597000Y-42292700D01*
X61476300Y-53180800D02*
X57459200Y-57197900D01*
X63632500Y-53180800D02*
X61476300Y-53180800D01*
X64159900Y-52653400D02*
X63632500Y-53180800D01*
X56642000Y-34036000D02*
X56642000Y-35277700D01*
X64682200Y-58166500D02*
X65526700Y-58166500D01*
X61446400Y-61402300D02*
X64682200Y-58166500D01*
X53977600Y-61402300D02*
X61446400Y-61402300D01*
X51308000Y-58732700D02*
X53977600Y-61402300D01*
X51308000Y-55741600D02*
X51308000Y-58732700D01*
X50735400Y-55169000D02*
X51308000Y-55741600D01*
X49616500Y-55169000D02*
X50735400Y-55169000D01*
X48997400Y-54549900D02*
X49616500Y-55169000D01*
X48997400Y-53196500D02*
X48997400Y-54549900D01*
X49243500Y-52950400D02*
X48997400Y-53196500D01*
X49243500Y-42658000D02*
X49243500Y-52950400D01*
X56623800Y-35277700D02*
X49243500Y-42658000D01*
X56642000Y-35277700D02*
X56623800Y-35277700D01*
X81178400Y-40967000D02*
X82220100Y-40967000D01*
X82232000Y-40978900D02*
X82220100Y-40967000D01*
X82232000Y-53967400D02*
X82232000Y-40978900D01*
X81909200Y-54290200D02*
X82232000Y-53967400D01*
X80451300Y-54290200D02*
X81909200Y-54290200D01*
X77534200Y-51373100D02*
X80451300Y-54290200D01*
X77534200Y-46968900D02*
X77534200Y-51373100D01*
X77116200Y-46550900D02*
X77534200Y-46968900D01*
X77116200Y-45403400D02*
X77116200Y-46550900D01*
X76412000Y-44699200D02*
X77116200Y-45403400D01*
X75947500Y-44699200D02*
X76412000Y-44699200D01*
X72692900Y-47953800D02*
X75947500Y-44699200D01*
X72692900Y-48231900D02*
X72692900Y-47953800D01*
X68084400Y-52840400D02*
X72692900Y-48231900D01*
X65794400Y-52840400D02*
X65878900Y-52840400D01*
X64014100Y-51060100D02*
X65794400Y-52840400D01*
X61162200Y-51060100D02*
X64014100Y-51060100D01*
X81178400Y-43467000D02*
X80136700Y-43467000D01*
X64622300Y-41203700D02*
X64401000Y-41425000D01*
X76085900Y-41203700D02*
X64622300Y-41203700D01*
X78799300Y-43917100D02*
X76085900Y-41203700D01*
X79686600Y-43917100D02*
X78799300Y-43917100D01*
X80136700Y-43467000D02*
X79686600Y-43917100D01*
X60060200Y-41179300D02*
X60060200Y-34406200D01*
X61686700Y-42805800D02*
X60060200Y-41179300D01*
X65538600Y-42805800D02*
X61686700Y-42805800D01*
X66067000Y-42277400D02*
X65538600Y-42805800D01*
X68304800Y-46592400D02*
X68687500Y-46975100D01*
X60835400Y-46592400D02*
X68304800Y-46592400D01*
X59016100Y-48411700D02*
X60835400Y-46592400D01*
X60100800Y-45010700D02*
X59123800Y-45987700D01*
X68588100Y-45010700D02*
X60100800Y-45010700D01*
X70249000Y-43349800D02*
X68588100Y-45010700D01*
X76932800Y-43349800D02*
X70249000Y-43349800D01*
X79276200Y-45693200D02*
X76932800Y-43349800D01*
X79276200Y-45771200D02*
X79276200Y-45693200D01*
X70652100Y-43784100D02*
X68962300Y-45473900D01*
X76736800Y-43784100D02*
X70652100Y-43784100D01*
X78665200Y-45712500D02*
X76736800Y-43784100D01*
X78665200Y-46005700D02*
X78665200Y-45712500D01*
X79876500Y-47217000D02*
X78665200Y-46005700D01*
X81178400Y-47217000D02*
X79876500Y-47217000D01*
X70850600Y-47915200D02*
X71210900Y-47554900D01*
X68976800Y-47915200D02*
X70850600Y-47915200D01*
X68841900Y-55091500D02*
X68841900Y-55091600D01*
X67276000Y-55091500D02*
X68841900Y-55091500D01*
X64918600Y-52734100D02*
X67276000Y-55091500D01*
X64918600Y-52575200D02*
X64918600Y-52734100D01*
X64399800Y-52056400D02*
X64918600Y-52575200D01*
X62819600Y-52056400D02*
X64399800Y-52056400D01*
X62811700Y-52064300D02*
X62819600Y-52056400D01*
X69048000Y-59842400D02*
X69048000Y-60884100D01*
X65051000Y-59770800D02*
X65051000Y-58773800D01*
X66164300Y-60884100D02*
X65051000Y-59770800D01*
X69048000Y-60884100D02*
X66164300Y-60884100D01*
X67343200Y-58800700D02*
X66735000Y-58192500D01*
X70298000Y-58800700D02*
X67343200Y-58800700D01*
X70298000Y-59842400D02*
X70298000Y-58800700D01*
X76885800Y-52716200D02*
X76885800Y-47189000D01*
X71548000Y-58054000D02*
X76885800Y-52716200D01*
X71548000Y-59842400D02*
X71548000Y-58054000D01*
X72261200Y-47957600D02*
X72261200Y-44640500D01*
X68128700Y-52090100D02*
X72261200Y-47957600D01*
X67747100Y-52090100D02*
X68128700Y-52090100D01*
X71930300Y-44217900D02*
X71507700Y-44640500D01*
X76554200Y-44217900D02*
X71930300Y-44217900D01*
X77707900Y-45371600D02*
X76554200Y-44217900D01*
X77707900Y-46281300D02*
X77707900Y-45371600D01*
X71775000Y-33528000D02*
X71775000Y-34569700D01*
X73754900Y-36549600D02*
X73754900Y-40598800D01*
X71775000Y-34569700D02*
X73754900Y-36549600D01*
X59672700Y-33065600D02*
X50647200Y-42091100D01*
X63990500Y-33065600D02*
X59672700Y-33065600D01*
X64630500Y-32425600D02*
X63990500Y-33065600D01*
X70464300Y-32425600D02*
X64630500Y-32425600D01*
X70525000Y-32486300D02*
X70464300Y-32425600D01*
X55295700Y-53295400D02*
X52677500Y-50677200D01*
X57998400Y-53295400D02*
X55295700Y-53295400D01*
X58415300Y-52878500D02*
X57998400Y-53295400D01*
X58415300Y-50668400D02*
X58415300Y-52878500D01*
X58072200Y-50325300D02*
X58415300Y-50668400D01*
X47167000Y-50677200D02*
X47167000Y-42091100D01*
X70525000Y-33528000D02*
X70525000Y-32486300D01*
X65745300Y-49397400D02*
X67896200Y-47246500D01*
X59130900Y-49397400D02*
X65745300Y-49397400D01*
X69275000Y-33528000D02*
X69275000Y-34569700D01*
X68746500Y-35098200D02*
X69275000Y-34569700D01*
X62737500Y-35098200D02*
X68746500Y-35098200D01*
X60568200Y-37267500D02*
X62737500Y-35098200D01*
X60568200Y-40836300D02*
X60568200Y-37267500D01*
X61937900Y-42206000D02*
X60568200Y-40836300D01*
X72976000Y-37647200D02*
X72976000Y-40464400D01*
X69898500Y-34569700D02*
X72976000Y-37647200D01*
X60259300Y-52638900D02*
X60259300Y-50847700D01*
X55706000Y-57192200D02*
X60259300Y-52638900D01*
X55706000Y-59842400D02*
X55706000Y-57192200D01*
X64182700Y-56012700D02*
X62367200Y-57828200D01*
X68780400Y-56012700D02*
X64182700Y-56012700D01*
X69442700Y-55350400D02*
X68780400Y-56012700D01*
X69442700Y-54835200D02*
X69442700Y-55350400D01*
X68092000Y-53484500D02*
X69442700Y-54835200D01*
X67860300Y-53484500D02*
X68092000Y-53484500D01*
X67141900Y-52766100D02*
X67860300Y-53484500D01*
X67141900Y-51776200D02*
X67141900Y-52766100D01*
X69407000Y-49511100D02*
X67141900Y-51776200D01*
X70097100Y-49511100D02*
X69407000Y-49511100D01*
X71829500Y-47778700D02*
X70097100Y-49511100D01*
X71829500Y-47256000D02*
X71829500Y-47778700D01*
X70907800Y-46334300D02*
X71829500Y-47256000D01*
X68757500Y-46334300D02*
X70907800Y-46334300D01*
X68423900Y-46000700D02*
X68757500Y-46334300D01*
X51308000Y-45982000D02*
X52074700Y-45982000D01*
X54309000Y-43747700D02*
X52074700Y-45982000D01*
X54309000Y-42914800D02*
X54309000Y-43747700D01*
X56036800Y-41187000D02*
X54309000Y-42914800D01*
X57654800Y-41187000D02*
X56036800Y-41187000D01*
X60137000Y-43669200D02*
X57654800Y-41187000D01*
X67541300Y-43669200D02*
X60137000Y-43669200D01*
X67745700Y-43464800D02*
X67541300Y-43669200D01*
X51308000Y-46982000D02*
X51966400Y-46982000D01*
X56332600Y-42132200D02*
X56332600Y-41785100D01*
X58110200Y-43909800D02*
X58110200Y-46785900D01*
X56332600Y-42132200D02*
X58110200Y-43909800D01*
X52074700Y-47090300D02*
X52074700Y-53573300D01*
X51966400Y-46982000D02*
X52074700Y-47090300D01*
X54740700Y-44207700D02*
X51966400Y-46982000D01*
X54740700Y-43158900D02*
X54740700Y-44207700D01*
X55767400Y-42132200D02*
X54740700Y-43158900D01*
X56332600Y-42132200D02*
X55767400Y-42132200D01*
X55372000Y-34036000D02*
X55372000Y-35277700D01*
X53765500Y-35277700D02*
X51083900Y-37959300D01*
X55372000Y-35277700D02*
X53765500Y-35277700D01*
X70531400Y-36906200D02*
X71910300Y-38285100D01*
X62560200Y-36906200D02*
X70531400Y-36906200D01*
X62961600Y-42022500D02*
X61746000Y-40806900D01*
X65124100Y-42022500D02*
X62961600Y-42022500D01*
X65477100Y-41669500D02*
X65124100Y-42022500D01*
X67250600Y-41669500D02*
X65477100Y-41669500D01*
X68807200Y-43226100D02*
X67250600Y-41669500D01*
X64986000Y-54564800D02*
X64986000Y-54564700D01*
X62219000Y-54564800D02*
X64986000Y-54564800D01*
X59722600Y-57061200D02*
X62219000Y-54564800D01*
X59722600Y-57287000D02*
X59722600Y-57061200D01*
X55545900Y-50496100D02*
X57753400Y-52703600D01*
X55545900Y-44619700D02*
X55545900Y-50496100D01*
X54456000Y-59842400D02*
X54456000Y-58800700D01*
X51308000Y-48982000D02*
X51308000Y-47982000D01*
X73025000Y-33528000D02*
X73025000Y-34569700D01*
X73580900Y-34569700D02*
X75669500Y-36658300D01*
X73025000Y-34569700D02*
X73580900Y-34569700D01*
X54456000Y-57668300D02*
X54456000Y-58800700D01*
X51308000Y-54520300D02*
X54456000Y-57668300D01*
X51308000Y-49748700D02*
X51308000Y-54520300D01*
X51308000Y-48982000D02*
X51308000Y-49748700D01*
X51308000Y-43982000D02*
X50541300Y-43982000D01*
X50541300Y-54205600D02*
X50462000Y-54284900D01*
X50541300Y-43982000D02*
X50541300Y-54205600D01*
X49650200Y-54284900D02*
X50462000Y-54284900D01*
X76235200Y-45375500D02*
X76235200Y-50802400D01*
X76205200Y-45345500D02*
X76235200Y-45375500D01*
X78996300Y-40825000D02*
X78996300Y-43277200D01*
X73936700Y-35765400D02*
X78996300Y-40825000D01*
X61951600Y-58628500D02*
X60474400Y-57151400D01*
X61728200Y-58851900D02*
X61951600Y-58628500D01*
X61728200Y-60351000D02*
X61728200Y-58851900D01*
X61183700Y-60895500D02*
X61728200Y-60351000D01*
X54081400Y-60895500D02*
X61183700Y-60895500D01*
X52995300Y-59809400D02*
X54081400Y-60895500D01*
X52995300Y-56818200D02*
X52995300Y-59809400D01*
X50462000Y-54284900D02*
X52995300Y-56818200D01*
X69462900Y-57574700D02*
X76235200Y-50802400D01*
X63457600Y-57574700D02*
X69462900Y-57574700D01*
X62612400Y-58419900D02*
X63457600Y-57574700D01*
X62160200Y-58419900D02*
X62612400Y-58419900D01*
X61951600Y-58628500D02*
X62160200Y-58419900D01*
M02*
