%TF.GenerationSoftware,KiCad,Pcbnew,8.0.5*%
%TF.CreationDate,2024-09-28T14:46:47+05:30*%
%TF.ProjectId,MKM01V10,4d4b4d30-3156-4313-902e-6b696361645f,1.0*%
%TF.SameCoordinates,Original*%
%TF.FileFunction,Drillmap*%
%TF.FilePolarity,Positive*%
%FSLAX45Y45*%
G04 Gerber Fmt 4.5, Leading zero omitted, Abs format (unit mm)*
G04 Created by KiCad (PCBNEW 8.0.5) date 2024-09-28 14:46:47*
%MOMM*%
%LPD*%
G01*
G04 APERTURE LIST*
%ADD10C,0.100000*%
%ADD11C,0.200000*%
%ADD12C,0.320000*%
G04 APERTURE END LIST*
D10*
X4282000Y-2960000D02*
X8382000Y-2960000D01*
X8382000Y-6360000D01*
X4282000Y-6360000D01*
X4282000Y-2960000D01*
D11*
D12*
X4512500Y-3180000D02*
X4832500Y-3500000D01*
X4832500Y-3180000D02*
X4512500Y-3500000D01*
X4512500Y-5840000D02*
X4832500Y-6160000D01*
X4832500Y-5840000D02*
X4512500Y-6160000D01*
X7867500Y-3180000D02*
X8187500Y-3500000D01*
X8187500Y-3180000D02*
X7867500Y-3500000D01*
X7867500Y-5840000D02*
X8187500Y-6160000D01*
X8187500Y-5840000D02*
X7867500Y-6160000D01*
D11*
X4537777Y-6676484D02*
X4537777Y-6476484D01*
X4537777Y-6476484D02*
X4585396Y-6476484D01*
X4585396Y-6476484D02*
X4613967Y-6486008D01*
X4613967Y-6486008D02*
X4633015Y-6505055D01*
X4633015Y-6505055D02*
X4642539Y-6524103D01*
X4642539Y-6524103D02*
X4652063Y-6562198D01*
X4652063Y-6562198D02*
X4652063Y-6590769D01*
X4652063Y-6590769D02*
X4642539Y-6628865D01*
X4642539Y-6628865D02*
X4633015Y-6647912D01*
X4633015Y-6647912D02*
X4613967Y-6666960D01*
X4613967Y-6666960D02*
X4585396Y-6676484D01*
X4585396Y-6676484D02*
X4537777Y-6676484D01*
X4737777Y-6676484D02*
X4737777Y-6543150D01*
X4737777Y-6581246D02*
X4747301Y-6562198D01*
X4747301Y-6562198D02*
X4756824Y-6552674D01*
X4756824Y-6552674D02*
X4775872Y-6543150D01*
X4775872Y-6543150D02*
X4794920Y-6543150D01*
X4861586Y-6676484D02*
X4861586Y-6543150D01*
X4861586Y-6476484D02*
X4852063Y-6486008D01*
X4852063Y-6486008D02*
X4861586Y-6495531D01*
X4861586Y-6495531D02*
X4871110Y-6486008D01*
X4871110Y-6486008D02*
X4861586Y-6476484D01*
X4861586Y-6476484D02*
X4861586Y-6495531D01*
X4985396Y-6676484D02*
X4966348Y-6666960D01*
X4966348Y-6666960D02*
X4956824Y-6647912D01*
X4956824Y-6647912D02*
X4956824Y-6476484D01*
X5090158Y-6676484D02*
X5071110Y-6666960D01*
X5071110Y-6666960D02*
X5061586Y-6647912D01*
X5061586Y-6647912D02*
X5061586Y-6476484D01*
X5318729Y-6676484D02*
X5318729Y-6476484D01*
X5318729Y-6476484D02*
X5385396Y-6619341D01*
X5385396Y-6619341D02*
X5452063Y-6476484D01*
X5452063Y-6476484D02*
X5452063Y-6676484D01*
X5633015Y-6676484D02*
X5633015Y-6571722D01*
X5633015Y-6571722D02*
X5623491Y-6552674D01*
X5623491Y-6552674D02*
X5604443Y-6543150D01*
X5604443Y-6543150D02*
X5566348Y-6543150D01*
X5566348Y-6543150D02*
X5547301Y-6552674D01*
X5633015Y-6666960D02*
X5613967Y-6676484D01*
X5613967Y-6676484D02*
X5566348Y-6676484D01*
X5566348Y-6676484D02*
X5547301Y-6666960D01*
X5547301Y-6666960D02*
X5537777Y-6647912D01*
X5537777Y-6647912D02*
X5537777Y-6628865D01*
X5537777Y-6628865D02*
X5547301Y-6609817D01*
X5547301Y-6609817D02*
X5566348Y-6600293D01*
X5566348Y-6600293D02*
X5613967Y-6600293D01*
X5613967Y-6600293D02*
X5633015Y-6590769D01*
X5728253Y-6543150D02*
X5728253Y-6743150D01*
X5728253Y-6552674D02*
X5747301Y-6543150D01*
X5747301Y-6543150D02*
X5785396Y-6543150D01*
X5785396Y-6543150D02*
X5804443Y-6552674D01*
X5804443Y-6552674D02*
X5813967Y-6562198D01*
X5813967Y-6562198D02*
X5823491Y-6581246D01*
X5823491Y-6581246D02*
X5823491Y-6638388D01*
X5823491Y-6638388D02*
X5813967Y-6657436D01*
X5813967Y-6657436D02*
X5804443Y-6666960D01*
X5804443Y-6666960D02*
X5785396Y-6676484D01*
X5785396Y-6676484D02*
X5747301Y-6676484D01*
X5747301Y-6676484D02*
X5728253Y-6666960D01*
X5909205Y-6657436D02*
X5918729Y-6666960D01*
X5918729Y-6666960D02*
X5909205Y-6676484D01*
X5909205Y-6676484D02*
X5899682Y-6666960D01*
X5899682Y-6666960D02*
X5909205Y-6657436D01*
X5909205Y-6657436D02*
X5909205Y-6676484D01*
X5909205Y-6552674D02*
X5918729Y-6562198D01*
X5918729Y-6562198D02*
X5909205Y-6571722D01*
X5909205Y-6571722D02*
X5899682Y-6562198D01*
X5899682Y-6562198D02*
X5909205Y-6552674D01*
X5909205Y-6552674D02*
X5909205Y-6571722D01*
X4077000Y-6905000D02*
X4277000Y-7105000D01*
X4277000Y-6905000D02*
X4077000Y-7105000D01*
X4518729Y-6896484D02*
X4642539Y-6896484D01*
X4642539Y-6896484D02*
X4575872Y-6972674D01*
X4575872Y-6972674D02*
X4604444Y-6972674D01*
X4604444Y-6972674D02*
X4623491Y-6982198D01*
X4623491Y-6982198D02*
X4633015Y-6991722D01*
X4633015Y-6991722D02*
X4642539Y-7010769D01*
X4642539Y-7010769D02*
X4642539Y-7058388D01*
X4642539Y-7058388D02*
X4633015Y-7077436D01*
X4633015Y-7077436D02*
X4623491Y-7086960D01*
X4623491Y-7086960D02*
X4604444Y-7096484D01*
X4604444Y-7096484D02*
X4547301Y-7096484D01*
X4547301Y-7096484D02*
X4528253Y-7086960D01*
X4528253Y-7086960D02*
X4518729Y-7077436D01*
X4728253Y-7077436D02*
X4737777Y-7086960D01*
X4737777Y-7086960D02*
X4728253Y-7096484D01*
X4728253Y-7096484D02*
X4718729Y-7086960D01*
X4718729Y-7086960D02*
X4728253Y-7077436D01*
X4728253Y-7077436D02*
X4728253Y-7096484D01*
X4813967Y-6915531D02*
X4823491Y-6906008D01*
X4823491Y-6906008D02*
X4842539Y-6896484D01*
X4842539Y-6896484D02*
X4890158Y-6896484D01*
X4890158Y-6896484D02*
X4909205Y-6906008D01*
X4909205Y-6906008D02*
X4918729Y-6915531D01*
X4918729Y-6915531D02*
X4928253Y-6934579D01*
X4928253Y-6934579D02*
X4928253Y-6953627D01*
X4928253Y-6953627D02*
X4918729Y-6982198D01*
X4918729Y-6982198D02*
X4804444Y-7096484D01*
X4804444Y-7096484D02*
X4928253Y-7096484D01*
X5052063Y-6896484D02*
X5071110Y-6896484D01*
X5071110Y-6896484D02*
X5090158Y-6906008D01*
X5090158Y-6906008D02*
X5099682Y-6915531D01*
X5099682Y-6915531D02*
X5109205Y-6934579D01*
X5109205Y-6934579D02*
X5118729Y-6972674D01*
X5118729Y-6972674D02*
X5118729Y-7020293D01*
X5118729Y-7020293D02*
X5109205Y-7058388D01*
X5109205Y-7058388D02*
X5099682Y-7077436D01*
X5099682Y-7077436D02*
X5090158Y-7086960D01*
X5090158Y-7086960D02*
X5071110Y-7096484D01*
X5071110Y-7096484D02*
X5052063Y-7096484D01*
X5052063Y-7096484D02*
X5033015Y-7086960D01*
X5033015Y-7086960D02*
X5023491Y-7077436D01*
X5023491Y-7077436D02*
X5013967Y-7058388D01*
X5013967Y-7058388D02*
X5004444Y-7020293D01*
X5004444Y-7020293D02*
X5004444Y-6972674D01*
X5004444Y-6972674D02*
X5013967Y-6934579D01*
X5013967Y-6934579D02*
X5023491Y-6915531D01*
X5023491Y-6915531D02*
X5033015Y-6906008D01*
X5033015Y-6906008D02*
X5052063Y-6896484D01*
X5242539Y-6896484D02*
X5261586Y-6896484D01*
X5261586Y-6896484D02*
X5280634Y-6906008D01*
X5280634Y-6906008D02*
X5290158Y-6915531D01*
X5290158Y-6915531D02*
X5299682Y-6934579D01*
X5299682Y-6934579D02*
X5309205Y-6972674D01*
X5309205Y-6972674D02*
X5309205Y-7020293D01*
X5309205Y-7020293D02*
X5299682Y-7058388D01*
X5299682Y-7058388D02*
X5290158Y-7077436D01*
X5290158Y-7077436D02*
X5280634Y-7086960D01*
X5280634Y-7086960D02*
X5261586Y-7096484D01*
X5261586Y-7096484D02*
X5242539Y-7096484D01*
X5242539Y-7096484D02*
X5223491Y-7086960D01*
X5223491Y-7086960D02*
X5213967Y-7077436D01*
X5213967Y-7077436D02*
X5204444Y-7058388D01*
X5204444Y-7058388D02*
X5194920Y-7020293D01*
X5194920Y-7020293D02*
X5194920Y-6972674D01*
X5194920Y-6972674D02*
X5204444Y-6934579D01*
X5204444Y-6934579D02*
X5213967Y-6915531D01*
X5213967Y-6915531D02*
X5223491Y-6906008D01*
X5223491Y-6906008D02*
X5242539Y-6896484D01*
X5394920Y-7096484D02*
X5394920Y-6963150D01*
X5394920Y-6982198D02*
X5404444Y-6972674D01*
X5404444Y-6972674D02*
X5423491Y-6963150D01*
X5423491Y-6963150D02*
X5452063Y-6963150D01*
X5452063Y-6963150D02*
X5471110Y-6972674D01*
X5471110Y-6972674D02*
X5480634Y-6991722D01*
X5480634Y-6991722D02*
X5480634Y-7096484D01*
X5480634Y-6991722D02*
X5490158Y-6972674D01*
X5490158Y-6972674D02*
X5509205Y-6963150D01*
X5509205Y-6963150D02*
X5537777Y-6963150D01*
X5537777Y-6963150D02*
X5556825Y-6972674D01*
X5556825Y-6972674D02*
X5566348Y-6991722D01*
X5566348Y-6991722D02*
X5566348Y-7096484D01*
X5661586Y-7096484D02*
X5661586Y-6963150D01*
X5661586Y-6982198D02*
X5671110Y-6972674D01*
X5671110Y-6972674D02*
X5690158Y-6963150D01*
X5690158Y-6963150D02*
X5718729Y-6963150D01*
X5718729Y-6963150D02*
X5737777Y-6972674D01*
X5737777Y-6972674D02*
X5747301Y-6991722D01*
X5747301Y-6991722D02*
X5747301Y-7096484D01*
X5747301Y-6991722D02*
X5756824Y-6972674D01*
X5756824Y-6972674D02*
X5775872Y-6963150D01*
X5775872Y-6963150D02*
X5804443Y-6963150D01*
X5804443Y-6963150D02*
X5823491Y-6972674D01*
X5823491Y-6972674D02*
X5833015Y-6991722D01*
X5833015Y-6991722D02*
X5833015Y-7096484D01*
X6223491Y-6886960D02*
X6052063Y-7144103D01*
X6480634Y-6896484D02*
X6499682Y-6896484D01*
X6499682Y-6896484D02*
X6518729Y-6906008D01*
X6518729Y-6906008D02*
X6528253Y-6915531D01*
X6528253Y-6915531D02*
X6537777Y-6934579D01*
X6537777Y-6934579D02*
X6547301Y-6972674D01*
X6547301Y-6972674D02*
X6547301Y-7020293D01*
X6547301Y-7020293D02*
X6537777Y-7058388D01*
X6537777Y-7058388D02*
X6528253Y-7077436D01*
X6528253Y-7077436D02*
X6518729Y-7086960D01*
X6518729Y-7086960D02*
X6499682Y-7096484D01*
X6499682Y-7096484D02*
X6480634Y-7096484D01*
X6480634Y-7096484D02*
X6461586Y-7086960D01*
X6461586Y-7086960D02*
X6452063Y-7077436D01*
X6452063Y-7077436D02*
X6442539Y-7058388D01*
X6442539Y-7058388D02*
X6433015Y-7020293D01*
X6433015Y-7020293D02*
X6433015Y-6972674D01*
X6433015Y-6972674D02*
X6442539Y-6934579D01*
X6442539Y-6934579D02*
X6452063Y-6915531D01*
X6452063Y-6915531D02*
X6461586Y-6906008D01*
X6461586Y-6906008D02*
X6480634Y-6896484D01*
X6633015Y-7077436D02*
X6642539Y-7086960D01*
X6642539Y-7086960D02*
X6633015Y-7096484D01*
X6633015Y-7096484D02*
X6623491Y-7086960D01*
X6623491Y-7086960D02*
X6633015Y-7077436D01*
X6633015Y-7077436D02*
X6633015Y-7096484D01*
X6833015Y-7096484D02*
X6718729Y-7096484D01*
X6775872Y-7096484D02*
X6775872Y-6896484D01*
X6775872Y-6896484D02*
X6756825Y-6925055D01*
X6756825Y-6925055D02*
X6737777Y-6944103D01*
X6737777Y-6944103D02*
X6718729Y-6953627D01*
X6909206Y-6915531D02*
X6918729Y-6906008D01*
X6918729Y-6906008D02*
X6937777Y-6896484D01*
X6937777Y-6896484D02*
X6985396Y-6896484D01*
X6985396Y-6896484D02*
X7004444Y-6906008D01*
X7004444Y-6906008D02*
X7013967Y-6915531D01*
X7013967Y-6915531D02*
X7023491Y-6934579D01*
X7023491Y-6934579D02*
X7023491Y-6953627D01*
X7023491Y-6953627D02*
X7013967Y-6982198D01*
X7013967Y-6982198D02*
X6899682Y-7096484D01*
X6899682Y-7096484D02*
X7023491Y-7096484D01*
X7194920Y-6896484D02*
X7156825Y-6896484D01*
X7156825Y-6896484D02*
X7137777Y-6906008D01*
X7137777Y-6906008D02*
X7128253Y-6915531D01*
X7128253Y-6915531D02*
X7109206Y-6944103D01*
X7109206Y-6944103D02*
X7099682Y-6982198D01*
X7099682Y-6982198D02*
X7099682Y-7058388D01*
X7099682Y-7058388D02*
X7109206Y-7077436D01*
X7109206Y-7077436D02*
X7118729Y-7086960D01*
X7118729Y-7086960D02*
X7137777Y-7096484D01*
X7137777Y-7096484D02*
X7175872Y-7096484D01*
X7175872Y-7096484D02*
X7194920Y-7086960D01*
X7194920Y-7086960D02*
X7204444Y-7077436D01*
X7204444Y-7077436D02*
X7213967Y-7058388D01*
X7213967Y-7058388D02*
X7213967Y-7010769D01*
X7213967Y-7010769D02*
X7204444Y-6991722D01*
X7204444Y-6991722D02*
X7194920Y-6982198D01*
X7194920Y-6982198D02*
X7175872Y-6972674D01*
X7175872Y-6972674D02*
X7137777Y-6972674D01*
X7137777Y-6972674D02*
X7118729Y-6982198D01*
X7118729Y-6982198D02*
X7109206Y-6991722D01*
X7109206Y-6991722D02*
X7099682Y-7010769D01*
X7337777Y-6896484D02*
X7356825Y-6896484D01*
X7356825Y-6896484D02*
X7375872Y-6906008D01*
X7375872Y-6906008D02*
X7385396Y-6915531D01*
X7385396Y-6915531D02*
X7394920Y-6934579D01*
X7394920Y-6934579D02*
X7404444Y-6972674D01*
X7404444Y-6972674D02*
X7404444Y-7020293D01*
X7404444Y-7020293D02*
X7394920Y-7058388D01*
X7394920Y-7058388D02*
X7385396Y-7077436D01*
X7385396Y-7077436D02*
X7375872Y-7086960D01*
X7375872Y-7086960D02*
X7356825Y-7096484D01*
X7356825Y-7096484D02*
X7337777Y-7096484D01*
X7337777Y-7096484D02*
X7318729Y-7086960D01*
X7318729Y-7086960D02*
X7309206Y-7077436D01*
X7309206Y-7077436D02*
X7299682Y-7058388D01*
X7299682Y-7058388D02*
X7290158Y-7020293D01*
X7290158Y-7020293D02*
X7290158Y-6972674D01*
X7290158Y-6972674D02*
X7299682Y-6934579D01*
X7299682Y-6934579D02*
X7309206Y-6915531D01*
X7309206Y-6915531D02*
X7318729Y-6906008D01*
X7318729Y-6906008D02*
X7337777Y-6896484D01*
X7480634Y-6896484D02*
X7480634Y-6934579D01*
X7556825Y-6896484D02*
X7556825Y-6934579D01*
X7852063Y-7172674D02*
X7842539Y-7163150D01*
X7842539Y-7163150D02*
X7823491Y-7134579D01*
X7823491Y-7134579D02*
X7813968Y-7115531D01*
X7813968Y-7115531D02*
X7804444Y-7086960D01*
X7804444Y-7086960D02*
X7794920Y-7039341D01*
X7794920Y-7039341D02*
X7794920Y-7001246D01*
X7794920Y-7001246D02*
X7804444Y-6953627D01*
X7804444Y-6953627D02*
X7813968Y-6925055D01*
X7813968Y-6925055D02*
X7823491Y-6906008D01*
X7823491Y-6906008D02*
X7842539Y-6877436D01*
X7842539Y-6877436D02*
X7852063Y-6867912D01*
X8013968Y-6963150D02*
X8013968Y-7096484D01*
X7966348Y-6886960D02*
X7918729Y-7029817D01*
X7918729Y-7029817D02*
X8042539Y-7029817D01*
X8271110Y-7096484D02*
X8271110Y-6896484D01*
X8356825Y-7096484D02*
X8356825Y-6991722D01*
X8356825Y-6991722D02*
X8347301Y-6972674D01*
X8347301Y-6972674D02*
X8328253Y-6963150D01*
X8328253Y-6963150D02*
X8299682Y-6963150D01*
X8299682Y-6963150D02*
X8280634Y-6972674D01*
X8280634Y-6972674D02*
X8271110Y-6982198D01*
X8480634Y-7096484D02*
X8461587Y-7086960D01*
X8461587Y-7086960D02*
X8452063Y-7077436D01*
X8452063Y-7077436D02*
X8442539Y-7058388D01*
X8442539Y-7058388D02*
X8442539Y-7001246D01*
X8442539Y-7001246D02*
X8452063Y-6982198D01*
X8452063Y-6982198D02*
X8461587Y-6972674D01*
X8461587Y-6972674D02*
X8480634Y-6963150D01*
X8480634Y-6963150D02*
X8509206Y-6963150D01*
X8509206Y-6963150D02*
X8528253Y-6972674D01*
X8528253Y-6972674D02*
X8537777Y-6982198D01*
X8537777Y-6982198D02*
X8547301Y-7001246D01*
X8547301Y-7001246D02*
X8547301Y-7058388D01*
X8547301Y-7058388D02*
X8537777Y-7077436D01*
X8537777Y-7077436D02*
X8528253Y-7086960D01*
X8528253Y-7086960D02*
X8509206Y-7096484D01*
X8509206Y-7096484D02*
X8480634Y-7096484D01*
X8661587Y-7096484D02*
X8642539Y-7086960D01*
X8642539Y-7086960D02*
X8633015Y-7067912D01*
X8633015Y-7067912D02*
X8633015Y-6896484D01*
X8813968Y-7086960D02*
X8794920Y-7096484D01*
X8794920Y-7096484D02*
X8756825Y-7096484D01*
X8756825Y-7096484D02*
X8737777Y-7086960D01*
X8737777Y-7086960D02*
X8728253Y-7067912D01*
X8728253Y-7067912D02*
X8728253Y-6991722D01*
X8728253Y-6991722D02*
X8737777Y-6972674D01*
X8737777Y-6972674D02*
X8756825Y-6963150D01*
X8756825Y-6963150D02*
X8794920Y-6963150D01*
X8794920Y-6963150D02*
X8813968Y-6972674D01*
X8813968Y-6972674D02*
X8823492Y-6991722D01*
X8823492Y-6991722D02*
X8823492Y-7010769D01*
X8823492Y-7010769D02*
X8728253Y-7029817D01*
X8899682Y-7086960D02*
X8918730Y-7096484D01*
X8918730Y-7096484D02*
X8956825Y-7096484D01*
X8956825Y-7096484D02*
X8975873Y-7086960D01*
X8975873Y-7086960D02*
X8985396Y-7067912D01*
X8985396Y-7067912D02*
X8985396Y-7058388D01*
X8985396Y-7058388D02*
X8975873Y-7039341D01*
X8975873Y-7039341D02*
X8956825Y-7029817D01*
X8956825Y-7029817D02*
X8928253Y-7029817D01*
X8928253Y-7029817D02*
X8909206Y-7020293D01*
X8909206Y-7020293D02*
X8899682Y-7001246D01*
X8899682Y-7001246D02*
X8899682Y-6991722D01*
X8899682Y-6991722D02*
X8909206Y-6972674D01*
X8909206Y-6972674D02*
X8928253Y-6963150D01*
X8928253Y-6963150D02*
X8956825Y-6963150D01*
X8956825Y-6963150D02*
X8975873Y-6972674D01*
X9052063Y-7172674D02*
X9061587Y-7163150D01*
X9061587Y-7163150D02*
X9080634Y-7134579D01*
X9080634Y-7134579D02*
X9090158Y-7115531D01*
X9090158Y-7115531D02*
X9099682Y-7086960D01*
X9099682Y-7086960D02*
X9109206Y-7039341D01*
X9109206Y-7039341D02*
X9109206Y-7001246D01*
X9109206Y-7001246D02*
X9099682Y-6953627D01*
X9099682Y-6953627D02*
X9090158Y-6925055D01*
X9090158Y-6925055D02*
X9080634Y-6906008D01*
X9080634Y-6906008D02*
X9061587Y-6877436D01*
X9061587Y-6877436D02*
X9052063Y-6867912D01*
X9413968Y-7172674D02*
X9404444Y-7163150D01*
X9404444Y-7163150D02*
X9385396Y-7134579D01*
X9385396Y-7134579D02*
X9375873Y-7115531D01*
X9375873Y-7115531D02*
X9366349Y-7086960D01*
X9366349Y-7086960D02*
X9356825Y-7039341D01*
X9356825Y-7039341D02*
X9356825Y-7001246D01*
X9356825Y-7001246D02*
X9366349Y-6953627D01*
X9366349Y-6953627D02*
X9375873Y-6925055D01*
X9375873Y-6925055D02*
X9385396Y-6906008D01*
X9385396Y-6906008D02*
X9404444Y-6877436D01*
X9404444Y-6877436D02*
X9413968Y-6867912D01*
X9490158Y-6963150D02*
X9490158Y-7096484D01*
X9490158Y-6982198D02*
X9499682Y-6972674D01*
X9499682Y-6972674D02*
X9518730Y-6963150D01*
X9518730Y-6963150D02*
X9547301Y-6963150D01*
X9547301Y-6963150D02*
X9566349Y-6972674D01*
X9566349Y-6972674D02*
X9575873Y-6991722D01*
X9575873Y-6991722D02*
X9575873Y-7096484D01*
X9699682Y-7096484D02*
X9680634Y-7086960D01*
X9680634Y-7086960D02*
X9671111Y-7077436D01*
X9671111Y-7077436D02*
X9661587Y-7058388D01*
X9661587Y-7058388D02*
X9661587Y-7001246D01*
X9661587Y-7001246D02*
X9671111Y-6982198D01*
X9671111Y-6982198D02*
X9680634Y-6972674D01*
X9680634Y-6972674D02*
X9699682Y-6963150D01*
X9699682Y-6963150D02*
X9728254Y-6963150D01*
X9728254Y-6963150D02*
X9747301Y-6972674D01*
X9747301Y-6972674D02*
X9756825Y-6982198D01*
X9756825Y-6982198D02*
X9766349Y-7001246D01*
X9766349Y-7001246D02*
X9766349Y-7058388D01*
X9766349Y-7058388D02*
X9756825Y-7077436D01*
X9756825Y-7077436D02*
X9747301Y-7086960D01*
X9747301Y-7086960D02*
X9728254Y-7096484D01*
X9728254Y-7096484D02*
X9699682Y-7096484D01*
X9823492Y-6963150D02*
X9899682Y-6963150D01*
X9852063Y-6896484D02*
X9852063Y-7067912D01*
X9852063Y-7067912D02*
X9861587Y-7086960D01*
X9861587Y-7086960D02*
X9880634Y-7096484D01*
X9880634Y-7096484D02*
X9899682Y-7096484D01*
X10118730Y-6963150D02*
X10118730Y-7163150D01*
X10118730Y-6972674D02*
X10137777Y-6963150D01*
X10137777Y-6963150D02*
X10175873Y-6963150D01*
X10175873Y-6963150D02*
X10194920Y-6972674D01*
X10194920Y-6972674D02*
X10204444Y-6982198D01*
X10204444Y-6982198D02*
X10213968Y-7001246D01*
X10213968Y-7001246D02*
X10213968Y-7058388D01*
X10213968Y-7058388D02*
X10204444Y-7077436D01*
X10204444Y-7077436D02*
X10194920Y-7086960D01*
X10194920Y-7086960D02*
X10175873Y-7096484D01*
X10175873Y-7096484D02*
X10137777Y-7096484D01*
X10137777Y-7096484D02*
X10118730Y-7086960D01*
X10328254Y-7096484D02*
X10309206Y-7086960D01*
X10309206Y-7086960D02*
X10299682Y-7067912D01*
X10299682Y-7067912D02*
X10299682Y-6896484D01*
X10490158Y-7096484D02*
X10490158Y-6991722D01*
X10490158Y-6991722D02*
X10480635Y-6972674D01*
X10480635Y-6972674D02*
X10461587Y-6963150D01*
X10461587Y-6963150D02*
X10423492Y-6963150D01*
X10423492Y-6963150D02*
X10404444Y-6972674D01*
X10490158Y-7086960D02*
X10471111Y-7096484D01*
X10471111Y-7096484D02*
X10423492Y-7096484D01*
X10423492Y-7096484D02*
X10404444Y-7086960D01*
X10404444Y-7086960D02*
X10394920Y-7067912D01*
X10394920Y-7067912D02*
X10394920Y-7048865D01*
X10394920Y-7048865D02*
X10404444Y-7029817D01*
X10404444Y-7029817D02*
X10423492Y-7020293D01*
X10423492Y-7020293D02*
X10471111Y-7020293D01*
X10471111Y-7020293D02*
X10490158Y-7010769D01*
X10556825Y-6963150D02*
X10633015Y-6963150D01*
X10585396Y-6896484D02*
X10585396Y-7067912D01*
X10585396Y-7067912D02*
X10594920Y-7086960D01*
X10594920Y-7086960D02*
X10613968Y-7096484D01*
X10613968Y-7096484D02*
X10633015Y-7096484D01*
X10775873Y-7086960D02*
X10756825Y-7096484D01*
X10756825Y-7096484D02*
X10718730Y-7096484D01*
X10718730Y-7096484D02*
X10699682Y-7086960D01*
X10699682Y-7086960D02*
X10690158Y-7067912D01*
X10690158Y-7067912D02*
X10690158Y-6991722D01*
X10690158Y-6991722D02*
X10699682Y-6972674D01*
X10699682Y-6972674D02*
X10718730Y-6963150D01*
X10718730Y-6963150D02*
X10756825Y-6963150D01*
X10756825Y-6963150D02*
X10775873Y-6972674D01*
X10775873Y-6972674D02*
X10785396Y-6991722D01*
X10785396Y-6991722D02*
X10785396Y-7010769D01*
X10785396Y-7010769D02*
X10690158Y-7029817D01*
X10956825Y-7096484D02*
X10956825Y-6896484D01*
X10956825Y-7086960D02*
X10937777Y-7096484D01*
X10937777Y-7096484D02*
X10899682Y-7096484D01*
X10899682Y-7096484D02*
X10880635Y-7086960D01*
X10880635Y-7086960D02*
X10871111Y-7077436D01*
X10871111Y-7077436D02*
X10861587Y-7058388D01*
X10861587Y-7058388D02*
X10861587Y-7001246D01*
X10861587Y-7001246D02*
X10871111Y-6982198D01*
X10871111Y-6982198D02*
X10880635Y-6972674D01*
X10880635Y-6972674D02*
X10899682Y-6963150D01*
X10899682Y-6963150D02*
X10937777Y-6963150D01*
X10937777Y-6963150D02*
X10956825Y-6972674D01*
X11033016Y-7172674D02*
X11042539Y-7163150D01*
X11042539Y-7163150D02*
X11061587Y-7134579D01*
X11061587Y-7134579D02*
X11071111Y-7115531D01*
X11071111Y-7115531D02*
X11080635Y-7086960D01*
X11080635Y-7086960D02*
X11090158Y-7039341D01*
X11090158Y-7039341D02*
X11090158Y-7001246D01*
X11090158Y-7001246D02*
X11080635Y-6953627D01*
X11080635Y-6953627D02*
X11071111Y-6925055D01*
X11071111Y-6925055D02*
X11061587Y-6906008D01*
X11061587Y-6906008D02*
X11042539Y-6877436D01*
X11042539Y-6877436D02*
X11033016Y-6867912D01*
M02*
