G04 #@! TF.GenerationSoftware,KiCad,Pcbnew,8.0.5*
G04 #@! TF.CreationDate,2024-09-28T14:46:52+05:30*
G04 #@! TF.ProjectId,MKM01V10,4d4b4d30-3156-4313-902e-6b696361645f,1.0*
G04 #@! TF.SameCoordinates,Original*
G04 #@! TF.FileFunction,Legend,Bot*
G04 #@! TF.FilePolarity,Positive*
%FSLAX46Y46*%
G04 Gerber Fmt 4.6, Leading zero omitted, Abs format (unit mm)*
G04 Created by KiCad (PCBNEW 8.0.5) date 2024-09-28 14:46:52*
%MOMM*%
%LPD*%
G01*
G04 APERTURE LIST*
G04 Aperture macros list*
%AMRoundRect*
0 Rectangle with rounded corners*
0 $1 Rounding radius*
0 $2 $3 $4 $5 $6 $7 $8 $9 X,Y pos of 4 corners*
0 Add a 4 corners polygon primitive as box body*
4,1,4,$2,$3,$4,$5,$6,$7,$8,$9,$2,$3,0*
0 Add four circle primitives for the rounded corners*
1,1,$1+$1,$2,$3*
1,1,$1+$1,$4,$5*
1,1,$1+$1,$6,$7*
1,1,$1+$1,$8,$9*
0 Add four rect primitives between the rounded corners*
20,1,$1+$1,$2,$3,$4,$5,0*
20,1,$1+$1,$4,$5,$6,$7,0*
20,1,$1+$1,$6,$7,$8,$9,0*
20,1,$1+$1,$8,$9,$2,$3,0*%
G04 Aperture macros list end*
%ADD10C,0.150000*%
%ADD11C,0.120000*%
%ADD12R,0.850000X0.850000*%
%ADD13O,0.850000X0.850000*%
%ADD14C,3.200000*%
%ADD15RoundRect,0.225000X0.225000X0.475000X-0.225000X0.475000X-0.225000X-0.475000X0.225000X-0.475000X0*%
%ADD16O,0.900000X1.400000*%
%ADD17O,1.550000X0.890000*%
%ADD18O,0.950000X1.250000*%
%ADD19RoundRect,0.225000X-0.225000X-0.475000X0.225000X-0.475000X0.225000X0.475000X-0.225000X0.475000X0*%
%ADD20R,1.070000X1.800000*%
%ADD21O,1.070000X1.800000*%
%ADD22RoundRect,0.225000X0.475000X-0.225000X0.475000X0.225000X-0.475000X0.225000X-0.475000X-0.225000X0*%
%ADD23O,1.400000X0.900000*%
%ADD24C,1.620000*%
%ADD25C,0.500000*%
G04 APERTURE END LIST*
D10*
X43561000Y-30226000D02*
X83439000Y-30226000D01*
X83439000Y-63119000D01*
X43561000Y-63119000D01*
X43561000Y-30226000D01*
D11*
X52733080Y-50092119D02*
X52580699Y-50092119D01*
X52580699Y-50092119D02*
X52504508Y-50054024D01*
X52504508Y-50054024D02*
X52466413Y-50015929D01*
X52466413Y-50015929D02*
X52390223Y-49901643D01*
X52390223Y-49901643D02*
X52352127Y-49749262D01*
X52352127Y-49749262D02*
X52352127Y-49444500D01*
X52352127Y-49444500D02*
X52390223Y-49368310D01*
X52390223Y-49368310D02*
X52428318Y-49330215D01*
X52428318Y-49330215D02*
X52504508Y-49292119D01*
X52504508Y-49292119D02*
X52656889Y-49292119D01*
X52656889Y-49292119D02*
X52733080Y-49330215D01*
X52733080Y-49330215D02*
X52771175Y-49368310D01*
X52771175Y-49368310D02*
X52809270Y-49444500D01*
X52809270Y-49444500D02*
X52809270Y-49634976D01*
X52809270Y-49634976D02*
X52771175Y-49711167D01*
X52771175Y-49711167D02*
X52733080Y-49749262D01*
X52733080Y-49749262D02*
X52656889Y-49787357D01*
X52656889Y-49787357D02*
X52504508Y-49787357D01*
X52504508Y-49787357D02*
X52428318Y-49749262D01*
X52428318Y-49749262D02*
X52390223Y-49711167D01*
X52390223Y-49711167D02*
X52352127Y-49634976D01*
X53152128Y-49596881D02*
X53761652Y-49596881D01*
X54561651Y-50054024D02*
X54485461Y-50092119D01*
X54485461Y-50092119D02*
X54371175Y-50092119D01*
X54371175Y-50092119D02*
X54256889Y-50054024D01*
X54256889Y-50054024D02*
X54180699Y-49977834D01*
X54180699Y-49977834D02*
X54142604Y-49901643D01*
X54142604Y-49901643D02*
X54104508Y-49749262D01*
X54104508Y-49749262D02*
X54104508Y-49634976D01*
X54104508Y-49634976D02*
X54142604Y-49482595D01*
X54142604Y-49482595D02*
X54180699Y-49406405D01*
X54180699Y-49406405D02*
X54256889Y-49330215D01*
X54256889Y-49330215D02*
X54371175Y-49292119D01*
X54371175Y-49292119D02*
X54447366Y-49292119D01*
X54447366Y-49292119D02*
X54561651Y-49330215D01*
X54561651Y-49330215D02*
X54599747Y-49368310D01*
X54599747Y-49368310D02*
X54599747Y-49634976D01*
X54599747Y-49634976D02*
X54447366Y-49634976D01*
X54942604Y-49292119D02*
X54942604Y-50092119D01*
X54942604Y-50092119D02*
X55399747Y-49292119D01*
X55399747Y-49292119D02*
X55399747Y-50092119D01*
X55780699Y-49292119D02*
X55780699Y-50092119D01*
X55780699Y-50092119D02*
X55971175Y-50092119D01*
X55971175Y-50092119D02*
X56085461Y-50054024D01*
X56085461Y-50054024D02*
X56161651Y-49977834D01*
X56161651Y-49977834D02*
X56199746Y-49901643D01*
X56199746Y-49901643D02*
X56237842Y-49749262D01*
X56237842Y-49749262D02*
X56237842Y-49634976D01*
X56237842Y-49634976D02*
X56199746Y-49482595D01*
X56199746Y-49482595D02*
X56161651Y-49406405D01*
X56161651Y-49406405D02*
X56085461Y-49330215D01*
X56085461Y-49330215D02*
X55971175Y-49292119D01*
X55971175Y-49292119D02*
X55780699Y-49292119D01*
X52771175Y-48804164D02*
X52390223Y-48804164D01*
X52390223Y-48804164D02*
X52352127Y-48423212D01*
X52352127Y-48423212D02*
X52390223Y-48461307D01*
X52390223Y-48461307D02*
X52466413Y-48499402D01*
X52466413Y-48499402D02*
X52656889Y-48499402D01*
X52656889Y-48499402D02*
X52733080Y-48461307D01*
X52733080Y-48461307D02*
X52771175Y-48423212D01*
X52771175Y-48423212D02*
X52809270Y-48347021D01*
X52809270Y-48347021D02*
X52809270Y-48156545D01*
X52809270Y-48156545D02*
X52771175Y-48080355D01*
X52771175Y-48080355D02*
X52733080Y-48042260D01*
X52733080Y-48042260D02*
X52656889Y-48004164D01*
X52656889Y-48004164D02*
X52466413Y-48004164D01*
X52466413Y-48004164D02*
X52390223Y-48042260D01*
X52390223Y-48042260D02*
X52352127Y-48080355D01*
X53152128Y-48308926D02*
X53761652Y-48308926D01*
X54561651Y-48766069D02*
X54485461Y-48804164D01*
X54485461Y-48804164D02*
X54371175Y-48804164D01*
X54371175Y-48804164D02*
X54256889Y-48766069D01*
X54256889Y-48766069D02*
X54180699Y-48689879D01*
X54180699Y-48689879D02*
X54142604Y-48613688D01*
X54142604Y-48613688D02*
X54104508Y-48461307D01*
X54104508Y-48461307D02*
X54104508Y-48347021D01*
X54104508Y-48347021D02*
X54142604Y-48194640D01*
X54142604Y-48194640D02*
X54180699Y-48118450D01*
X54180699Y-48118450D02*
X54256889Y-48042260D01*
X54256889Y-48042260D02*
X54371175Y-48004164D01*
X54371175Y-48004164D02*
X54447366Y-48004164D01*
X54447366Y-48004164D02*
X54561651Y-48042260D01*
X54561651Y-48042260D02*
X54599747Y-48080355D01*
X54599747Y-48080355D02*
X54599747Y-48347021D01*
X54599747Y-48347021D02*
X54447366Y-48347021D01*
X54942604Y-48004164D02*
X54942604Y-48804164D01*
X54942604Y-48804164D02*
X55399747Y-48004164D01*
X55399747Y-48004164D02*
X55399747Y-48804164D01*
X55780699Y-48004164D02*
X55780699Y-48804164D01*
X55780699Y-48804164D02*
X55971175Y-48804164D01*
X55971175Y-48804164D02*
X56085461Y-48766069D01*
X56085461Y-48766069D02*
X56161651Y-48689879D01*
X56161651Y-48689879D02*
X56199746Y-48613688D01*
X56199746Y-48613688D02*
X56237842Y-48461307D01*
X56237842Y-48461307D02*
X56237842Y-48347021D01*
X56237842Y-48347021D02*
X56199746Y-48194640D01*
X56199746Y-48194640D02*
X56161651Y-48118450D01*
X56161651Y-48118450D02*
X56085461Y-48042260D01*
X56085461Y-48042260D02*
X55971175Y-48004164D01*
X55971175Y-48004164D02*
X55780699Y-48004164D01*
X52733080Y-47249543D02*
X52733080Y-46716209D01*
X52542604Y-47554305D02*
X52352127Y-46982876D01*
X52352127Y-46982876D02*
X52847366Y-46982876D01*
X53152128Y-47020971D02*
X53761652Y-47020971D01*
X54599747Y-46716209D02*
X54333080Y-47097162D01*
X54142604Y-46716209D02*
X54142604Y-47516209D01*
X54142604Y-47516209D02*
X54447366Y-47516209D01*
X54447366Y-47516209D02*
X54523556Y-47478114D01*
X54523556Y-47478114D02*
X54561651Y-47440019D01*
X54561651Y-47440019D02*
X54599747Y-47363828D01*
X54599747Y-47363828D02*
X54599747Y-47249543D01*
X54599747Y-47249543D02*
X54561651Y-47173352D01*
X54561651Y-47173352D02*
X54523556Y-47135257D01*
X54523556Y-47135257D02*
X54447366Y-47097162D01*
X54447366Y-47097162D02*
X54142604Y-47097162D01*
X54942604Y-47135257D02*
X55209270Y-47135257D01*
X55323556Y-46716209D02*
X54942604Y-46716209D01*
X54942604Y-46716209D02*
X54942604Y-47516209D01*
X54942604Y-47516209D02*
X55323556Y-47516209D01*
X55628318Y-46754305D02*
X55742604Y-46716209D01*
X55742604Y-46716209D02*
X55933080Y-46716209D01*
X55933080Y-46716209D02*
X56009271Y-46754305D01*
X56009271Y-46754305D02*
X56047366Y-46792400D01*
X56047366Y-46792400D02*
X56085461Y-46868590D01*
X56085461Y-46868590D02*
X56085461Y-46944781D01*
X56085461Y-46944781D02*
X56047366Y-47020971D01*
X56047366Y-47020971D02*
X56009271Y-47059066D01*
X56009271Y-47059066D02*
X55933080Y-47097162D01*
X55933080Y-47097162D02*
X55780699Y-47135257D01*
X55780699Y-47135257D02*
X55704509Y-47173352D01*
X55704509Y-47173352D02*
X55666414Y-47211447D01*
X55666414Y-47211447D02*
X55628318Y-47287638D01*
X55628318Y-47287638D02*
X55628318Y-47363828D01*
X55628318Y-47363828D02*
X55666414Y-47440019D01*
X55666414Y-47440019D02*
X55704509Y-47478114D01*
X55704509Y-47478114D02*
X55780699Y-47516209D01*
X55780699Y-47516209D02*
X55971176Y-47516209D01*
X55971176Y-47516209D02*
X56085461Y-47478114D01*
X56428319Y-47135257D02*
X56694985Y-47135257D01*
X56809271Y-46716209D02*
X56428319Y-46716209D01*
X56428319Y-46716209D02*
X56428319Y-47516209D01*
X56428319Y-47516209D02*
X56809271Y-47516209D01*
X57037843Y-47516209D02*
X57494986Y-47516209D01*
X57266414Y-46716209D02*
X57266414Y-47516209D01*
X52314032Y-46228254D02*
X52809270Y-46228254D01*
X52809270Y-46228254D02*
X52542604Y-45923492D01*
X52542604Y-45923492D02*
X52656889Y-45923492D01*
X52656889Y-45923492D02*
X52733080Y-45885397D01*
X52733080Y-45885397D02*
X52771175Y-45847302D01*
X52771175Y-45847302D02*
X52809270Y-45771111D01*
X52809270Y-45771111D02*
X52809270Y-45580635D01*
X52809270Y-45580635D02*
X52771175Y-45504445D01*
X52771175Y-45504445D02*
X52733080Y-45466350D01*
X52733080Y-45466350D02*
X52656889Y-45428254D01*
X52656889Y-45428254D02*
X52428318Y-45428254D01*
X52428318Y-45428254D02*
X52352127Y-45466350D01*
X52352127Y-45466350D02*
X52314032Y-45504445D01*
X53152128Y-45733016D02*
X53761652Y-45733016D01*
X54104508Y-45466350D02*
X54218794Y-45428254D01*
X54218794Y-45428254D02*
X54409270Y-45428254D01*
X54409270Y-45428254D02*
X54485461Y-45466350D01*
X54485461Y-45466350D02*
X54523556Y-45504445D01*
X54523556Y-45504445D02*
X54561651Y-45580635D01*
X54561651Y-45580635D02*
X54561651Y-45656826D01*
X54561651Y-45656826D02*
X54523556Y-45733016D01*
X54523556Y-45733016D02*
X54485461Y-45771111D01*
X54485461Y-45771111D02*
X54409270Y-45809207D01*
X54409270Y-45809207D02*
X54256889Y-45847302D01*
X54256889Y-45847302D02*
X54180699Y-45885397D01*
X54180699Y-45885397D02*
X54142604Y-45923492D01*
X54142604Y-45923492D02*
X54104508Y-45999683D01*
X54104508Y-45999683D02*
X54104508Y-46075873D01*
X54104508Y-46075873D02*
X54142604Y-46152064D01*
X54142604Y-46152064D02*
X54180699Y-46190159D01*
X54180699Y-46190159D02*
X54256889Y-46228254D01*
X54256889Y-46228254D02*
X54447366Y-46228254D01*
X54447366Y-46228254D02*
X54561651Y-46190159D01*
X54828318Y-46228254D02*
X55018794Y-45428254D01*
X55018794Y-45428254D02*
X55171175Y-45999683D01*
X55171175Y-45999683D02*
X55323556Y-45428254D01*
X55323556Y-45428254D02*
X55514033Y-46228254D01*
X55818795Y-45428254D02*
X55818795Y-46228254D01*
X55818795Y-46228254D02*
X56009271Y-46228254D01*
X56009271Y-46228254D02*
X56123557Y-46190159D01*
X56123557Y-46190159D02*
X56199747Y-46113969D01*
X56199747Y-46113969D02*
X56237842Y-46037778D01*
X56237842Y-46037778D02*
X56275938Y-45885397D01*
X56275938Y-45885397D02*
X56275938Y-45771111D01*
X56275938Y-45771111D02*
X56237842Y-45618730D01*
X56237842Y-45618730D02*
X56199747Y-45542540D01*
X56199747Y-45542540D02*
X56123557Y-45466350D01*
X56123557Y-45466350D02*
X56009271Y-45428254D01*
X56009271Y-45428254D02*
X55818795Y-45428254D01*
X56618795Y-45428254D02*
X56618795Y-46228254D01*
X57152128Y-46228254D02*
X57304509Y-46228254D01*
X57304509Y-46228254D02*
X57380699Y-46190159D01*
X57380699Y-46190159D02*
X57456890Y-46113969D01*
X57456890Y-46113969D02*
X57494985Y-45961588D01*
X57494985Y-45961588D02*
X57494985Y-45694921D01*
X57494985Y-45694921D02*
X57456890Y-45542540D01*
X57456890Y-45542540D02*
X57380699Y-45466350D01*
X57380699Y-45466350D02*
X57304509Y-45428254D01*
X57304509Y-45428254D02*
X57152128Y-45428254D01*
X57152128Y-45428254D02*
X57075937Y-45466350D01*
X57075937Y-45466350D02*
X56999747Y-45542540D01*
X56999747Y-45542540D02*
X56961651Y-45694921D01*
X56961651Y-45694921D02*
X56961651Y-45961588D01*
X56961651Y-45961588D02*
X56999747Y-46113969D01*
X56999747Y-46113969D02*
X57075937Y-46190159D01*
X57075937Y-46190159D02*
X57152128Y-46228254D01*
X52352127Y-44864109D02*
X52390223Y-44902204D01*
X52390223Y-44902204D02*
X52466413Y-44940299D01*
X52466413Y-44940299D02*
X52656889Y-44940299D01*
X52656889Y-44940299D02*
X52733080Y-44902204D01*
X52733080Y-44902204D02*
X52771175Y-44864109D01*
X52771175Y-44864109D02*
X52809270Y-44787918D01*
X52809270Y-44787918D02*
X52809270Y-44711728D01*
X52809270Y-44711728D02*
X52771175Y-44597442D01*
X52771175Y-44597442D02*
X52314032Y-44140299D01*
X52314032Y-44140299D02*
X52809270Y-44140299D01*
X53152128Y-44445061D02*
X53761652Y-44445061D01*
X54104508Y-44178395D02*
X54218794Y-44140299D01*
X54218794Y-44140299D02*
X54409270Y-44140299D01*
X54409270Y-44140299D02*
X54485461Y-44178395D01*
X54485461Y-44178395D02*
X54523556Y-44216490D01*
X54523556Y-44216490D02*
X54561651Y-44292680D01*
X54561651Y-44292680D02*
X54561651Y-44368871D01*
X54561651Y-44368871D02*
X54523556Y-44445061D01*
X54523556Y-44445061D02*
X54485461Y-44483156D01*
X54485461Y-44483156D02*
X54409270Y-44521252D01*
X54409270Y-44521252D02*
X54256889Y-44559347D01*
X54256889Y-44559347D02*
X54180699Y-44597442D01*
X54180699Y-44597442D02*
X54142604Y-44635537D01*
X54142604Y-44635537D02*
X54104508Y-44711728D01*
X54104508Y-44711728D02*
X54104508Y-44787918D01*
X54104508Y-44787918D02*
X54142604Y-44864109D01*
X54142604Y-44864109D02*
X54180699Y-44902204D01*
X54180699Y-44902204D02*
X54256889Y-44940299D01*
X54256889Y-44940299D02*
X54447366Y-44940299D01*
X54447366Y-44940299D02*
X54561651Y-44902204D01*
X54828318Y-44940299D02*
X55018794Y-44140299D01*
X55018794Y-44140299D02*
X55171175Y-44711728D01*
X55171175Y-44711728D02*
X55323556Y-44140299D01*
X55323556Y-44140299D02*
X55514033Y-44940299D01*
X56275938Y-44216490D02*
X56237842Y-44178395D01*
X56237842Y-44178395D02*
X56123557Y-44140299D01*
X56123557Y-44140299D02*
X56047366Y-44140299D01*
X56047366Y-44140299D02*
X55933080Y-44178395D01*
X55933080Y-44178395D02*
X55856890Y-44254585D01*
X55856890Y-44254585D02*
X55818795Y-44330775D01*
X55818795Y-44330775D02*
X55780699Y-44483156D01*
X55780699Y-44483156D02*
X55780699Y-44597442D01*
X55780699Y-44597442D02*
X55818795Y-44749823D01*
X55818795Y-44749823D02*
X55856890Y-44826014D01*
X55856890Y-44826014D02*
X55933080Y-44902204D01*
X55933080Y-44902204D02*
X56047366Y-44940299D01*
X56047366Y-44940299D02*
X56123557Y-44940299D01*
X56123557Y-44940299D02*
X56237842Y-44902204D01*
X56237842Y-44902204D02*
X56275938Y-44864109D01*
X56999747Y-44140299D02*
X56618795Y-44140299D01*
X56618795Y-44140299D02*
X56618795Y-44940299D01*
X57266414Y-44140299D02*
X57266414Y-44940299D01*
X57723557Y-44140299D02*
X57380699Y-44597442D01*
X57723557Y-44940299D02*
X57266414Y-44483156D01*
X52809270Y-42852344D02*
X52352127Y-42852344D01*
X52580699Y-42852344D02*
X52580699Y-43652344D01*
X52580699Y-43652344D02*
X52504508Y-43538059D01*
X52504508Y-43538059D02*
X52428318Y-43461868D01*
X52428318Y-43461868D02*
X52352127Y-43423773D01*
X53152128Y-43157106D02*
X53761652Y-43157106D01*
X54523556Y-43652344D02*
X54142604Y-43652344D01*
X54142604Y-43652344D02*
X54104508Y-43271392D01*
X54104508Y-43271392D02*
X54142604Y-43309487D01*
X54142604Y-43309487D02*
X54218794Y-43347582D01*
X54218794Y-43347582D02*
X54409270Y-43347582D01*
X54409270Y-43347582D02*
X54485461Y-43309487D01*
X54485461Y-43309487D02*
X54523556Y-43271392D01*
X54523556Y-43271392D02*
X54561651Y-43195201D01*
X54561651Y-43195201D02*
X54561651Y-43004725D01*
X54561651Y-43004725D02*
X54523556Y-42928535D01*
X54523556Y-42928535D02*
X54485461Y-42890440D01*
X54485461Y-42890440D02*
X54409270Y-42852344D01*
X54409270Y-42852344D02*
X54218794Y-42852344D01*
X54218794Y-42852344D02*
X54142604Y-42890440D01*
X54142604Y-42890440D02*
X54104508Y-42928535D01*
X54790223Y-43652344D02*
X55056890Y-42852344D01*
X55056890Y-42852344D02*
X55323556Y-43652344D01*
X55742604Y-43652344D02*
X55818794Y-43652344D01*
X55818794Y-43652344D02*
X55894985Y-43614249D01*
X55894985Y-43614249D02*
X55933080Y-43576154D01*
X55933080Y-43576154D02*
X55971175Y-43499963D01*
X55971175Y-43499963D02*
X56009270Y-43347582D01*
X56009270Y-43347582D02*
X56009270Y-43157106D01*
X56009270Y-43157106D02*
X55971175Y-43004725D01*
X55971175Y-43004725D02*
X55933080Y-42928535D01*
X55933080Y-42928535D02*
X55894985Y-42890440D01*
X55894985Y-42890440D02*
X55818794Y-42852344D01*
X55818794Y-42852344D02*
X55742604Y-42852344D01*
X55742604Y-42852344D02*
X55666413Y-42890440D01*
X55666413Y-42890440D02*
X55628318Y-42928535D01*
X55628318Y-42928535D02*
X55590223Y-43004725D01*
X55590223Y-43004725D02*
X55552127Y-43157106D01*
X55552127Y-43157106D02*
X55552127Y-43347582D01*
X55552127Y-43347582D02*
X55590223Y-43499963D01*
X55590223Y-43499963D02*
X55628318Y-43576154D01*
X55628318Y-43576154D02*
X55666413Y-43614249D01*
X55666413Y-43614249D02*
X55742604Y-43652344D01*
X72278944Y-57131529D02*
X72278944Y-57588672D01*
X72278944Y-57360100D02*
X73078944Y-57360100D01*
X73078944Y-57360100D02*
X72964659Y-57436291D01*
X72964659Y-57436291D02*
X72888468Y-57512481D01*
X72888468Y-57512481D02*
X72850373Y-57588672D01*
X72583706Y-56788671D02*
X72583706Y-56179148D01*
X73078944Y-55912481D02*
X72278944Y-55645814D01*
X72278944Y-55645814D02*
X73078944Y-55379148D01*
X73078944Y-55188672D02*
X73078944Y-54693434D01*
X73078944Y-54693434D02*
X72774182Y-54960100D01*
X72774182Y-54960100D02*
X72774182Y-54845815D01*
X72774182Y-54845815D02*
X72736087Y-54769624D01*
X72736087Y-54769624D02*
X72697992Y-54731529D01*
X72697992Y-54731529D02*
X72621801Y-54693434D01*
X72621801Y-54693434D02*
X72431325Y-54693434D01*
X72431325Y-54693434D02*
X72355135Y-54731529D01*
X72355135Y-54731529D02*
X72317040Y-54769624D01*
X72317040Y-54769624D02*
X72278944Y-54845815D01*
X72278944Y-54845815D02*
X72278944Y-55074386D01*
X72278944Y-55074386D02*
X72317040Y-55150577D01*
X72317040Y-55150577D02*
X72355135Y-55188672D01*
X71714799Y-57588672D02*
X71752894Y-57550576D01*
X71752894Y-57550576D02*
X71790989Y-57474386D01*
X71790989Y-57474386D02*
X71790989Y-57283910D01*
X71790989Y-57283910D02*
X71752894Y-57207719D01*
X71752894Y-57207719D02*
X71714799Y-57169624D01*
X71714799Y-57169624D02*
X71638608Y-57131529D01*
X71638608Y-57131529D02*
X71562418Y-57131529D01*
X71562418Y-57131529D02*
X71448132Y-57169624D01*
X71448132Y-57169624D02*
X70990989Y-57626767D01*
X70990989Y-57626767D02*
X70990989Y-57131529D01*
X71295751Y-56788671D02*
X71295751Y-56179148D01*
X70990989Y-55798195D02*
X71790989Y-55798195D01*
X71790989Y-55798195D02*
X70990989Y-55341052D01*
X70990989Y-55341052D02*
X71790989Y-55341052D01*
X71067180Y-54502957D02*
X71029085Y-54541053D01*
X71029085Y-54541053D02*
X70990989Y-54655338D01*
X70990989Y-54655338D02*
X70990989Y-54731529D01*
X70990989Y-54731529D02*
X71029085Y-54845815D01*
X71029085Y-54845815D02*
X71105275Y-54922005D01*
X71105275Y-54922005D02*
X71181465Y-54960100D01*
X71181465Y-54960100D02*
X71333846Y-54998196D01*
X71333846Y-54998196D02*
X71448132Y-54998196D01*
X71448132Y-54998196D02*
X71600513Y-54960100D01*
X71600513Y-54960100D02*
X71676704Y-54922005D01*
X71676704Y-54922005D02*
X71752894Y-54845815D01*
X71752894Y-54845815D02*
X71790989Y-54731529D01*
X71790989Y-54731529D02*
X71790989Y-54655338D01*
X71790989Y-54655338D02*
X71752894Y-54541053D01*
X71752894Y-54541053D02*
X71714799Y-54502957D01*
X71029085Y-54198196D02*
X70990989Y-54083910D01*
X70990989Y-54083910D02*
X70990989Y-53893434D01*
X70990989Y-53893434D02*
X71029085Y-53817243D01*
X71029085Y-53817243D02*
X71067180Y-53779148D01*
X71067180Y-53779148D02*
X71143370Y-53741053D01*
X71143370Y-53741053D02*
X71219561Y-53741053D01*
X71219561Y-53741053D02*
X71295751Y-53779148D01*
X71295751Y-53779148D02*
X71333846Y-53817243D01*
X71333846Y-53817243D02*
X71371942Y-53893434D01*
X71371942Y-53893434D02*
X71410037Y-54045815D01*
X71410037Y-54045815D02*
X71448132Y-54122005D01*
X71448132Y-54122005D02*
X71486227Y-54160100D01*
X71486227Y-54160100D02*
X71562418Y-54198196D01*
X71562418Y-54198196D02*
X71638608Y-54198196D01*
X71638608Y-54198196D02*
X71714799Y-54160100D01*
X71714799Y-54160100D02*
X71752894Y-54122005D01*
X71752894Y-54122005D02*
X71790989Y-54045815D01*
X71790989Y-54045815D02*
X71790989Y-53855338D01*
X71790989Y-53855338D02*
X71752894Y-53741053D01*
X70990989Y-52979148D02*
X70990989Y-53436291D01*
X70990989Y-53207719D02*
X71790989Y-53207719D01*
X71790989Y-53207719D02*
X71676704Y-53283910D01*
X71676704Y-53283910D02*
X71600513Y-53360100D01*
X71600513Y-53360100D02*
X71562418Y-53436291D01*
X70503034Y-57626767D02*
X70503034Y-57131529D01*
X70503034Y-57131529D02*
X70198272Y-57398195D01*
X70198272Y-57398195D02*
X70198272Y-57283910D01*
X70198272Y-57283910D02*
X70160177Y-57207719D01*
X70160177Y-57207719D02*
X70122082Y-57169624D01*
X70122082Y-57169624D02*
X70045891Y-57131529D01*
X70045891Y-57131529D02*
X69855415Y-57131529D01*
X69855415Y-57131529D02*
X69779225Y-57169624D01*
X69779225Y-57169624D02*
X69741130Y-57207719D01*
X69741130Y-57207719D02*
X69703034Y-57283910D01*
X69703034Y-57283910D02*
X69703034Y-57512481D01*
X69703034Y-57512481D02*
X69741130Y-57588672D01*
X69741130Y-57588672D02*
X69779225Y-57626767D01*
X70007796Y-56788671D02*
X70007796Y-56179148D01*
X69741130Y-55836291D02*
X69703034Y-55722005D01*
X69703034Y-55722005D02*
X69703034Y-55531529D01*
X69703034Y-55531529D02*
X69741130Y-55455338D01*
X69741130Y-55455338D02*
X69779225Y-55417243D01*
X69779225Y-55417243D02*
X69855415Y-55379148D01*
X69855415Y-55379148D02*
X69931606Y-55379148D01*
X69931606Y-55379148D02*
X70007796Y-55417243D01*
X70007796Y-55417243D02*
X70045891Y-55455338D01*
X70045891Y-55455338D02*
X70083987Y-55531529D01*
X70083987Y-55531529D02*
X70122082Y-55683910D01*
X70122082Y-55683910D02*
X70160177Y-55760100D01*
X70160177Y-55760100D02*
X70198272Y-55798195D01*
X70198272Y-55798195D02*
X70274463Y-55836291D01*
X70274463Y-55836291D02*
X70350653Y-55836291D01*
X70350653Y-55836291D02*
X70426844Y-55798195D01*
X70426844Y-55798195D02*
X70464939Y-55760100D01*
X70464939Y-55760100D02*
X70503034Y-55683910D01*
X70503034Y-55683910D02*
X70503034Y-55493433D01*
X70503034Y-55493433D02*
X70464939Y-55379148D01*
X69779225Y-54579147D02*
X69741130Y-54617243D01*
X69741130Y-54617243D02*
X69703034Y-54731528D01*
X69703034Y-54731528D02*
X69703034Y-54807719D01*
X69703034Y-54807719D02*
X69741130Y-54922005D01*
X69741130Y-54922005D02*
X69817320Y-54998195D01*
X69817320Y-54998195D02*
X69893510Y-55036290D01*
X69893510Y-55036290D02*
X70045891Y-55074386D01*
X70045891Y-55074386D02*
X70160177Y-55074386D01*
X70160177Y-55074386D02*
X70312558Y-55036290D01*
X70312558Y-55036290D02*
X70388749Y-54998195D01*
X70388749Y-54998195D02*
X70464939Y-54922005D01*
X70464939Y-54922005D02*
X70503034Y-54807719D01*
X70503034Y-54807719D02*
X70503034Y-54731528D01*
X70503034Y-54731528D02*
X70464939Y-54617243D01*
X70464939Y-54617243D02*
X70426844Y-54579147D01*
X69703034Y-54236290D02*
X70503034Y-54236290D01*
X69703034Y-53779147D02*
X70160177Y-54122005D01*
X70503034Y-53779147D02*
X70045891Y-54236290D01*
X69703034Y-53017243D02*
X69703034Y-53474386D01*
X69703034Y-53245814D02*
X70503034Y-53245814D01*
X70503034Y-53245814D02*
X70388749Y-53322005D01*
X70388749Y-53322005D02*
X70312558Y-53398195D01*
X70312558Y-53398195D02*
X70274463Y-53474386D01*
X68948413Y-57207719D02*
X68415079Y-57207719D01*
X69253175Y-57398195D02*
X68681746Y-57588672D01*
X68681746Y-57588672D02*
X68681746Y-57093433D01*
X68719841Y-56788671D02*
X68719841Y-56179148D01*
X68415079Y-55798195D02*
X69215079Y-55798195D01*
X69215079Y-55798195D02*
X68643651Y-55531529D01*
X68643651Y-55531529D02*
X69215079Y-55264862D01*
X69215079Y-55264862D02*
X68415079Y-55264862D01*
X68415079Y-54883909D02*
X69215079Y-54883909D01*
X68453175Y-54541053D02*
X68415079Y-54426767D01*
X68415079Y-54426767D02*
X68415079Y-54236291D01*
X68415079Y-54236291D02*
X68453175Y-54160100D01*
X68453175Y-54160100D02*
X68491270Y-54122005D01*
X68491270Y-54122005D02*
X68567460Y-54083910D01*
X68567460Y-54083910D02*
X68643651Y-54083910D01*
X68643651Y-54083910D02*
X68719841Y-54122005D01*
X68719841Y-54122005D02*
X68757936Y-54160100D01*
X68757936Y-54160100D02*
X68796032Y-54236291D01*
X68796032Y-54236291D02*
X68834127Y-54388672D01*
X68834127Y-54388672D02*
X68872222Y-54464862D01*
X68872222Y-54464862D02*
X68910317Y-54502957D01*
X68910317Y-54502957D02*
X68986508Y-54541053D01*
X68986508Y-54541053D02*
X69062698Y-54541053D01*
X69062698Y-54541053D02*
X69138889Y-54502957D01*
X69138889Y-54502957D02*
X69176984Y-54464862D01*
X69176984Y-54464862D02*
X69215079Y-54388672D01*
X69215079Y-54388672D02*
X69215079Y-54198195D01*
X69215079Y-54198195D02*
X69176984Y-54083910D01*
X69215079Y-53588671D02*
X69215079Y-53436290D01*
X69215079Y-53436290D02*
X69176984Y-53360100D01*
X69176984Y-53360100D02*
X69100794Y-53283909D01*
X69100794Y-53283909D02*
X68948413Y-53245814D01*
X68948413Y-53245814D02*
X68681746Y-53245814D01*
X68681746Y-53245814D02*
X68529365Y-53283909D01*
X68529365Y-53283909D02*
X68453175Y-53360100D01*
X68453175Y-53360100D02*
X68415079Y-53436290D01*
X68415079Y-53436290D02*
X68415079Y-53588671D01*
X68415079Y-53588671D02*
X68453175Y-53664862D01*
X68453175Y-53664862D02*
X68529365Y-53741052D01*
X68529365Y-53741052D02*
X68681746Y-53779148D01*
X68681746Y-53779148D02*
X68948413Y-53779148D01*
X68948413Y-53779148D02*
X69100794Y-53741052D01*
X69100794Y-53741052D02*
X69176984Y-53664862D01*
X69176984Y-53664862D02*
X69215079Y-53588671D01*
X67927124Y-57169624D02*
X67927124Y-57550576D01*
X67927124Y-57550576D02*
X67546172Y-57588672D01*
X67546172Y-57588672D02*
X67584267Y-57550576D01*
X67584267Y-57550576D02*
X67622362Y-57474386D01*
X67622362Y-57474386D02*
X67622362Y-57283910D01*
X67622362Y-57283910D02*
X67584267Y-57207719D01*
X67584267Y-57207719D02*
X67546172Y-57169624D01*
X67546172Y-57169624D02*
X67469981Y-57131529D01*
X67469981Y-57131529D02*
X67279505Y-57131529D01*
X67279505Y-57131529D02*
X67203315Y-57169624D01*
X67203315Y-57169624D02*
X67165220Y-57207719D01*
X67165220Y-57207719D02*
X67127124Y-57283910D01*
X67127124Y-57283910D02*
X67127124Y-57474386D01*
X67127124Y-57474386D02*
X67165220Y-57550576D01*
X67165220Y-57550576D02*
X67203315Y-57588672D01*
X67431886Y-56788671D02*
X67431886Y-56179148D01*
X67127124Y-55798195D02*
X67927124Y-55798195D01*
X67927124Y-55798195D02*
X67355696Y-55531529D01*
X67355696Y-55531529D02*
X67927124Y-55264862D01*
X67927124Y-55264862D02*
X67127124Y-55264862D01*
X67927124Y-54731528D02*
X67927124Y-54579147D01*
X67927124Y-54579147D02*
X67889029Y-54502957D01*
X67889029Y-54502957D02*
X67812839Y-54426766D01*
X67812839Y-54426766D02*
X67660458Y-54388671D01*
X67660458Y-54388671D02*
X67393791Y-54388671D01*
X67393791Y-54388671D02*
X67241410Y-54426766D01*
X67241410Y-54426766D02*
X67165220Y-54502957D01*
X67165220Y-54502957D02*
X67127124Y-54579147D01*
X67127124Y-54579147D02*
X67127124Y-54731528D01*
X67127124Y-54731528D02*
X67165220Y-54807719D01*
X67165220Y-54807719D02*
X67241410Y-54883909D01*
X67241410Y-54883909D02*
X67393791Y-54922005D01*
X67393791Y-54922005D02*
X67660458Y-54922005D01*
X67660458Y-54922005D02*
X67812839Y-54883909D01*
X67812839Y-54883909D02*
X67889029Y-54807719D01*
X67889029Y-54807719D02*
X67927124Y-54731528D01*
X67165220Y-54083910D02*
X67127124Y-53969624D01*
X67127124Y-53969624D02*
X67127124Y-53779148D01*
X67127124Y-53779148D02*
X67165220Y-53702957D01*
X67165220Y-53702957D02*
X67203315Y-53664862D01*
X67203315Y-53664862D02*
X67279505Y-53626767D01*
X67279505Y-53626767D02*
X67355696Y-53626767D01*
X67355696Y-53626767D02*
X67431886Y-53664862D01*
X67431886Y-53664862D02*
X67469981Y-53702957D01*
X67469981Y-53702957D02*
X67508077Y-53779148D01*
X67508077Y-53779148D02*
X67546172Y-53931529D01*
X67546172Y-53931529D02*
X67584267Y-54007719D01*
X67584267Y-54007719D02*
X67622362Y-54045814D01*
X67622362Y-54045814D02*
X67698553Y-54083910D01*
X67698553Y-54083910D02*
X67774743Y-54083910D01*
X67774743Y-54083910D02*
X67850934Y-54045814D01*
X67850934Y-54045814D02*
X67889029Y-54007719D01*
X67889029Y-54007719D02*
X67927124Y-53931529D01*
X67927124Y-53931529D02*
X67927124Y-53741052D01*
X67927124Y-53741052D02*
X67889029Y-53626767D01*
X67127124Y-53283909D02*
X67927124Y-53283909D01*
X66639169Y-57207719D02*
X66639169Y-57360100D01*
X66639169Y-57360100D02*
X66601074Y-57436291D01*
X66601074Y-57436291D02*
X66562979Y-57474386D01*
X66562979Y-57474386D02*
X66448693Y-57550576D01*
X66448693Y-57550576D02*
X66296312Y-57588672D01*
X66296312Y-57588672D02*
X65991550Y-57588672D01*
X65991550Y-57588672D02*
X65915360Y-57550576D01*
X65915360Y-57550576D02*
X65877265Y-57512481D01*
X65877265Y-57512481D02*
X65839169Y-57436291D01*
X65839169Y-57436291D02*
X65839169Y-57283910D01*
X65839169Y-57283910D02*
X65877265Y-57207719D01*
X65877265Y-57207719D02*
X65915360Y-57169624D01*
X65915360Y-57169624D02*
X65991550Y-57131529D01*
X65991550Y-57131529D02*
X66182026Y-57131529D01*
X66182026Y-57131529D02*
X66258217Y-57169624D01*
X66258217Y-57169624D02*
X66296312Y-57207719D01*
X66296312Y-57207719D02*
X66334407Y-57283910D01*
X66334407Y-57283910D02*
X66334407Y-57436291D01*
X66334407Y-57436291D02*
X66296312Y-57512481D01*
X66296312Y-57512481D02*
X66258217Y-57550576D01*
X66258217Y-57550576D02*
X66182026Y-57588672D01*
X66143931Y-56788671D02*
X66143931Y-56179148D01*
X66601074Y-55379148D02*
X66639169Y-55455338D01*
X66639169Y-55455338D02*
X66639169Y-55569624D01*
X66639169Y-55569624D02*
X66601074Y-55683910D01*
X66601074Y-55683910D02*
X66524884Y-55760100D01*
X66524884Y-55760100D02*
X66448693Y-55798195D01*
X66448693Y-55798195D02*
X66296312Y-55836291D01*
X66296312Y-55836291D02*
X66182026Y-55836291D01*
X66182026Y-55836291D02*
X66029645Y-55798195D01*
X66029645Y-55798195D02*
X65953455Y-55760100D01*
X65953455Y-55760100D02*
X65877265Y-55683910D01*
X65877265Y-55683910D02*
X65839169Y-55569624D01*
X65839169Y-55569624D02*
X65839169Y-55493433D01*
X65839169Y-55493433D02*
X65877265Y-55379148D01*
X65877265Y-55379148D02*
X65915360Y-55341052D01*
X65915360Y-55341052D02*
X66182026Y-55341052D01*
X66182026Y-55341052D02*
X66182026Y-55493433D01*
X65839169Y-54998195D02*
X66639169Y-54998195D01*
X66639169Y-54998195D02*
X65839169Y-54541052D01*
X65839169Y-54541052D02*
X66639169Y-54541052D01*
X65839169Y-54160100D02*
X66639169Y-54160100D01*
X66639169Y-54160100D02*
X66639169Y-53969624D01*
X66639169Y-53969624D02*
X66601074Y-53855338D01*
X66601074Y-53855338D02*
X66524884Y-53779148D01*
X66524884Y-53779148D02*
X66448693Y-53741053D01*
X66448693Y-53741053D02*
X66296312Y-53702957D01*
X66296312Y-53702957D02*
X66182026Y-53702957D01*
X66182026Y-53702957D02*
X66029645Y-53741053D01*
X66029645Y-53741053D02*
X65953455Y-53779148D01*
X65953455Y-53779148D02*
X65877265Y-53855338D01*
X65877265Y-53855338D02*
X65839169Y-53969624D01*
X65839169Y-53969624D02*
X65839169Y-54160100D01*
D10*
X73710800Y-52806600D02*
X65481200Y-52806600D01*
X65481200Y-58420000D01*
X73710800Y-58420000D01*
X73710800Y-52806600D01*
D11*
X67294055Y-35934070D02*
X67294055Y-35476927D01*
X67294055Y-35705499D02*
X66494055Y-35705499D01*
X66494055Y-35705499D02*
X66608340Y-35629308D01*
X66608340Y-35629308D02*
X66684531Y-35553118D01*
X66684531Y-35553118D02*
X66722626Y-35476927D01*
X66989293Y-36276928D02*
X66989293Y-36886452D01*
X66494055Y-37153118D02*
X67294055Y-37419785D01*
X67294055Y-37419785D02*
X66494055Y-37686451D01*
X66570245Y-37915022D02*
X66532150Y-37953118D01*
X66532150Y-37953118D02*
X66494055Y-38029308D01*
X66494055Y-38029308D02*
X66494055Y-38219784D01*
X66494055Y-38219784D02*
X66532150Y-38295975D01*
X66532150Y-38295975D02*
X66570245Y-38334070D01*
X66570245Y-38334070D02*
X66646436Y-38372165D01*
X66646436Y-38372165D02*
X66722626Y-38372165D01*
X66722626Y-38372165D02*
X66836912Y-38334070D01*
X66836912Y-38334070D02*
X67294055Y-37876927D01*
X67294055Y-37876927D02*
X67294055Y-38372165D01*
X67858200Y-35476927D02*
X67820105Y-35515023D01*
X67820105Y-35515023D02*
X67782010Y-35591213D01*
X67782010Y-35591213D02*
X67782010Y-35781689D01*
X67782010Y-35781689D02*
X67820105Y-35857880D01*
X67820105Y-35857880D02*
X67858200Y-35895975D01*
X67858200Y-35895975D02*
X67934391Y-35934070D01*
X67934391Y-35934070D02*
X68010581Y-35934070D01*
X68010581Y-35934070D02*
X68124867Y-35895975D01*
X68124867Y-35895975D02*
X68582010Y-35438832D01*
X68582010Y-35438832D02*
X68582010Y-35934070D01*
X68277248Y-36276928D02*
X68277248Y-36886452D01*
X68543915Y-37229308D02*
X68582010Y-37343594D01*
X68582010Y-37343594D02*
X68582010Y-37534070D01*
X68582010Y-37534070D02*
X68543915Y-37610261D01*
X68543915Y-37610261D02*
X68505819Y-37648356D01*
X68505819Y-37648356D02*
X68429629Y-37686451D01*
X68429629Y-37686451D02*
X68353438Y-37686451D01*
X68353438Y-37686451D02*
X68277248Y-37648356D01*
X68277248Y-37648356D02*
X68239153Y-37610261D01*
X68239153Y-37610261D02*
X68201057Y-37534070D01*
X68201057Y-37534070D02*
X68162962Y-37381689D01*
X68162962Y-37381689D02*
X68124867Y-37305499D01*
X68124867Y-37305499D02*
X68086772Y-37267404D01*
X68086772Y-37267404D02*
X68010581Y-37229308D01*
X68010581Y-37229308D02*
X67934391Y-37229308D01*
X67934391Y-37229308D02*
X67858200Y-37267404D01*
X67858200Y-37267404D02*
X67820105Y-37305499D01*
X67820105Y-37305499D02*
X67782010Y-37381689D01*
X67782010Y-37381689D02*
X67782010Y-37572166D01*
X67782010Y-37572166D02*
X67820105Y-37686451D01*
X68505819Y-38486452D02*
X68543915Y-38448356D01*
X68543915Y-38448356D02*
X68582010Y-38334071D01*
X68582010Y-38334071D02*
X68582010Y-38257880D01*
X68582010Y-38257880D02*
X68543915Y-38143594D01*
X68543915Y-38143594D02*
X68467724Y-38067404D01*
X68467724Y-38067404D02*
X68391534Y-38029309D01*
X68391534Y-38029309D02*
X68239153Y-37991213D01*
X68239153Y-37991213D02*
X68124867Y-37991213D01*
X68124867Y-37991213D02*
X67972486Y-38029309D01*
X67972486Y-38029309D02*
X67896295Y-38067404D01*
X67896295Y-38067404D02*
X67820105Y-38143594D01*
X67820105Y-38143594D02*
X67782010Y-38257880D01*
X67782010Y-38257880D02*
X67782010Y-38334071D01*
X67782010Y-38334071D02*
X67820105Y-38448356D01*
X67820105Y-38448356D02*
X67858200Y-38486452D01*
X68582010Y-39210261D02*
X68582010Y-38829309D01*
X68582010Y-38829309D02*
X67782010Y-38829309D01*
X68582010Y-39895975D02*
X68582010Y-39438832D01*
X68582010Y-39667404D02*
X67782010Y-39667404D01*
X67782010Y-39667404D02*
X67896295Y-39591213D01*
X67896295Y-39591213D02*
X67972486Y-39515023D01*
X67972486Y-39515023D02*
X68010581Y-39438832D01*
X69069965Y-35438832D02*
X69069965Y-35934070D01*
X69069965Y-35934070D02*
X69374727Y-35667404D01*
X69374727Y-35667404D02*
X69374727Y-35781689D01*
X69374727Y-35781689D02*
X69412822Y-35857880D01*
X69412822Y-35857880D02*
X69450917Y-35895975D01*
X69450917Y-35895975D02*
X69527108Y-35934070D01*
X69527108Y-35934070D02*
X69717584Y-35934070D01*
X69717584Y-35934070D02*
X69793774Y-35895975D01*
X69793774Y-35895975D02*
X69831870Y-35857880D01*
X69831870Y-35857880D02*
X69869965Y-35781689D01*
X69869965Y-35781689D02*
X69869965Y-35553118D01*
X69869965Y-35553118D02*
X69831870Y-35476927D01*
X69831870Y-35476927D02*
X69793774Y-35438832D01*
X69565203Y-36276928D02*
X69565203Y-36886452D01*
X69831870Y-37229308D02*
X69869965Y-37343594D01*
X69869965Y-37343594D02*
X69869965Y-37534070D01*
X69869965Y-37534070D02*
X69831870Y-37610261D01*
X69831870Y-37610261D02*
X69793774Y-37648356D01*
X69793774Y-37648356D02*
X69717584Y-37686451D01*
X69717584Y-37686451D02*
X69641393Y-37686451D01*
X69641393Y-37686451D02*
X69565203Y-37648356D01*
X69565203Y-37648356D02*
X69527108Y-37610261D01*
X69527108Y-37610261D02*
X69489012Y-37534070D01*
X69489012Y-37534070D02*
X69450917Y-37381689D01*
X69450917Y-37381689D02*
X69412822Y-37305499D01*
X69412822Y-37305499D02*
X69374727Y-37267404D01*
X69374727Y-37267404D02*
X69298536Y-37229308D01*
X69298536Y-37229308D02*
X69222346Y-37229308D01*
X69222346Y-37229308D02*
X69146155Y-37267404D01*
X69146155Y-37267404D02*
X69108060Y-37305499D01*
X69108060Y-37305499D02*
X69069965Y-37381689D01*
X69069965Y-37381689D02*
X69069965Y-37572166D01*
X69069965Y-37572166D02*
X69108060Y-37686451D01*
X69869965Y-38029309D02*
X69069965Y-38029309D01*
X69069965Y-38029309D02*
X69069965Y-38219785D01*
X69069965Y-38219785D02*
X69108060Y-38334071D01*
X69108060Y-38334071D02*
X69184250Y-38410261D01*
X69184250Y-38410261D02*
X69260441Y-38448356D01*
X69260441Y-38448356D02*
X69412822Y-38486452D01*
X69412822Y-38486452D02*
X69527108Y-38486452D01*
X69527108Y-38486452D02*
X69679489Y-38448356D01*
X69679489Y-38448356D02*
X69755679Y-38410261D01*
X69755679Y-38410261D02*
X69831870Y-38334071D01*
X69831870Y-38334071D02*
X69869965Y-38219785D01*
X69869965Y-38219785D02*
X69869965Y-38029309D01*
X69641393Y-38791213D02*
X69641393Y-39172166D01*
X69869965Y-38715023D02*
X69069965Y-38981690D01*
X69069965Y-38981690D02*
X69869965Y-39248356D01*
X69869965Y-39934070D02*
X69869965Y-39476927D01*
X69869965Y-39705499D02*
X69069965Y-39705499D01*
X69069965Y-39705499D02*
X69184250Y-39629308D01*
X69184250Y-39629308D02*
X69260441Y-39553118D01*
X69260441Y-39553118D02*
X69298536Y-39476927D01*
X70624586Y-35857880D02*
X71157920Y-35857880D01*
X70319825Y-35667404D02*
X70891253Y-35476927D01*
X70891253Y-35476927D02*
X70891253Y-35972166D01*
X70853158Y-36276928D02*
X70853158Y-36886452D01*
X71119825Y-37229308D02*
X71157920Y-37343594D01*
X71157920Y-37343594D02*
X71157920Y-37534070D01*
X71157920Y-37534070D02*
X71119825Y-37610261D01*
X71119825Y-37610261D02*
X71081729Y-37648356D01*
X71081729Y-37648356D02*
X71005539Y-37686451D01*
X71005539Y-37686451D02*
X70929348Y-37686451D01*
X70929348Y-37686451D02*
X70853158Y-37648356D01*
X70853158Y-37648356D02*
X70815063Y-37610261D01*
X70815063Y-37610261D02*
X70776967Y-37534070D01*
X70776967Y-37534070D02*
X70738872Y-37381689D01*
X70738872Y-37381689D02*
X70700777Y-37305499D01*
X70700777Y-37305499D02*
X70662682Y-37267404D01*
X70662682Y-37267404D02*
X70586491Y-37229308D01*
X70586491Y-37229308D02*
X70510301Y-37229308D01*
X70510301Y-37229308D02*
X70434110Y-37267404D01*
X70434110Y-37267404D02*
X70396015Y-37305499D01*
X70396015Y-37305499D02*
X70357920Y-37381689D01*
X70357920Y-37381689D02*
X70357920Y-37572166D01*
X70357920Y-37572166D02*
X70396015Y-37686451D01*
X71081729Y-38486452D02*
X71119825Y-38448356D01*
X71119825Y-38448356D02*
X71157920Y-38334071D01*
X71157920Y-38334071D02*
X71157920Y-38257880D01*
X71157920Y-38257880D02*
X71119825Y-38143594D01*
X71119825Y-38143594D02*
X71043634Y-38067404D01*
X71043634Y-38067404D02*
X70967444Y-38029309D01*
X70967444Y-38029309D02*
X70815063Y-37991213D01*
X70815063Y-37991213D02*
X70700777Y-37991213D01*
X70700777Y-37991213D02*
X70548396Y-38029309D01*
X70548396Y-38029309D02*
X70472205Y-38067404D01*
X70472205Y-38067404D02*
X70396015Y-38143594D01*
X70396015Y-38143594D02*
X70357920Y-38257880D01*
X70357920Y-38257880D02*
X70357920Y-38334071D01*
X70357920Y-38334071D02*
X70396015Y-38448356D01*
X70396015Y-38448356D02*
X70434110Y-38486452D01*
X71157920Y-39210261D02*
X71157920Y-38829309D01*
X71157920Y-38829309D02*
X70357920Y-38829309D01*
X70357920Y-39400737D02*
X70357920Y-39895975D01*
X70357920Y-39895975D02*
X70662682Y-39629309D01*
X70662682Y-39629309D02*
X70662682Y-39743594D01*
X70662682Y-39743594D02*
X70700777Y-39819785D01*
X70700777Y-39819785D02*
X70738872Y-39857880D01*
X70738872Y-39857880D02*
X70815063Y-39895975D01*
X70815063Y-39895975D02*
X71005539Y-39895975D01*
X71005539Y-39895975D02*
X71081729Y-39857880D01*
X71081729Y-39857880D02*
X71119825Y-39819785D01*
X71119825Y-39819785D02*
X71157920Y-39743594D01*
X71157920Y-39743594D02*
X71157920Y-39515023D01*
X71157920Y-39515023D02*
X71119825Y-39438832D01*
X71119825Y-39438832D02*
X71081729Y-39400737D01*
X71645875Y-35895975D02*
X71645875Y-35515023D01*
X71645875Y-35515023D02*
X72026827Y-35476927D01*
X72026827Y-35476927D02*
X71988732Y-35515023D01*
X71988732Y-35515023D02*
X71950637Y-35591213D01*
X71950637Y-35591213D02*
X71950637Y-35781689D01*
X71950637Y-35781689D02*
X71988732Y-35857880D01*
X71988732Y-35857880D02*
X72026827Y-35895975D01*
X72026827Y-35895975D02*
X72103018Y-35934070D01*
X72103018Y-35934070D02*
X72293494Y-35934070D01*
X72293494Y-35934070D02*
X72369684Y-35895975D01*
X72369684Y-35895975D02*
X72407780Y-35857880D01*
X72407780Y-35857880D02*
X72445875Y-35781689D01*
X72445875Y-35781689D02*
X72445875Y-35591213D01*
X72445875Y-35591213D02*
X72407780Y-35515023D01*
X72407780Y-35515023D02*
X72369684Y-35476927D01*
X72141113Y-36276928D02*
X72141113Y-36886452D01*
X72407780Y-37229308D02*
X72445875Y-37343594D01*
X72445875Y-37343594D02*
X72445875Y-37534070D01*
X72445875Y-37534070D02*
X72407780Y-37610261D01*
X72407780Y-37610261D02*
X72369684Y-37648356D01*
X72369684Y-37648356D02*
X72293494Y-37686451D01*
X72293494Y-37686451D02*
X72217303Y-37686451D01*
X72217303Y-37686451D02*
X72141113Y-37648356D01*
X72141113Y-37648356D02*
X72103018Y-37610261D01*
X72103018Y-37610261D02*
X72064922Y-37534070D01*
X72064922Y-37534070D02*
X72026827Y-37381689D01*
X72026827Y-37381689D02*
X71988732Y-37305499D01*
X71988732Y-37305499D02*
X71950637Y-37267404D01*
X71950637Y-37267404D02*
X71874446Y-37229308D01*
X71874446Y-37229308D02*
X71798256Y-37229308D01*
X71798256Y-37229308D02*
X71722065Y-37267404D01*
X71722065Y-37267404D02*
X71683970Y-37305499D01*
X71683970Y-37305499D02*
X71645875Y-37381689D01*
X71645875Y-37381689D02*
X71645875Y-37572166D01*
X71645875Y-37572166D02*
X71683970Y-37686451D01*
X72445875Y-38029309D02*
X71645875Y-38029309D01*
X71645875Y-38029309D02*
X71645875Y-38219785D01*
X71645875Y-38219785D02*
X71683970Y-38334071D01*
X71683970Y-38334071D02*
X71760160Y-38410261D01*
X71760160Y-38410261D02*
X71836351Y-38448356D01*
X71836351Y-38448356D02*
X71988732Y-38486452D01*
X71988732Y-38486452D02*
X72103018Y-38486452D01*
X72103018Y-38486452D02*
X72255399Y-38448356D01*
X72255399Y-38448356D02*
X72331589Y-38410261D01*
X72331589Y-38410261D02*
X72407780Y-38334071D01*
X72407780Y-38334071D02*
X72445875Y-38219785D01*
X72445875Y-38219785D02*
X72445875Y-38029309D01*
X72217303Y-38791213D02*
X72217303Y-39172166D01*
X72445875Y-38715023D02*
X71645875Y-38981690D01*
X71645875Y-38981690D02*
X72445875Y-39248356D01*
X71645875Y-39438832D02*
X71645875Y-39934070D01*
X71645875Y-39934070D02*
X71950637Y-39667404D01*
X71950637Y-39667404D02*
X71950637Y-39781689D01*
X71950637Y-39781689D02*
X71988732Y-39857880D01*
X71988732Y-39857880D02*
X72026827Y-39895975D01*
X72026827Y-39895975D02*
X72103018Y-39934070D01*
X72103018Y-39934070D02*
X72293494Y-39934070D01*
X72293494Y-39934070D02*
X72369684Y-39895975D01*
X72369684Y-39895975D02*
X72407780Y-39857880D01*
X72407780Y-39857880D02*
X72445875Y-39781689D01*
X72445875Y-39781689D02*
X72445875Y-39553118D01*
X72445875Y-39553118D02*
X72407780Y-39476927D01*
X72407780Y-39476927D02*
X72369684Y-39438832D01*
X72933830Y-35857880D02*
X72933830Y-35705499D01*
X72933830Y-35705499D02*
X72971925Y-35629308D01*
X72971925Y-35629308D02*
X73010020Y-35591213D01*
X73010020Y-35591213D02*
X73124306Y-35515023D01*
X73124306Y-35515023D02*
X73276687Y-35476927D01*
X73276687Y-35476927D02*
X73581449Y-35476927D01*
X73581449Y-35476927D02*
X73657639Y-35515023D01*
X73657639Y-35515023D02*
X73695735Y-35553118D01*
X73695735Y-35553118D02*
X73733830Y-35629308D01*
X73733830Y-35629308D02*
X73733830Y-35781689D01*
X73733830Y-35781689D02*
X73695735Y-35857880D01*
X73695735Y-35857880D02*
X73657639Y-35895975D01*
X73657639Y-35895975D02*
X73581449Y-35934070D01*
X73581449Y-35934070D02*
X73390973Y-35934070D01*
X73390973Y-35934070D02*
X73314782Y-35895975D01*
X73314782Y-35895975D02*
X73276687Y-35857880D01*
X73276687Y-35857880D02*
X73238592Y-35781689D01*
X73238592Y-35781689D02*
X73238592Y-35629308D01*
X73238592Y-35629308D02*
X73276687Y-35553118D01*
X73276687Y-35553118D02*
X73314782Y-35515023D01*
X73314782Y-35515023D02*
X73390973Y-35476927D01*
X73429068Y-36276928D02*
X73429068Y-36886452D01*
X72971925Y-37686451D02*
X72933830Y-37610261D01*
X72933830Y-37610261D02*
X72933830Y-37495975D01*
X72933830Y-37495975D02*
X72971925Y-37381689D01*
X72971925Y-37381689D02*
X73048115Y-37305499D01*
X73048115Y-37305499D02*
X73124306Y-37267404D01*
X73124306Y-37267404D02*
X73276687Y-37229308D01*
X73276687Y-37229308D02*
X73390973Y-37229308D01*
X73390973Y-37229308D02*
X73543354Y-37267404D01*
X73543354Y-37267404D02*
X73619544Y-37305499D01*
X73619544Y-37305499D02*
X73695735Y-37381689D01*
X73695735Y-37381689D02*
X73733830Y-37495975D01*
X73733830Y-37495975D02*
X73733830Y-37572166D01*
X73733830Y-37572166D02*
X73695735Y-37686451D01*
X73695735Y-37686451D02*
X73657639Y-37724547D01*
X73657639Y-37724547D02*
X73390973Y-37724547D01*
X73390973Y-37724547D02*
X73390973Y-37572166D01*
X73733830Y-38067404D02*
X72933830Y-38067404D01*
X72933830Y-38067404D02*
X73733830Y-38524547D01*
X73733830Y-38524547D02*
X72933830Y-38524547D01*
X73733830Y-38905499D02*
X72933830Y-38905499D01*
X72933830Y-38905499D02*
X72933830Y-39095975D01*
X72933830Y-39095975D02*
X72971925Y-39210261D01*
X72971925Y-39210261D02*
X73048115Y-39286451D01*
X73048115Y-39286451D02*
X73124306Y-39324546D01*
X73124306Y-39324546D02*
X73276687Y-39362642D01*
X73276687Y-39362642D02*
X73390973Y-39362642D01*
X73390973Y-39362642D02*
X73543354Y-39324546D01*
X73543354Y-39324546D02*
X73619544Y-39286451D01*
X73619544Y-39286451D02*
X73695735Y-39210261D01*
X73695735Y-39210261D02*
X73733830Y-39095975D01*
X73733830Y-39095975D02*
X73733830Y-38905499D01*
D10*
X65862200Y-40132000D02*
X74091799Y-40132000D01*
X74091799Y-34645600D01*
X65862200Y-34645600D01*
X65862200Y-40132000D01*
D11*
X75621604Y-54085144D02*
X75697794Y-54085144D01*
X75697794Y-54085144D02*
X75773985Y-54047049D01*
X75773985Y-54047049D02*
X75812080Y-54008954D01*
X75812080Y-54008954D02*
X75850175Y-53932763D01*
X75850175Y-53932763D02*
X75888270Y-53780382D01*
X75888270Y-53780382D02*
X75888270Y-53589906D01*
X75888270Y-53589906D02*
X75850175Y-53437525D01*
X75850175Y-53437525D02*
X75812080Y-53361335D01*
X75812080Y-53361335D02*
X75773985Y-53323240D01*
X75773985Y-53323240D02*
X75697794Y-53285144D01*
X75697794Y-53285144D02*
X75621604Y-53285144D01*
X75621604Y-53285144D02*
X75545413Y-53323240D01*
X75545413Y-53323240D02*
X75507318Y-53361335D01*
X75507318Y-53361335D02*
X75469223Y-53437525D01*
X75469223Y-53437525D02*
X75431127Y-53589906D01*
X75431127Y-53589906D02*
X75431127Y-53780382D01*
X75431127Y-53780382D02*
X75469223Y-53932763D01*
X75469223Y-53932763D02*
X75507318Y-54008954D01*
X75507318Y-54008954D02*
X75545413Y-54047049D01*
X75545413Y-54047049D02*
X75621604Y-54085144D01*
X76650175Y-53285144D02*
X76193032Y-53285144D01*
X76421604Y-53285144D02*
X76421604Y-54085144D01*
X76421604Y-54085144D02*
X76345413Y-53970859D01*
X76345413Y-53970859D02*
X76269223Y-53894668D01*
X76269223Y-53894668D02*
X76193032Y-53856573D01*
X76993033Y-53589906D02*
X77602557Y-53589906D01*
X77869223Y-54085144D02*
X78135890Y-53285144D01*
X78135890Y-53285144D02*
X78402556Y-54085144D01*
X79012080Y-53818478D02*
X79012080Y-53285144D01*
X78821604Y-54123240D02*
X78631127Y-53551811D01*
X78631127Y-53551811D02*
X79126366Y-53551811D01*
X75621604Y-52797189D02*
X75697794Y-52797189D01*
X75697794Y-52797189D02*
X75773985Y-52759094D01*
X75773985Y-52759094D02*
X75812080Y-52720999D01*
X75812080Y-52720999D02*
X75850175Y-52644808D01*
X75850175Y-52644808D02*
X75888270Y-52492427D01*
X75888270Y-52492427D02*
X75888270Y-52301951D01*
X75888270Y-52301951D02*
X75850175Y-52149570D01*
X75850175Y-52149570D02*
X75812080Y-52073380D01*
X75812080Y-52073380D02*
X75773985Y-52035285D01*
X75773985Y-52035285D02*
X75697794Y-51997189D01*
X75697794Y-51997189D02*
X75621604Y-51997189D01*
X75621604Y-51997189D02*
X75545413Y-52035285D01*
X75545413Y-52035285D02*
X75507318Y-52073380D01*
X75507318Y-52073380D02*
X75469223Y-52149570D01*
X75469223Y-52149570D02*
X75431127Y-52301951D01*
X75431127Y-52301951D02*
X75431127Y-52492427D01*
X75431127Y-52492427D02*
X75469223Y-52644808D01*
X75469223Y-52644808D02*
X75507318Y-52720999D01*
X75507318Y-52720999D02*
X75545413Y-52759094D01*
X75545413Y-52759094D02*
X75621604Y-52797189D01*
X76193032Y-52720999D02*
X76231128Y-52759094D01*
X76231128Y-52759094D02*
X76307318Y-52797189D01*
X76307318Y-52797189D02*
X76497794Y-52797189D01*
X76497794Y-52797189D02*
X76573985Y-52759094D01*
X76573985Y-52759094D02*
X76612080Y-52720999D01*
X76612080Y-52720999D02*
X76650175Y-52644808D01*
X76650175Y-52644808D02*
X76650175Y-52568618D01*
X76650175Y-52568618D02*
X76612080Y-52454332D01*
X76612080Y-52454332D02*
X76154937Y-51997189D01*
X76154937Y-51997189D02*
X76650175Y-51997189D01*
X76993033Y-52301951D02*
X77602557Y-52301951D01*
X77983509Y-51997189D02*
X77983509Y-52797189D01*
X78516842Y-52797189D02*
X78669223Y-52797189D01*
X78669223Y-52797189D02*
X78745413Y-52759094D01*
X78745413Y-52759094D02*
X78821604Y-52682904D01*
X78821604Y-52682904D02*
X78859699Y-52530523D01*
X78859699Y-52530523D02*
X78859699Y-52263856D01*
X78859699Y-52263856D02*
X78821604Y-52111475D01*
X78821604Y-52111475D02*
X78745413Y-52035285D01*
X78745413Y-52035285D02*
X78669223Y-51997189D01*
X78669223Y-51997189D02*
X78516842Y-51997189D01*
X78516842Y-51997189D02*
X78440651Y-52035285D01*
X78440651Y-52035285D02*
X78364461Y-52111475D01*
X78364461Y-52111475D02*
X78326365Y-52263856D01*
X78326365Y-52263856D02*
X78326365Y-52530523D01*
X78326365Y-52530523D02*
X78364461Y-52682904D01*
X78364461Y-52682904D02*
X78440651Y-52759094D01*
X78440651Y-52759094D02*
X78516842Y-52797189D01*
X79621603Y-51997189D02*
X79164460Y-51997189D01*
X79393032Y-51997189D02*
X79393032Y-52797189D01*
X79393032Y-52797189D02*
X79316841Y-52682904D01*
X79316841Y-52682904D02*
X79240651Y-52606713D01*
X79240651Y-52606713D02*
X79164460Y-52568618D01*
X75621604Y-51509234D02*
X75697794Y-51509234D01*
X75697794Y-51509234D02*
X75773985Y-51471139D01*
X75773985Y-51471139D02*
X75812080Y-51433044D01*
X75812080Y-51433044D02*
X75850175Y-51356853D01*
X75850175Y-51356853D02*
X75888270Y-51204472D01*
X75888270Y-51204472D02*
X75888270Y-51013996D01*
X75888270Y-51013996D02*
X75850175Y-50861615D01*
X75850175Y-50861615D02*
X75812080Y-50785425D01*
X75812080Y-50785425D02*
X75773985Y-50747330D01*
X75773985Y-50747330D02*
X75697794Y-50709234D01*
X75697794Y-50709234D02*
X75621604Y-50709234D01*
X75621604Y-50709234D02*
X75545413Y-50747330D01*
X75545413Y-50747330D02*
X75507318Y-50785425D01*
X75507318Y-50785425D02*
X75469223Y-50861615D01*
X75469223Y-50861615D02*
X75431127Y-51013996D01*
X75431127Y-51013996D02*
X75431127Y-51204472D01*
X75431127Y-51204472D02*
X75469223Y-51356853D01*
X75469223Y-51356853D02*
X75507318Y-51433044D01*
X75507318Y-51433044D02*
X75545413Y-51471139D01*
X75545413Y-51471139D02*
X75621604Y-51509234D01*
X76154937Y-51509234D02*
X76650175Y-51509234D01*
X76650175Y-51509234D02*
X76383509Y-51204472D01*
X76383509Y-51204472D02*
X76497794Y-51204472D01*
X76497794Y-51204472D02*
X76573985Y-51166377D01*
X76573985Y-51166377D02*
X76612080Y-51128282D01*
X76612080Y-51128282D02*
X76650175Y-51052091D01*
X76650175Y-51052091D02*
X76650175Y-50861615D01*
X76650175Y-50861615D02*
X76612080Y-50785425D01*
X76612080Y-50785425D02*
X76573985Y-50747330D01*
X76573985Y-50747330D02*
X76497794Y-50709234D01*
X76497794Y-50709234D02*
X76269223Y-50709234D01*
X76269223Y-50709234D02*
X76193032Y-50747330D01*
X76193032Y-50747330D02*
X76154937Y-50785425D01*
X76993033Y-51013996D02*
X77602557Y-51013996D01*
X77983509Y-50709234D02*
X77983509Y-51509234D01*
X78516842Y-51509234D02*
X78669223Y-51509234D01*
X78669223Y-51509234D02*
X78745413Y-51471139D01*
X78745413Y-51471139D02*
X78821604Y-51394949D01*
X78821604Y-51394949D02*
X78859699Y-51242568D01*
X78859699Y-51242568D02*
X78859699Y-50975901D01*
X78859699Y-50975901D02*
X78821604Y-50823520D01*
X78821604Y-50823520D02*
X78745413Y-50747330D01*
X78745413Y-50747330D02*
X78669223Y-50709234D01*
X78669223Y-50709234D02*
X78516842Y-50709234D01*
X78516842Y-50709234D02*
X78440651Y-50747330D01*
X78440651Y-50747330D02*
X78364461Y-50823520D01*
X78364461Y-50823520D02*
X78326365Y-50975901D01*
X78326365Y-50975901D02*
X78326365Y-51242568D01*
X78326365Y-51242568D02*
X78364461Y-51394949D01*
X78364461Y-51394949D02*
X78440651Y-51471139D01*
X78440651Y-51471139D02*
X78516842Y-51509234D01*
X79164460Y-51433044D02*
X79202556Y-51471139D01*
X79202556Y-51471139D02*
X79278746Y-51509234D01*
X79278746Y-51509234D02*
X79469222Y-51509234D01*
X79469222Y-51509234D02*
X79545413Y-51471139D01*
X79545413Y-51471139D02*
X79583508Y-51433044D01*
X79583508Y-51433044D02*
X79621603Y-51356853D01*
X79621603Y-51356853D02*
X79621603Y-51280663D01*
X79621603Y-51280663D02*
X79583508Y-51166377D01*
X79583508Y-51166377D02*
X79126365Y-50709234D01*
X79126365Y-50709234D02*
X79621603Y-50709234D01*
X75621604Y-50221279D02*
X75697794Y-50221279D01*
X75697794Y-50221279D02*
X75773985Y-50183184D01*
X75773985Y-50183184D02*
X75812080Y-50145089D01*
X75812080Y-50145089D02*
X75850175Y-50068898D01*
X75850175Y-50068898D02*
X75888270Y-49916517D01*
X75888270Y-49916517D02*
X75888270Y-49726041D01*
X75888270Y-49726041D02*
X75850175Y-49573660D01*
X75850175Y-49573660D02*
X75812080Y-49497470D01*
X75812080Y-49497470D02*
X75773985Y-49459375D01*
X75773985Y-49459375D02*
X75697794Y-49421279D01*
X75697794Y-49421279D02*
X75621604Y-49421279D01*
X75621604Y-49421279D02*
X75545413Y-49459375D01*
X75545413Y-49459375D02*
X75507318Y-49497470D01*
X75507318Y-49497470D02*
X75469223Y-49573660D01*
X75469223Y-49573660D02*
X75431127Y-49726041D01*
X75431127Y-49726041D02*
X75431127Y-49916517D01*
X75431127Y-49916517D02*
X75469223Y-50068898D01*
X75469223Y-50068898D02*
X75507318Y-50145089D01*
X75507318Y-50145089D02*
X75545413Y-50183184D01*
X75545413Y-50183184D02*
X75621604Y-50221279D01*
X76573985Y-49954613D02*
X76573985Y-49421279D01*
X76383509Y-50259375D02*
X76193032Y-49687946D01*
X76193032Y-49687946D02*
X76688271Y-49687946D01*
X76993033Y-49726041D02*
X77602557Y-49726041D01*
X77983509Y-49421279D02*
X77983509Y-50221279D01*
X78516842Y-50221279D02*
X78669223Y-50221279D01*
X78669223Y-50221279D02*
X78745413Y-50183184D01*
X78745413Y-50183184D02*
X78821604Y-50106994D01*
X78821604Y-50106994D02*
X78859699Y-49954613D01*
X78859699Y-49954613D02*
X78859699Y-49687946D01*
X78859699Y-49687946D02*
X78821604Y-49535565D01*
X78821604Y-49535565D02*
X78745413Y-49459375D01*
X78745413Y-49459375D02*
X78669223Y-49421279D01*
X78669223Y-49421279D02*
X78516842Y-49421279D01*
X78516842Y-49421279D02*
X78440651Y-49459375D01*
X78440651Y-49459375D02*
X78364461Y-49535565D01*
X78364461Y-49535565D02*
X78326365Y-49687946D01*
X78326365Y-49687946D02*
X78326365Y-49954613D01*
X78326365Y-49954613D02*
X78364461Y-50106994D01*
X78364461Y-50106994D02*
X78440651Y-50183184D01*
X78440651Y-50183184D02*
X78516842Y-50221279D01*
X79126365Y-50221279D02*
X79621603Y-50221279D01*
X79621603Y-50221279D02*
X79354937Y-49916517D01*
X79354937Y-49916517D02*
X79469222Y-49916517D01*
X79469222Y-49916517D02*
X79545413Y-49878422D01*
X79545413Y-49878422D02*
X79583508Y-49840327D01*
X79583508Y-49840327D02*
X79621603Y-49764136D01*
X79621603Y-49764136D02*
X79621603Y-49573660D01*
X79621603Y-49573660D02*
X79583508Y-49497470D01*
X79583508Y-49497470D02*
X79545413Y-49459375D01*
X79545413Y-49459375D02*
X79469222Y-49421279D01*
X79469222Y-49421279D02*
X79240651Y-49421279D01*
X79240651Y-49421279D02*
X79164460Y-49459375D01*
X79164460Y-49459375D02*
X79126365Y-49497470D01*
X75621604Y-48933324D02*
X75697794Y-48933324D01*
X75697794Y-48933324D02*
X75773985Y-48895229D01*
X75773985Y-48895229D02*
X75812080Y-48857134D01*
X75812080Y-48857134D02*
X75850175Y-48780943D01*
X75850175Y-48780943D02*
X75888270Y-48628562D01*
X75888270Y-48628562D02*
X75888270Y-48438086D01*
X75888270Y-48438086D02*
X75850175Y-48285705D01*
X75850175Y-48285705D02*
X75812080Y-48209515D01*
X75812080Y-48209515D02*
X75773985Y-48171420D01*
X75773985Y-48171420D02*
X75697794Y-48133324D01*
X75697794Y-48133324D02*
X75621604Y-48133324D01*
X75621604Y-48133324D02*
X75545413Y-48171420D01*
X75545413Y-48171420D02*
X75507318Y-48209515D01*
X75507318Y-48209515D02*
X75469223Y-48285705D01*
X75469223Y-48285705D02*
X75431127Y-48438086D01*
X75431127Y-48438086D02*
X75431127Y-48628562D01*
X75431127Y-48628562D02*
X75469223Y-48780943D01*
X75469223Y-48780943D02*
X75507318Y-48857134D01*
X75507318Y-48857134D02*
X75545413Y-48895229D01*
X75545413Y-48895229D02*
X75621604Y-48933324D01*
X76612080Y-48933324D02*
X76231128Y-48933324D01*
X76231128Y-48933324D02*
X76193032Y-48552372D01*
X76193032Y-48552372D02*
X76231128Y-48590467D01*
X76231128Y-48590467D02*
X76307318Y-48628562D01*
X76307318Y-48628562D02*
X76497794Y-48628562D01*
X76497794Y-48628562D02*
X76573985Y-48590467D01*
X76573985Y-48590467D02*
X76612080Y-48552372D01*
X76612080Y-48552372D02*
X76650175Y-48476181D01*
X76650175Y-48476181D02*
X76650175Y-48285705D01*
X76650175Y-48285705D02*
X76612080Y-48209515D01*
X76612080Y-48209515D02*
X76573985Y-48171420D01*
X76573985Y-48171420D02*
X76497794Y-48133324D01*
X76497794Y-48133324D02*
X76307318Y-48133324D01*
X76307318Y-48133324D02*
X76231128Y-48171420D01*
X76231128Y-48171420D02*
X76193032Y-48209515D01*
X76993033Y-48438086D02*
X77602557Y-48438086D01*
X77983509Y-48133324D02*
X77983509Y-48933324D01*
X78516842Y-48933324D02*
X78669223Y-48933324D01*
X78669223Y-48933324D02*
X78745413Y-48895229D01*
X78745413Y-48895229D02*
X78821604Y-48819039D01*
X78821604Y-48819039D02*
X78859699Y-48666658D01*
X78859699Y-48666658D02*
X78859699Y-48399991D01*
X78859699Y-48399991D02*
X78821604Y-48247610D01*
X78821604Y-48247610D02*
X78745413Y-48171420D01*
X78745413Y-48171420D02*
X78669223Y-48133324D01*
X78669223Y-48133324D02*
X78516842Y-48133324D01*
X78516842Y-48133324D02*
X78440651Y-48171420D01*
X78440651Y-48171420D02*
X78364461Y-48247610D01*
X78364461Y-48247610D02*
X78326365Y-48399991D01*
X78326365Y-48399991D02*
X78326365Y-48666658D01*
X78326365Y-48666658D02*
X78364461Y-48819039D01*
X78364461Y-48819039D02*
X78440651Y-48895229D01*
X78440651Y-48895229D02*
X78516842Y-48933324D01*
X79545413Y-48666658D02*
X79545413Y-48133324D01*
X79354937Y-48971420D02*
X79164460Y-48399991D01*
X79164460Y-48399991D02*
X79659699Y-48399991D01*
X75621604Y-47645369D02*
X75697794Y-47645369D01*
X75697794Y-47645369D02*
X75773985Y-47607274D01*
X75773985Y-47607274D02*
X75812080Y-47569179D01*
X75812080Y-47569179D02*
X75850175Y-47492988D01*
X75850175Y-47492988D02*
X75888270Y-47340607D01*
X75888270Y-47340607D02*
X75888270Y-47150131D01*
X75888270Y-47150131D02*
X75850175Y-46997750D01*
X75850175Y-46997750D02*
X75812080Y-46921560D01*
X75812080Y-46921560D02*
X75773985Y-46883465D01*
X75773985Y-46883465D02*
X75697794Y-46845369D01*
X75697794Y-46845369D02*
X75621604Y-46845369D01*
X75621604Y-46845369D02*
X75545413Y-46883465D01*
X75545413Y-46883465D02*
X75507318Y-46921560D01*
X75507318Y-46921560D02*
X75469223Y-46997750D01*
X75469223Y-46997750D02*
X75431127Y-47150131D01*
X75431127Y-47150131D02*
X75431127Y-47340607D01*
X75431127Y-47340607D02*
X75469223Y-47492988D01*
X75469223Y-47492988D02*
X75507318Y-47569179D01*
X75507318Y-47569179D02*
X75545413Y-47607274D01*
X75545413Y-47607274D02*
X75621604Y-47645369D01*
X76573985Y-47645369D02*
X76421604Y-47645369D01*
X76421604Y-47645369D02*
X76345413Y-47607274D01*
X76345413Y-47607274D02*
X76307318Y-47569179D01*
X76307318Y-47569179D02*
X76231128Y-47454893D01*
X76231128Y-47454893D02*
X76193032Y-47302512D01*
X76193032Y-47302512D02*
X76193032Y-46997750D01*
X76193032Y-46997750D02*
X76231128Y-46921560D01*
X76231128Y-46921560D02*
X76269223Y-46883465D01*
X76269223Y-46883465D02*
X76345413Y-46845369D01*
X76345413Y-46845369D02*
X76497794Y-46845369D01*
X76497794Y-46845369D02*
X76573985Y-46883465D01*
X76573985Y-46883465D02*
X76612080Y-46921560D01*
X76612080Y-46921560D02*
X76650175Y-46997750D01*
X76650175Y-46997750D02*
X76650175Y-47188226D01*
X76650175Y-47188226D02*
X76612080Y-47264417D01*
X76612080Y-47264417D02*
X76573985Y-47302512D01*
X76573985Y-47302512D02*
X76497794Y-47340607D01*
X76497794Y-47340607D02*
X76345413Y-47340607D01*
X76345413Y-47340607D02*
X76269223Y-47302512D01*
X76269223Y-47302512D02*
X76231128Y-47264417D01*
X76231128Y-47264417D02*
X76193032Y-47188226D01*
X76993033Y-47150131D02*
X77602557Y-47150131D01*
X77983509Y-46845369D02*
X77983509Y-47645369D01*
X78516842Y-47645369D02*
X78669223Y-47645369D01*
X78669223Y-47645369D02*
X78745413Y-47607274D01*
X78745413Y-47607274D02*
X78821604Y-47531084D01*
X78821604Y-47531084D02*
X78859699Y-47378703D01*
X78859699Y-47378703D02*
X78859699Y-47112036D01*
X78859699Y-47112036D02*
X78821604Y-46959655D01*
X78821604Y-46959655D02*
X78745413Y-46883465D01*
X78745413Y-46883465D02*
X78669223Y-46845369D01*
X78669223Y-46845369D02*
X78516842Y-46845369D01*
X78516842Y-46845369D02*
X78440651Y-46883465D01*
X78440651Y-46883465D02*
X78364461Y-46959655D01*
X78364461Y-46959655D02*
X78326365Y-47112036D01*
X78326365Y-47112036D02*
X78326365Y-47378703D01*
X78326365Y-47378703D02*
X78364461Y-47531084D01*
X78364461Y-47531084D02*
X78440651Y-47607274D01*
X78440651Y-47607274D02*
X78516842Y-47645369D01*
X79583508Y-47645369D02*
X79202556Y-47645369D01*
X79202556Y-47645369D02*
X79164460Y-47264417D01*
X79164460Y-47264417D02*
X79202556Y-47302512D01*
X79202556Y-47302512D02*
X79278746Y-47340607D01*
X79278746Y-47340607D02*
X79469222Y-47340607D01*
X79469222Y-47340607D02*
X79545413Y-47302512D01*
X79545413Y-47302512D02*
X79583508Y-47264417D01*
X79583508Y-47264417D02*
X79621603Y-47188226D01*
X79621603Y-47188226D02*
X79621603Y-46997750D01*
X79621603Y-46997750D02*
X79583508Y-46921560D01*
X79583508Y-46921560D02*
X79545413Y-46883465D01*
X79545413Y-46883465D02*
X79469222Y-46845369D01*
X79469222Y-46845369D02*
X79278746Y-46845369D01*
X79278746Y-46845369D02*
X79202556Y-46883465D01*
X79202556Y-46883465D02*
X79164460Y-46921560D01*
X75621604Y-46357414D02*
X75697794Y-46357414D01*
X75697794Y-46357414D02*
X75773985Y-46319319D01*
X75773985Y-46319319D02*
X75812080Y-46281224D01*
X75812080Y-46281224D02*
X75850175Y-46205033D01*
X75850175Y-46205033D02*
X75888270Y-46052652D01*
X75888270Y-46052652D02*
X75888270Y-45862176D01*
X75888270Y-45862176D02*
X75850175Y-45709795D01*
X75850175Y-45709795D02*
X75812080Y-45633605D01*
X75812080Y-45633605D02*
X75773985Y-45595510D01*
X75773985Y-45595510D02*
X75697794Y-45557414D01*
X75697794Y-45557414D02*
X75621604Y-45557414D01*
X75621604Y-45557414D02*
X75545413Y-45595510D01*
X75545413Y-45595510D02*
X75507318Y-45633605D01*
X75507318Y-45633605D02*
X75469223Y-45709795D01*
X75469223Y-45709795D02*
X75431127Y-45862176D01*
X75431127Y-45862176D02*
X75431127Y-46052652D01*
X75431127Y-46052652D02*
X75469223Y-46205033D01*
X75469223Y-46205033D02*
X75507318Y-46281224D01*
X75507318Y-46281224D02*
X75545413Y-46319319D01*
X75545413Y-46319319D02*
X75621604Y-46357414D01*
X76154937Y-46357414D02*
X76688271Y-46357414D01*
X76688271Y-46357414D02*
X76345413Y-45557414D01*
X76993033Y-45862176D02*
X77602557Y-45862176D01*
X77983509Y-45557414D02*
X77983509Y-46357414D01*
X78516842Y-46357414D02*
X78669223Y-46357414D01*
X78669223Y-46357414D02*
X78745413Y-46319319D01*
X78745413Y-46319319D02*
X78821604Y-46243129D01*
X78821604Y-46243129D02*
X78859699Y-46090748D01*
X78859699Y-46090748D02*
X78859699Y-45824081D01*
X78859699Y-45824081D02*
X78821604Y-45671700D01*
X78821604Y-45671700D02*
X78745413Y-45595510D01*
X78745413Y-45595510D02*
X78669223Y-45557414D01*
X78669223Y-45557414D02*
X78516842Y-45557414D01*
X78516842Y-45557414D02*
X78440651Y-45595510D01*
X78440651Y-45595510D02*
X78364461Y-45671700D01*
X78364461Y-45671700D02*
X78326365Y-45824081D01*
X78326365Y-45824081D02*
X78326365Y-46090748D01*
X78326365Y-46090748D02*
X78364461Y-46243129D01*
X78364461Y-46243129D02*
X78440651Y-46319319D01*
X78440651Y-46319319D02*
X78516842Y-46357414D01*
X79545413Y-46357414D02*
X79393032Y-46357414D01*
X79393032Y-46357414D02*
X79316841Y-46319319D01*
X79316841Y-46319319D02*
X79278746Y-46281224D01*
X79278746Y-46281224D02*
X79202556Y-46166938D01*
X79202556Y-46166938D02*
X79164460Y-46014557D01*
X79164460Y-46014557D02*
X79164460Y-45709795D01*
X79164460Y-45709795D02*
X79202556Y-45633605D01*
X79202556Y-45633605D02*
X79240651Y-45595510D01*
X79240651Y-45595510D02*
X79316841Y-45557414D01*
X79316841Y-45557414D02*
X79469222Y-45557414D01*
X79469222Y-45557414D02*
X79545413Y-45595510D01*
X79545413Y-45595510D02*
X79583508Y-45633605D01*
X79583508Y-45633605D02*
X79621603Y-45709795D01*
X79621603Y-45709795D02*
X79621603Y-45900271D01*
X79621603Y-45900271D02*
X79583508Y-45976462D01*
X79583508Y-45976462D02*
X79545413Y-46014557D01*
X79545413Y-46014557D02*
X79469222Y-46052652D01*
X79469222Y-46052652D02*
X79316841Y-46052652D01*
X79316841Y-46052652D02*
X79240651Y-46014557D01*
X79240651Y-46014557D02*
X79202556Y-45976462D01*
X79202556Y-45976462D02*
X79164460Y-45900271D01*
X75621604Y-45069459D02*
X75697794Y-45069459D01*
X75697794Y-45069459D02*
X75773985Y-45031364D01*
X75773985Y-45031364D02*
X75812080Y-44993269D01*
X75812080Y-44993269D02*
X75850175Y-44917078D01*
X75850175Y-44917078D02*
X75888270Y-44764697D01*
X75888270Y-44764697D02*
X75888270Y-44574221D01*
X75888270Y-44574221D02*
X75850175Y-44421840D01*
X75850175Y-44421840D02*
X75812080Y-44345650D01*
X75812080Y-44345650D02*
X75773985Y-44307555D01*
X75773985Y-44307555D02*
X75697794Y-44269459D01*
X75697794Y-44269459D02*
X75621604Y-44269459D01*
X75621604Y-44269459D02*
X75545413Y-44307555D01*
X75545413Y-44307555D02*
X75507318Y-44345650D01*
X75507318Y-44345650D02*
X75469223Y-44421840D01*
X75469223Y-44421840D02*
X75431127Y-44574221D01*
X75431127Y-44574221D02*
X75431127Y-44764697D01*
X75431127Y-44764697D02*
X75469223Y-44917078D01*
X75469223Y-44917078D02*
X75507318Y-44993269D01*
X75507318Y-44993269D02*
X75545413Y-45031364D01*
X75545413Y-45031364D02*
X75621604Y-45069459D01*
X76345413Y-44726602D02*
X76269223Y-44764697D01*
X76269223Y-44764697D02*
X76231128Y-44802793D01*
X76231128Y-44802793D02*
X76193032Y-44878983D01*
X76193032Y-44878983D02*
X76193032Y-44917078D01*
X76193032Y-44917078D02*
X76231128Y-44993269D01*
X76231128Y-44993269D02*
X76269223Y-45031364D01*
X76269223Y-45031364D02*
X76345413Y-45069459D01*
X76345413Y-45069459D02*
X76497794Y-45069459D01*
X76497794Y-45069459D02*
X76573985Y-45031364D01*
X76573985Y-45031364D02*
X76612080Y-44993269D01*
X76612080Y-44993269D02*
X76650175Y-44917078D01*
X76650175Y-44917078D02*
X76650175Y-44878983D01*
X76650175Y-44878983D02*
X76612080Y-44802793D01*
X76612080Y-44802793D02*
X76573985Y-44764697D01*
X76573985Y-44764697D02*
X76497794Y-44726602D01*
X76497794Y-44726602D02*
X76345413Y-44726602D01*
X76345413Y-44726602D02*
X76269223Y-44688507D01*
X76269223Y-44688507D02*
X76231128Y-44650412D01*
X76231128Y-44650412D02*
X76193032Y-44574221D01*
X76193032Y-44574221D02*
X76193032Y-44421840D01*
X76193032Y-44421840D02*
X76231128Y-44345650D01*
X76231128Y-44345650D02*
X76269223Y-44307555D01*
X76269223Y-44307555D02*
X76345413Y-44269459D01*
X76345413Y-44269459D02*
X76497794Y-44269459D01*
X76497794Y-44269459D02*
X76573985Y-44307555D01*
X76573985Y-44307555D02*
X76612080Y-44345650D01*
X76612080Y-44345650D02*
X76650175Y-44421840D01*
X76650175Y-44421840D02*
X76650175Y-44574221D01*
X76650175Y-44574221D02*
X76612080Y-44650412D01*
X76612080Y-44650412D02*
X76573985Y-44688507D01*
X76573985Y-44688507D02*
X76497794Y-44726602D01*
X76993033Y-44574221D02*
X77602557Y-44574221D01*
X77983509Y-44269459D02*
X77983509Y-45069459D01*
X78516842Y-45069459D02*
X78669223Y-45069459D01*
X78669223Y-45069459D02*
X78745413Y-45031364D01*
X78745413Y-45031364D02*
X78821604Y-44955174D01*
X78821604Y-44955174D02*
X78859699Y-44802793D01*
X78859699Y-44802793D02*
X78859699Y-44536126D01*
X78859699Y-44536126D02*
X78821604Y-44383745D01*
X78821604Y-44383745D02*
X78745413Y-44307555D01*
X78745413Y-44307555D02*
X78669223Y-44269459D01*
X78669223Y-44269459D02*
X78516842Y-44269459D01*
X78516842Y-44269459D02*
X78440651Y-44307555D01*
X78440651Y-44307555D02*
X78364461Y-44383745D01*
X78364461Y-44383745D02*
X78326365Y-44536126D01*
X78326365Y-44536126D02*
X78326365Y-44802793D01*
X78326365Y-44802793D02*
X78364461Y-44955174D01*
X78364461Y-44955174D02*
X78440651Y-45031364D01*
X78440651Y-45031364D02*
X78516842Y-45069459D01*
X79126365Y-45069459D02*
X79659699Y-45069459D01*
X79659699Y-45069459D02*
X79316841Y-44269459D01*
X75621604Y-43781504D02*
X75697794Y-43781504D01*
X75697794Y-43781504D02*
X75773985Y-43743409D01*
X75773985Y-43743409D02*
X75812080Y-43705314D01*
X75812080Y-43705314D02*
X75850175Y-43629123D01*
X75850175Y-43629123D02*
X75888270Y-43476742D01*
X75888270Y-43476742D02*
X75888270Y-43286266D01*
X75888270Y-43286266D02*
X75850175Y-43133885D01*
X75850175Y-43133885D02*
X75812080Y-43057695D01*
X75812080Y-43057695D02*
X75773985Y-43019600D01*
X75773985Y-43019600D02*
X75697794Y-42981504D01*
X75697794Y-42981504D02*
X75621604Y-42981504D01*
X75621604Y-42981504D02*
X75545413Y-43019600D01*
X75545413Y-43019600D02*
X75507318Y-43057695D01*
X75507318Y-43057695D02*
X75469223Y-43133885D01*
X75469223Y-43133885D02*
X75431127Y-43286266D01*
X75431127Y-43286266D02*
X75431127Y-43476742D01*
X75431127Y-43476742D02*
X75469223Y-43629123D01*
X75469223Y-43629123D02*
X75507318Y-43705314D01*
X75507318Y-43705314D02*
X75545413Y-43743409D01*
X75545413Y-43743409D02*
X75621604Y-43781504D01*
X76269223Y-42981504D02*
X76421604Y-42981504D01*
X76421604Y-42981504D02*
X76497794Y-43019600D01*
X76497794Y-43019600D02*
X76535890Y-43057695D01*
X76535890Y-43057695D02*
X76612080Y-43171980D01*
X76612080Y-43171980D02*
X76650175Y-43324361D01*
X76650175Y-43324361D02*
X76650175Y-43629123D01*
X76650175Y-43629123D02*
X76612080Y-43705314D01*
X76612080Y-43705314D02*
X76573985Y-43743409D01*
X76573985Y-43743409D02*
X76497794Y-43781504D01*
X76497794Y-43781504D02*
X76345413Y-43781504D01*
X76345413Y-43781504D02*
X76269223Y-43743409D01*
X76269223Y-43743409D02*
X76231128Y-43705314D01*
X76231128Y-43705314D02*
X76193032Y-43629123D01*
X76193032Y-43629123D02*
X76193032Y-43438647D01*
X76193032Y-43438647D02*
X76231128Y-43362457D01*
X76231128Y-43362457D02*
X76269223Y-43324361D01*
X76269223Y-43324361D02*
X76345413Y-43286266D01*
X76345413Y-43286266D02*
X76497794Y-43286266D01*
X76497794Y-43286266D02*
X76573985Y-43324361D01*
X76573985Y-43324361D02*
X76612080Y-43362457D01*
X76612080Y-43362457D02*
X76650175Y-43438647D01*
X76993033Y-43286266D02*
X77602557Y-43286266D01*
X77945413Y-43019600D02*
X78059699Y-42981504D01*
X78059699Y-42981504D02*
X78250175Y-42981504D01*
X78250175Y-42981504D02*
X78326366Y-43019600D01*
X78326366Y-43019600D02*
X78364461Y-43057695D01*
X78364461Y-43057695D02*
X78402556Y-43133885D01*
X78402556Y-43133885D02*
X78402556Y-43210076D01*
X78402556Y-43210076D02*
X78364461Y-43286266D01*
X78364461Y-43286266D02*
X78326366Y-43324361D01*
X78326366Y-43324361D02*
X78250175Y-43362457D01*
X78250175Y-43362457D02*
X78097794Y-43400552D01*
X78097794Y-43400552D02*
X78021604Y-43438647D01*
X78021604Y-43438647D02*
X77983509Y-43476742D01*
X77983509Y-43476742D02*
X77945413Y-43552933D01*
X77945413Y-43552933D02*
X77945413Y-43629123D01*
X77945413Y-43629123D02*
X77983509Y-43705314D01*
X77983509Y-43705314D02*
X78021604Y-43743409D01*
X78021604Y-43743409D02*
X78097794Y-43781504D01*
X78097794Y-43781504D02*
X78288271Y-43781504D01*
X78288271Y-43781504D02*
X78402556Y-43743409D01*
X78745414Y-42981504D02*
X78745414Y-43781504D01*
X78745414Y-43781504D02*
X78935890Y-43781504D01*
X78935890Y-43781504D02*
X79050176Y-43743409D01*
X79050176Y-43743409D02*
X79126366Y-43667219D01*
X79126366Y-43667219D02*
X79164461Y-43591028D01*
X79164461Y-43591028D02*
X79202557Y-43438647D01*
X79202557Y-43438647D02*
X79202557Y-43324361D01*
X79202557Y-43324361D02*
X79164461Y-43171980D01*
X79164461Y-43171980D02*
X79126366Y-43095790D01*
X79126366Y-43095790D02*
X79050176Y-43019600D01*
X79050176Y-43019600D02*
X78935890Y-42981504D01*
X78935890Y-42981504D02*
X78745414Y-42981504D01*
X79469223Y-43781504D02*
X79964461Y-43781504D01*
X79964461Y-43781504D02*
X79697795Y-43476742D01*
X79697795Y-43476742D02*
X79812080Y-43476742D01*
X79812080Y-43476742D02*
X79888271Y-43438647D01*
X79888271Y-43438647D02*
X79926366Y-43400552D01*
X79926366Y-43400552D02*
X79964461Y-43324361D01*
X79964461Y-43324361D02*
X79964461Y-43133885D01*
X79964461Y-43133885D02*
X79926366Y-43057695D01*
X79926366Y-43057695D02*
X79888271Y-43019600D01*
X79888271Y-43019600D02*
X79812080Y-42981504D01*
X79812080Y-42981504D02*
X79583509Y-42981504D01*
X79583509Y-42981504D02*
X79507318Y-43019600D01*
X79507318Y-43019600D02*
X79469223Y-43057695D01*
X75888270Y-41693549D02*
X75431127Y-41693549D01*
X75659699Y-41693549D02*
X75659699Y-42493549D01*
X75659699Y-42493549D02*
X75583508Y-42379264D01*
X75583508Y-42379264D02*
X75507318Y-42303073D01*
X75507318Y-42303073D02*
X75431127Y-42264978D01*
X76383509Y-42493549D02*
X76459699Y-42493549D01*
X76459699Y-42493549D02*
X76535890Y-42455454D01*
X76535890Y-42455454D02*
X76573985Y-42417359D01*
X76573985Y-42417359D02*
X76612080Y-42341168D01*
X76612080Y-42341168D02*
X76650175Y-42188787D01*
X76650175Y-42188787D02*
X76650175Y-41998311D01*
X76650175Y-41998311D02*
X76612080Y-41845930D01*
X76612080Y-41845930D02*
X76573985Y-41769740D01*
X76573985Y-41769740D02*
X76535890Y-41731645D01*
X76535890Y-41731645D02*
X76459699Y-41693549D01*
X76459699Y-41693549D02*
X76383509Y-41693549D01*
X76383509Y-41693549D02*
X76307318Y-41731645D01*
X76307318Y-41731645D02*
X76269223Y-41769740D01*
X76269223Y-41769740D02*
X76231128Y-41845930D01*
X76231128Y-41845930D02*
X76193032Y-41998311D01*
X76193032Y-41998311D02*
X76193032Y-42188787D01*
X76193032Y-42188787D02*
X76231128Y-42341168D01*
X76231128Y-42341168D02*
X76269223Y-42417359D01*
X76269223Y-42417359D02*
X76307318Y-42455454D01*
X76307318Y-42455454D02*
X76383509Y-42493549D01*
X76993033Y-41998311D02*
X77602557Y-41998311D01*
X78440652Y-41769740D02*
X78402556Y-41731645D01*
X78402556Y-41731645D02*
X78288271Y-41693549D01*
X78288271Y-41693549D02*
X78212080Y-41693549D01*
X78212080Y-41693549D02*
X78097794Y-41731645D01*
X78097794Y-41731645D02*
X78021604Y-41807835D01*
X78021604Y-41807835D02*
X77983509Y-41884025D01*
X77983509Y-41884025D02*
X77945413Y-42036406D01*
X77945413Y-42036406D02*
X77945413Y-42150692D01*
X77945413Y-42150692D02*
X77983509Y-42303073D01*
X77983509Y-42303073D02*
X78021604Y-42379264D01*
X78021604Y-42379264D02*
X78097794Y-42455454D01*
X78097794Y-42455454D02*
X78212080Y-42493549D01*
X78212080Y-42493549D02*
X78288271Y-42493549D01*
X78288271Y-42493549D02*
X78402556Y-42455454D01*
X78402556Y-42455454D02*
X78440652Y-42417359D01*
X78783509Y-41693549D02*
X78783509Y-42493549D01*
X79240652Y-41693549D02*
X78897794Y-42150692D01*
X79240652Y-42493549D02*
X78783509Y-42036406D01*
X79507318Y-42493549D02*
X80002556Y-42493549D01*
X80002556Y-42493549D02*
X79735890Y-42188787D01*
X79735890Y-42188787D02*
X79850175Y-42188787D01*
X79850175Y-42188787D02*
X79926366Y-42150692D01*
X79926366Y-42150692D02*
X79964461Y-42112597D01*
X79964461Y-42112597D02*
X80002556Y-42036406D01*
X80002556Y-42036406D02*
X80002556Y-41845930D01*
X80002556Y-41845930D02*
X79964461Y-41769740D01*
X79964461Y-41769740D02*
X79926366Y-41731645D01*
X79926366Y-41731645D02*
X79850175Y-41693549D01*
X79850175Y-41693549D02*
X79621604Y-41693549D01*
X79621604Y-41693549D02*
X79545413Y-41731645D01*
X79545413Y-41731645D02*
X79507318Y-41769740D01*
X75888270Y-40405594D02*
X75431127Y-40405594D01*
X75659699Y-40405594D02*
X75659699Y-41205594D01*
X75659699Y-41205594D02*
X75583508Y-41091309D01*
X75583508Y-41091309D02*
X75507318Y-41015118D01*
X75507318Y-41015118D02*
X75431127Y-40977023D01*
X76650175Y-40405594D02*
X76193032Y-40405594D01*
X76421604Y-40405594D02*
X76421604Y-41205594D01*
X76421604Y-41205594D02*
X76345413Y-41091309D01*
X76345413Y-41091309D02*
X76269223Y-41015118D01*
X76269223Y-41015118D02*
X76193032Y-40977023D01*
X76993033Y-40710356D02*
X77602557Y-40710356D01*
X77907318Y-41205594D02*
X78097794Y-40405594D01*
X78097794Y-40405594D02*
X78250175Y-40977023D01*
X78250175Y-40977023D02*
X78402556Y-40405594D01*
X78402556Y-40405594D02*
X78593033Y-41205594D01*
X78859699Y-40443690D02*
X78973985Y-40405594D01*
X78973985Y-40405594D02*
X79164461Y-40405594D01*
X79164461Y-40405594D02*
X79240652Y-40443690D01*
X79240652Y-40443690D02*
X79278747Y-40481785D01*
X79278747Y-40481785D02*
X79316842Y-40557975D01*
X79316842Y-40557975D02*
X79316842Y-40634166D01*
X79316842Y-40634166D02*
X79278747Y-40710356D01*
X79278747Y-40710356D02*
X79240652Y-40748451D01*
X79240652Y-40748451D02*
X79164461Y-40786547D01*
X79164461Y-40786547D02*
X79012080Y-40824642D01*
X79012080Y-40824642D02*
X78935890Y-40862737D01*
X78935890Y-40862737D02*
X78897795Y-40900832D01*
X78897795Y-40900832D02*
X78859699Y-40977023D01*
X78859699Y-40977023D02*
X78859699Y-41053213D01*
X78859699Y-41053213D02*
X78897795Y-41129404D01*
X78897795Y-41129404D02*
X78935890Y-41167499D01*
X78935890Y-41167499D02*
X79012080Y-41205594D01*
X79012080Y-41205594D02*
X79202557Y-41205594D01*
X79202557Y-41205594D02*
X79316842Y-41167499D01*
X79583509Y-41205594D02*
X80078747Y-41205594D01*
X80078747Y-41205594D02*
X79812081Y-40900832D01*
X79812081Y-40900832D02*
X79926366Y-40900832D01*
X79926366Y-40900832D02*
X80002557Y-40862737D01*
X80002557Y-40862737D02*
X80040652Y-40824642D01*
X80040652Y-40824642D02*
X80078747Y-40748451D01*
X80078747Y-40748451D02*
X80078747Y-40557975D01*
X80078747Y-40557975D02*
X80040652Y-40481785D01*
X80040652Y-40481785D02*
X80002557Y-40443690D01*
X80002557Y-40443690D02*
X79926366Y-40405594D01*
X79926366Y-40405594D02*
X79697795Y-40405594D01*
X79697795Y-40405594D02*
X79621604Y-40443690D01*
X79621604Y-40443690D02*
X79583509Y-40481785D01*
X75888270Y-39117639D02*
X75431127Y-39117639D01*
X75659699Y-39117639D02*
X75659699Y-39917639D01*
X75659699Y-39917639D02*
X75583508Y-39803354D01*
X75583508Y-39803354D02*
X75507318Y-39727163D01*
X75507318Y-39727163D02*
X75431127Y-39689068D01*
X76193032Y-39841449D02*
X76231128Y-39879544D01*
X76231128Y-39879544D02*
X76307318Y-39917639D01*
X76307318Y-39917639D02*
X76497794Y-39917639D01*
X76497794Y-39917639D02*
X76573985Y-39879544D01*
X76573985Y-39879544D02*
X76612080Y-39841449D01*
X76612080Y-39841449D02*
X76650175Y-39765258D01*
X76650175Y-39765258D02*
X76650175Y-39689068D01*
X76650175Y-39689068D02*
X76612080Y-39574782D01*
X76612080Y-39574782D02*
X76154937Y-39117639D01*
X76154937Y-39117639D02*
X76650175Y-39117639D01*
X76993033Y-39422401D02*
X77602557Y-39422401D01*
X78402556Y-39879544D02*
X78326366Y-39917639D01*
X78326366Y-39917639D02*
X78212080Y-39917639D01*
X78212080Y-39917639D02*
X78097794Y-39879544D01*
X78097794Y-39879544D02*
X78021604Y-39803354D01*
X78021604Y-39803354D02*
X77983509Y-39727163D01*
X77983509Y-39727163D02*
X77945413Y-39574782D01*
X77945413Y-39574782D02*
X77945413Y-39460496D01*
X77945413Y-39460496D02*
X77983509Y-39308115D01*
X77983509Y-39308115D02*
X78021604Y-39231925D01*
X78021604Y-39231925D02*
X78097794Y-39155735D01*
X78097794Y-39155735D02*
X78212080Y-39117639D01*
X78212080Y-39117639D02*
X78288271Y-39117639D01*
X78288271Y-39117639D02*
X78402556Y-39155735D01*
X78402556Y-39155735D02*
X78440652Y-39193830D01*
X78440652Y-39193830D02*
X78440652Y-39460496D01*
X78440652Y-39460496D02*
X78288271Y-39460496D01*
X78783509Y-39117639D02*
X78783509Y-39917639D01*
X78783509Y-39917639D02*
X79240652Y-39117639D01*
X79240652Y-39117639D02*
X79240652Y-39917639D01*
X79621604Y-39117639D02*
X79621604Y-39917639D01*
X79621604Y-39917639D02*
X79812080Y-39917639D01*
X79812080Y-39917639D02*
X79926366Y-39879544D01*
X79926366Y-39879544D02*
X80002556Y-39803354D01*
X80002556Y-39803354D02*
X80040651Y-39727163D01*
X80040651Y-39727163D02*
X80078747Y-39574782D01*
X80078747Y-39574782D02*
X80078747Y-39460496D01*
X80078747Y-39460496D02*
X80040651Y-39308115D01*
X80040651Y-39308115D02*
X80002556Y-39231925D01*
X80002556Y-39231925D02*
X79926366Y-39155735D01*
X79926366Y-39155735D02*
X79812080Y-39117639D01*
X79812080Y-39117639D02*
X79621604Y-39117639D01*
D10*
X80213200Y-54717000D02*
X74599800Y-54717000D01*
X74599800Y-38816600D01*
X80213200Y-38816600D01*
X80213200Y-54717000D01*
D11*
X60031743Y-57536329D02*
X60031743Y-57993472D01*
X60031743Y-57764900D02*
X60831743Y-57764900D01*
X60831743Y-57764900D02*
X60717458Y-57841091D01*
X60717458Y-57841091D02*
X60641267Y-57917281D01*
X60641267Y-57917281D02*
X60603172Y-57993472D01*
X60336505Y-57193471D02*
X60336505Y-56583948D01*
X60831743Y-56317281D02*
X60031743Y-56050614D01*
X60031743Y-56050614D02*
X60831743Y-55783948D01*
X60031743Y-55098234D02*
X60031743Y-55555377D01*
X60031743Y-55326805D02*
X60831743Y-55326805D01*
X60831743Y-55326805D02*
X60717458Y-55402996D01*
X60717458Y-55402996D02*
X60641267Y-55479186D01*
X60641267Y-55479186D02*
X60603172Y-55555377D01*
X59467598Y-57993472D02*
X59505693Y-57955376D01*
X59505693Y-57955376D02*
X59543788Y-57879186D01*
X59543788Y-57879186D02*
X59543788Y-57688710D01*
X59543788Y-57688710D02*
X59505693Y-57612519D01*
X59505693Y-57612519D02*
X59467598Y-57574424D01*
X59467598Y-57574424D02*
X59391407Y-57536329D01*
X59391407Y-57536329D02*
X59315217Y-57536329D01*
X59315217Y-57536329D02*
X59200931Y-57574424D01*
X59200931Y-57574424D02*
X58743788Y-58031567D01*
X58743788Y-58031567D02*
X58743788Y-57536329D01*
X59048550Y-57193471D02*
X59048550Y-56583948D01*
X59543788Y-56317281D02*
X59543788Y-55860138D01*
X58743788Y-56088710D02*
X59543788Y-56088710D01*
X59543788Y-55669662D02*
X58743788Y-55136328D01*
X59543788Y-55136328D02*
X58743788Y-55669662D01*
X58743788Y-54831566D02*
X59543788Y-54831566D01*
X59543788Y-54831566D02*
X59543788Y-54641090D01*
X59543788Y-54641090D02*
X59505693Y-54526804D01*
X59505693Y-54526804D02*
X59429503Y-54450614D01*
X59429503Y-54450614D02*
X59353312Y-54412519D01*
X59353312Y-54412519D02*
X59200931Y-54374423D01*
X59200931Y-54374423D02*
X59086645Y-54374423D01*
X59086645Y-54374423D02*
X58934264Y-54412519D01*
X58934264Y-54412519D02*
X58858074Y-54450614D01*
X58858074Y-54450614D02*
X58781884Y-54526804D01*
X58781884Y-54526804D02*
X58743788Y-54641090D01*
X58743788Y-54641090D02*
X58743788Y-54831566D01*
X58743788Y-53612519D02*
X58743788Y-54069662D01*
X58743788Y-53841090D02*
X59543788Y-53841090D01*
X59543788Y-53841090D02*
X59429503Y-53917281D01*
X59429503Y-53917281D02*
X59353312Y-53993471D01*
X59353312Y-53993471D02*
X59315217Y-54069662D01*
X58255833Y-58031567D02*
X58255833Y-57536329D01*
X58255833Y-57536329D02*
X57951071Y-57802995D01*
X57951071Y-57802995D02*
X57951071Y-57688710D01*
X57951071Y-57688710D02*
X57912976Y-57612519D01*
X57912976Y-57612519D02*
X57874881Y-57574424D01*
X57874881Y-57574424D02*
X57798690Y-57536329D01*
X57798690Y-57536329D02*
X57608214Y-57536329D01*
X57608214Y-57536329D02*
X57532024Y-57574424D01*
X57532024Y-57574424D02*
X57493929Y-57612519D01*
X57493929Y-57612519D02*
X57455833Y-57688710D01*
X57455833Y-57688710D02*
X57455833Y-57917281D01*
X57455833Y-57917281D02*
X57493929Y-57993472D01*
X57493929Y-57993472D02*
X57532024Y-58031567D01*
X57760595Y-57193471D02*
X57760595Y-56583948D01*
X57455833Y-55745852D02*
X57836786Y-56012519D01*
X57455833Y-56202995D02*
X58255833Y-56202995D01*
X58255833Y-56202995D02*
X58255833Y-55898233D01*
X58255833Y-55898233D02*
X58217738Y-55822043D01*
X58217738Y-55822043D02*
X58179643Y-55783948D01*
X58179643Y-55783948D02*
X58103452Y-55745852D01*
X58103452Y-55745852D02*
X57989167Y-55745852D01*
X57989167Y-55745852D02*
X57912976Y-55783948D01*
X57912976Y-55783948D02*
X57874881Y-55822043D01*
X57874881Y-55822043D02*
X57836786Y-55898233D01*
X57836786Y-55898233D02*
X57836786Y-56202995D01*
X58255833Y-55479186D02*
X57455833Y-54945852D01*
X58255833Y-54945852D02*
X57455833Y-55479186D01*
X57455833Y-54641090D02*
X58255833Y-54641090D01*
X58255833Y-54641090D02*
X58255833Y-54450614D01*
X58255833Y-54450614D02*
X58217738Y-54336328D01*
X58217738Y-54336328D02*
X58141548Y-54260138D01*
X58141548Y-54260138D02*
X58065357Y-54222043D01*
X58065357Y-54222043D02*
X57912976Y-54183947D01*
X57912976Y-54183947D02*
X57798690Y-54183947D01*
X57798690Y-54183947D02*
X57646309Y-54222043D01*
X57646309Y-54222043D02*
X57570119Y-54260138D01*
X57570119Y-54260138D02*
X57493929Y-54336328D01*
X57493929Y-54336328D02*
X57455833Y-54450614D01*
X57455833Y-54450614D02*
X57455833Y-54641090D01*
X57455833Y-53422043D02*
X57455833Y-53879186D01*
X57455833Y-53650614D02*
X58255833Y-53650614D01*
X58255833Y-53650614D02*
X58141548Y-53726805D01*
X58141548Y-53726805D02*
X58065357Y-53802995D01*
X58065357Y-53802995D02*
X58027262Y-53879186D01*
X56701212Y-57612519D02*
X56167878Y-57612519D01*
X57005974Y-57802995D02*
X56434545Y-57993472D01*
X56434545Y-57993472D02*
X56434545Y-57498233D01*
X56472640Y-57193471D02*
X56472640Y-56583948D01*
X56967878Y-56317281D02*
X56967878Y-55860138D01*
X56167878Y-56088710D02*
X56967878Y-56088710D01*
X56967878Y-55669662D02*
X56167878Y-55136328D01*
X56967878Y-55136328D02*
X56167878Y-55669662D01*
X56167878Y-54831566D02*
X56967878Y-54831566D01*
X56967878Y-54831566D02*
X56967878Y-54641090D01*
X56967878Y-54641090D02*
X56929783Y-54526804D01*
X56929783Y-54526804D02*
X56853593Y-54450614D01*
X56853593Y-54450614D02*
X56777402Y-54412519D01*
X56777402Y-54412519D02*
X56625021Y-54374423D01*
X56625021Y-54374423D02*
X56510735Y-54374423D01*
X56510735Y-54374423D02*
X56358354Y-54412519D01*
X56358354Y-54412519D02*
X56282164Y-54450614D01*
X56282164Y-54450614D02*
X56205974Y-54526804D01*
X56205974Y-54526804D02*
X56167878Y-54641090D01*
X56167878Y-54641090D02*
X56167878Y-54831566D01*
X56891688Y-54069662D02*
X56929783Y-54031566D01*
X56929783Y-54031566D02*
X56967878Y-53955376D01*
X56967878Y-53955376D02*
X56967878Y-53764900D01*
X56967878Y-53764900D02*
X56929783Y-53688709D01*
X56929783Y-53688709D02*
X56891688Y-53650614D01*
X56891688Y-53650614D02*
X56815497Y-53612519D01*
X56815497Y-53612519D02*
X56739307Y-53612519D01*
X56739307Y-53612519D02*
X56625021Y-53650614D01*
X56625021Y-53650614D02*
X56167878Y-54107757D01*
X56167878Y-54107757D02*
X56167878Y-53612519D01*
X55679923Y-57574424D02*
X55679923Y-57955376D01*
X55679923Y-57955376D02*
X55298971Y-57993472D01*
X55298971Y-57993472D02*
X55337066Y-57955376D01*
X55337066Y-57955376D02*
X55375161Y-57879186D01*
X55375161Y-57879186D02*
X55375161Y-57688710D01*
X55375161Y-57688710D02*
X55337066Y-57612519D01*
X55337066Y-57612519D02*
X55298971Y-57574424D01*
X55298971Y-57574424D02*
X55222780Y-57536329D01*
X55222780Y-57536329D02*
X55032304Y-57536329D01*
X55032304Y-57536329D02*
X54956114Y-57574424D01*
X54956114Y-57574424D02*
X54918019Y-57612519D01*
X54918019Y-57612519D02*
X54879923Y-57688710D01*
X54879923Y-57688710D02*
X54879923Y-57879186D01*
X54879923Y-57879186D02*
X54918019Y-57955376D01*
X54918019Y-57955376D02*
X54956114Y-57993472D01*
X55184685Y-57193471D02*
X55184685Y-56583948D01*
X54879923Y-55745852D02*
X55260876Y-56012519D01*
X54879923Y-56202995D02*
X55679923Y-56202995D01*
X55679923Y-56202995D02*
X55679923Y-55898233D01*
X55679923Y-55898233D02*
X55641828Y-55822043D01*
X55641828Y-55822043D02*
X55603733Y-55783948D01*
X55603733Y-55783948D02*
X55527542Y-55745852D01*
X55527542Y-55745852D02*
X55413257Y-55745852D01*
X55413257Y-55745852D02*
X55337066Y-55783948D01*
X55337066Y-55783948D02*
X55298971Y-55822043D01*
X55298971Y-55822043D02*
X55260876Y-55898233D01*
X55260876Y-55898233D02*
X55260876Y-56202995D01*
X55679923Y-55479186D02*
X54879923Y-54945852D01*
X55679923Y-54945852D02*
X54879923Y-55479186D01*
X54879923Y-54641090D02*
X55679923Y-54641090D01*
X55679923Y-54641090D02*
X55679923Y-54450614D01*
X55679923Y-54450614D02*
X55641828Y-54336328D01*
X55641828Y-54336328D02*
X55565638Y-54260138D01*
X55565638Y-54260138D02*
X55489447Y-54222043D01*
X55489447Y-54222043D02*
X55337066Y-54183947D01*
X55337066Y-54183947D02*
X55222780Y-54183947D01*
X55222780Y-54183947D02*
X55070399Y-54222043D01*
X55070399Y-54222043D02*
X54994209Y-54260138D01*
X54994209Y-54260138D02*
X54918019Y-54336328D01*
X54918019Y-54336328D02*
X54879923Y-54450614D01*
X54879923Y-54450614D02*
X54879923Y-54641090D01*
X55603733Y-53879186D02*
X55641828Y-53841090D01*
X55641828Y-53841090D02*
X55679923Y-53764900D01*
X55679923Y-53764900D02*
X55679923Y-53574424D01*
X55679923Y-53574424D02*
X55641828Y-53498233D01*
X55641828Y-53498233D02*
X55603733Y-53460138D01*
X55603733Y-53460138D02*
X55527542Y-53422043D01*
X55527542Y-53422043D02*
X55451352Y-53422043D01*
X55451352Y-53422043D02*
X55337066Y-53460138D01*
X55337066Y-53460138D02*
X54879923Y-53917281D01*
X54879923Y-53917281D02*
X54879923Y-53422043D01*
X54391968Y-57612519D02*
X54391968Y-57764900D01*
X54391968Y-57764900D02*
X54353873Y-57841091D01*
X54353873Y-57841091D02*
X54315778Y-57879186D01*
X54315778Y-57879186D02*
X54201492Y-57955376D01*
X54201492Y-57955376D02*
X54049111Y-57993472D01*
X54049111Y-57993472D02*
X53744349Y-57993472D01*
X53744349Y-57993472D02*
X53668159Y-57955376D01*
X53668159Y-57955376D02*
X53630064Y-57917281D01*
X53630064Y-57917281D02*
X53591968Y-57841091D01*
X53591968Y-57841091D02*
X53591968Y-57688710D01*
X53591968Y-57688710D02*
X53630064Y-57612519D01*
X53630064Y-57612519D02*
X53668159Y-57574424D01*
X53668159Y-57574424D02*
X53744349Y-57536329D01*
X53744349Y-57536329D02*
X53934825Y-57536329D01*
X53934825Y-57536329D02*
X54011016Y-57574424D01*
X54011016Y-57574424D02*
X54049111Y-57612519D01*
X54049111Y-57612519D02*
X54087206Y-57688710D01*
X54087206Y-57688710D02*
X54087206Y-57841091D01*
X54087206Y-57841091D02*
X54049111Y-57917281D01*
X54049111Y-57917281D02*
X54011016Y-57955376D01*
X54011016Y-57955376D02*
X53934825Y-57993472D01*
X53896730Y-57193471D02*
X53896730Y-56583948D01*
X54353873Y-55783948D02*
X54391968Y-55860138D01*
X54391968Y-55860138D02*
X54391968Y-55974424D01*
X54391968Y-55974424D02*
X54353873Y-56088710D01*
X54353873Y-56088710D02*
X54277683Y-56164900D01*
X54277683Y-56164900D02*
X54201492Y-56202995D01*
X54201492Y-56202995D02*
X54049111Y-56241091D01*
X54049111Y-56241091D02*
X53934825Y-56241091D01*
X53934825Y-56241091D02*
X53782444Y-56202995D01*
X53782444Y-56202995D02*
X53706254Y-56164900D01*
X53706254Y-56164900D02*
X53630064Y-56088710D01*
X53630064Y-56088710D02*
X53591968Y-55974424D01*
X53591968Y-55974424D02*
X53591968Y-55898233D01*
X53591968Y-55898233D02*
X53630064Y-55783948D01*
X53630064Y-55783948D02*
X53668159Y-55745852D01*
X53668159Y-55745852D02*
X53934825Y-55745852D01*
X53934825Y-55745852D02*
X53934825Y-55898233D01*
X53591968Y-55402995D02*
X54391968Y-55402995D01*
X54391968Y-55402995D02*
X53591968Y-54945852D01*
X53591968Y-54945852D02*
X54391968Y-54945852D01*
X53591968Y-54564900D02*
X54391968Y-54564900D01*
X54391968Y-54564900D02*
X54391968Y-54374424D01*
X54391968Y-54374424D02*
X54353873Y-54260138D01*
X54353873Y-54260138D02*
X54277683Y-54183948D01*
X54277683Y-54183948D02*
X54201492Y-54145853D01*
X54201492Y-54145853D02*
X54049111Y-54107757D01*
X54049111Y-54107757D02*
X53934825Y-54107757D01*
X53934825Y-54107757D02*
X53782444Y-54145853D01*
X53782444Y-54145853D02*
X53706254Y-54183948D01*
X53706254Y-54183948D02*
X53630064Y-54260138D01*
X53630064Y-54260138D02*
X53591968Y-54374424D01*
X53591968Y-54374424D02*
X53591968Y-54564900D01*
D10*
X61463599Y-53084400D02*
X53234000Y-53084400D01*
X53234000Y-58824800D01*
X61463599Y-58824800D01*
X61463599Y-53084400D01*
%LPC*%
D12*
X51308000Y-43982000D03*
D13*
X51308000Y-44982000D03*
X51308000Y-45982000D03*
X51308000Y-46982000D03*
X51308000Y-47982000D03*
X51308000Y-48982000D03*
D14*
X46725000Y-33400000D03*
X46725000Y-60000000D03*
X80275000Y-33400000D03*
D15*
X72798000Y-59842400D03*
D16*
X71548000Y-59842400D03*
X70298000Y-59842400D03*
X69048000Y-59842400D03*
X67798000Y-59842400D03*
X66548000Y-59842400D03*
D17*
X45560000Y-42952000D03*
D18*
X48260000Y-43952000D03*
X48260000Y-48952000D03*
D17*
X45560000Y-49952000D03*
D19*
X66775000Y-33528000D03*
D16*
X68025000Y-33528000D03*
X69275000Y-33528000D03*
X70525000Y-33528000D03*
X71775000Y-33528000D03*
X73025000Y-33528000D03*
D20*
X52832000Y-34036000D03*
D21*
X54102000Y-34036000D03*
X55372000Y-34036000D03*
X56642000Y-34036000D03*
D14*
X80275000Y-60000000D03*
D22*
X81178400Y-53467000D03*
D23*
X81178400Y-52217000D03*
X81178400Y-50967000D03*
X81178400Y-49717000D03*
X81178400Y-48467000D03*
X81178400Y-47217000D03*
X81178400Y-45967000D03*
X81178400Y-44717000D03*
X81178400Y-43467000D03*
X81178400Y-42217000D03*
X81178400Y-40967000D03*
X81178400Y-39717000D03*
D15*
X60706000Y-59842400D03*
D16*
X59456000Y-59842400D03*
X58206000Y-59842400D03*
X56956000Y-59842400D03*
X55706000Y-59842400D03*
X54456000Y-59842400D03*
D24*
X62560200Y-36906200D03*
X60060200Y-34406200D03*
X62560200Y-31906200D03*
D25*
X58291800Y-48750700D03*
X56087500Y-42724100D03*
X61172400Y-40233200D03*
X62407400Y-39089500D03*
X65316600Y-51489800D03*
X55365700Y-43424100D03*
X53184200Y-42526900D03*
X57584500Y-38073800D03*
X51918200Y-42292700D03*
X49778400Y-53519500D03*
X57459200Y-57197900D03*
X64159900Y-52653400D03*
X65526700Y-58166500D03*
X68084400Y-52840400D03*
X65878900Y-52840400D03*
X61162200Y-51060100D03*
X64401000Y-41425000D03*
X66067000Y-42277400D03*
X68687500Y-46975100D03*
X59016100Y-48411700D03*
X79276200Y-45771200D03*
X59123800Y-45987700D03*
X59124700Y-44915200D03*
X68962300Y-45473900D03*
X71210900Y-47554900D03*
X68976800Y-47915200D03*
X68841900Y-55091600D03*
X62811700Y-52064300D03*
X65051000Y-58773800D03*
X66735000Y-58192500D03*
X76885800Y-47189000D03*
X77707900Y-46281300D03*
X71507700Y-44640500D03*
X72261200Y-44640500D03*
X67747100Y-52090100D03*
X73754900Y-40598800D03*
X50647200Y-42091100D03*
X47167000Y-42091100D03*
X47167000Y-50677200D03*
X52677500Y-50677200D03*
X58072200Y-50325300D03*
X59130900Y-49397400D03*
X67896200Y-47246500D03*
X61937900Y-42206000D03*
X69898500Y-34569700D03*
X72976000Y-40464400D03*
X60259300Y-50847700D03*
X68423900Y-46000700D03*
X62367200Y-57828200D03*
X67745700Y-43464800D03*
X66871900Y-42566700D03*
X56332600Y-41785100D03*
X52074700Y-53573300D03*
X58110200Y-46785900D03*
X51083900Y-37959300D03*
X71910300Y-38285100D03*
X59722600Y-57287000D03*
X64986000Y-54564700D03*
X61746000Y-40806900D03*
X68807200Y-43226100D03*
X55545900Y-44619700D03*
X57753400Y-52703600D03*
X75669500Y-36658300D03*
X76235200Y-50802400D03*
X49650200Y-54284900D03*
X60474400Y-57151400D03*
X76205200Y-45345500D03*
X78996300Y-43277200D03*
X73936700Y-35765400D03*
%LPD*%
M02*
