G04 #@! TF.GenerationSoftware,KiCad,Pcbnew,8.0.5*
G04 #@! TF.CreationDate,2024-09-28T14:46:52+05:30*
G04 #@! TF.ProjectId,MKM01V10,4d4b4d30-3156-4313-902e-6b696361645f,1.0*
G04 #@! TF.SameCoordinates,Original*
G04 #@! TF.FileFunction,Paste,Top*
G04 #@! TF.FilePolarity,Positive*
%FSLAX46Y46*%
G04 Gerber Fmt 4.6, Leading zero omitted, Abs format (unit mm)*
G04 Created by KiCad (PCBNEW 8.0.5) date 2024-09-28 14:46:52*
%MOMM*%
%LPD*%
G01*
G04 APERTURE LIST*
G04 Aperture macros list*
%AMRoundRect*
0 Rectangle with rounded corners*
0 $1 Rounding radius*
0 $2 $3 $4 $5 $6 $7 $8 $9 X,Y pos of 4 corners*
0 Add a 4 corners polygon primitive as box body*
4,1,4,$2,$3,$4,$5,$6,$7,$8,$9,$2,$3,0*
0 Add four circle primitives for the rounded corners*
1,1,$1+$1,$2,$3*
1,1,$1+$1,$4,$5*
1,1,$1+$1,$6,$7*
1,1,$1+$1,$8,$9*
0 Add four rect primitives between the rounded corners*
20,1,$1+$1,$2,$3,$4,$5,0*
20,1,$1+$1,$4,$5,$6,$7,0*
20,1,$1+$1,$6,$7,$8,$9,0*
20,1,$1+$1,$8,$9,$2,$3,0*%
G04 Aperture macros list end*
%ADD10RoundRect,0.237500X0.237500X-0.300000X0.237500X0.300000X-0.237500X0.300000X-0.237500X-0.300000X0*%
%ADD11RoundRect,0.237500X-0.237500X0.250000X-0.237500X-0.250000X0.237500X-0.250000X0.237500X0.250000X0*%
%ADD12RoundRect,0.250000X-0.315000X-0.315000X0.315000X-0.315000X0.315000X0.315000X-0.315000X0.315000X0*%
%ADD13RoundRect,0.062500X-0.375000X-0.062500X0.375000X-0.062500X0.375000X0.062500X-0.375000X0.062500X0*%
%ADD14RoundRect,0.062500X-0.062500X-0.375000X0.062500X-0.375000X0.062500X0.375000X-0.062500X0.375000X0*%
%ADD15RoundRect,0.237500X-0.237500X0.300000X-0.237500X-0.300000X0.237500X-0.300000X0.237500X0.300000X0*%
%ADD16RoundRect,0.250000X-0.650000X0.412500X-0.650000X-0.412500X0.650000X-0.412500X0.650000X0.412500X0*%
%ADD17RoundRect,0.237500X-0.287500X-0.237500X0.287500X-0.237500X0.287500X0.237500X-0.287500X0.237500X0*%
%ADD18RoundRect,0.237500X0.237500X-0.250000X0.237500X0.250000X-0.237500X0.250000X-0.237500X-0.250000X0*%
%ADD19RoundRect,0.218750X0.256250X-0.218750X0.256250X0.218750X-0.256250X0.218750X-0.256250X-0.218750X0*%
%ADD20RoundRect,0.237500X-0.250000X-0.237500X0.250000X-0.237500X0.250000X0.237500X-0.250000X0.237500X0*%
%ADD21R,0.900000X1.700000*%
%ADD22O,1.550000X0.890000*%
%ADD23O,0.950000X1.250000*%
%ADD24R,1.350000X0.400000*%
%ADD25R,1.550000X1.200000*%
%ADD26R,1.550000X1.500000*%
%ADD27RoundRect,0.250000X-0.450000X-0.425000X0.450000X-0.425000X0.450000X0.425000X-0.450000X0.425000X0*%
%ADD28RoundRect,0.250000X0.450000X0.425000X-0.450000X0.425000X-0.450000X-0.425000X0.450000X-0.425000X0*%
%ADD29RoundRect,0.150000X-0.512500X-0.150000X0.512500X-0.150000X0.512500X0.150000X-0.512500X0.150000X0*%
G04 APERTURE END LIST*
D10*
X51689000Y-40844000D03*
X51689000Y-39119000D03*
D11*
X57632600Y-39069000D03*
X57632600Y-40894000D03*
D12*
X61416900Y-44565200D03*
X61416900Y-45965200D03*
X61416900Y-47365200D03*
X61416900Y-48765200D03*
X62816900Y-44565200D03*
X62816900Y-45965200D03*
X62816900Y-47365200D03*
X62816900Y-48765200D03*
X64216900Y-44565200D03*
X64216900Y-45965200D03*
X64216900Y-47365200D03*
X64216900Y-48765200D03*
X65616900Y-44565200D03*
X65616900Y-45965200D03*
X65616900Y-47365200D03*
X65616900Y-48765200D03*
D13*
X60079400Y-43915200D03*
X60079400Y-44415200D03*
X60079400Y-44915200D03*
X60079400Y-45415200D03*
X60079400Y-45915200D03*
X60079400Y-46415200D03*
X60079400Y-46915200D03*
X60079400Y-47415200D03*
X60079400Y-47915200D03*
X60079400Y-48415200D03*
X60079400Y-48915200D03*
X60079400Y-49415200D03*
D14*
X60766900Y-50102700D03*
X61266900Y-50102700D03*
X61766900Y-50102700D03*
X62266900Y-50102700D03*
X62766900Y-50102700D03*
X63266900Y-50102700D03*
X63766900Y-50102700D03*
X64266900Y-50102700D03*
X64766900Y-50102700D03*
X65266900Y-50102700D03*
X65766900Y-50102700D03*
X66266900Y-50102700D03*
D13*
X66954400Y-49415200D03*
X66954400Y-48915200D03*
X66954400Y-48415200D03*
X66954400Y-47915200D03*
X66954400Y-47415200D03*
X66954400Y-46915200D03*
X66954400Y-46415200D03*
X66954400Y-45915200D03*
X66954400Y-45415200D03*
X66954400Y-44915200D03*
X66954400Y-44415200D03*
X66954400Y-43915200D03*
D14*
X66266900Y-43227700D03*
X65766900Y-43227700D03*
X65266900Y-43227700D03*
X64766900Y-43227700D03*
X64266900Y-43227700D03*
X63766900Y-43227700D03*
X63266900Y-43227700D03*
X62766900Y-43227700D03*
X62266900Y-43227700D03*
X61766900Y-43227700D03*
X61266900Y-43227700D03*
X60766900Y-43227700D03*
D11*
X69017400Y-37314500D03*
X69017400Y-39139500D03*
D15*
X54152800Y-50954700D03*
X54152800Y-52679700D03*
D16*
X70104000Y-53301500D03*
X70104000Y-56426500D03*
D15*
X67825900Y-53950700D03*
X67825900Y-55675700D03*
D17*
X46267400Y-52374800D03*
X48017400Y-52374800D03*
D18*
X70002400Y-47663300D03*
X70002400Y-45838300D03*
D11*
X64109600Y-53900700D03*
X64109600Y-55725700D03*
D19*
X56184800Y-52705200D03*
X56184800Y-51130200D03*
D20*
X46463300Y-38608000D03*
X48288300Y-38608000D03*
D21*
X72163200Y-46700000D03*
X75563200Y-46700000D03*
D15*
X65967700Y-53950700D03*
X65967700Y-55675700D03*
D22*
X45560000Y-42952000D03*
D23*
X48260000Y-43952000D03*
X48260000Y-48952000D03*
D22*
X45560000Y-49952000D03*
D24*
X48260000Y-45152000D03*
X48260000Y-45802000D03*
X48260000Y-46452000D03*
X48260000Y-47102000D03*
X48260000Y-47752000D03*
D25*
X45560000Y-43552000D03*
D26*
X45560000Y-45452000D03*
X45560000Y-47452000D03*
D25*
X45560000Y-49352000D03*
D18*
X55651400Y-40894000D03*
X55651400Y-39069000D03*
D27*
X72564000Y-42570400D03*
X75264000Y-42570400D03*
D28*
X56845200Y-43916600D03*
X54145200Y-43916600D03*
D29*
X54334000Y-46741000D03*
X54334000Y-47691000D03*
X54334000Y-48641000D03*
X56609000Y-48641000D03*
X56609000Y-46741000D03*
D10*
X66929000Y-39089500D03*
X66929000Y-37364500D03*
X51257200Y-54354900D03*
X51257200Y-52629900D03*
D18*
X53670200Y-40894000D03*
X53670200Y-39069000D03*
D21*
X53519600Y-55626000D03*
X56919600Y-55626000D03*
D17*
X46560800Y-40538400D03*
X48310800Y-40538400D03*
D10*
X71105900Y-39089500D03*
X71105900Y-37364500D03*
D20*
X46169900Y-54305200D03*
X47994900Y-54305200D03*
M02*
