G04 #@! TF.GenerationSoftware,KiCad,Pcbnew,8.0.5*
G04 #@! TF.CreationDate,2024-09-28T14:46:52+05:30*
G04 #@! TF.ProjectId,MKM01V10,4d4b4d30-3156-4313-902e-6b696361645f,1.0*
G04 #@! TF.SameCoordinates,Original*
G04 #@! TF.FileFunction,Soldermask,Bot*
G04 #@! TF.FilePolarity,Negative*
%FSLAX46Y46*%
G04 Gerber Fmt 4.6, Leading zero omitted, Abs format (unit mm)*
G04 Created by KiCad (PCBNEW 8.0.5) date 2024-09-28 14:46:52*
%MOMM*%
%LPD*%
G01*
G04 APERTURE LIST*
G04 Aperture macros list*
%AMRoundRect*
0 Rectangle with rounded corners*
0 $1 Rounding radius*
0 $2 $3 $4 $5 $6 $7 $8 $9 X,Y pos of 4 corners*
0 Add a 4 corners polygon primitive as box body*
4,1,4,$2,$3,$4,$5,$6,$7,$8,$9,$2,$3,0*
0 Add four circle primitives for the rounded corners*
1,1,$1+$1,$2,$3*
1,1,$1+$1,$4,$5*
1,1,$1+$1,$6,$7*
1,1,$1+$1,$8,$9*
0 Add four rect primitives between the rounded corners*
20,1,$1+$1,$2,$3,$4,$5,0*
20,1,$1+$1,$4,$5,$6,$7,0*
20,1,$1+$1,$6,$7,$8,$9,0*
20,1,$1+$1,$8,$9,$2,$3,0*%
G04 Aperture macros list end*
%ADD10R,0.850000X0.850000*%
%ADD11O,0.850000X0.850000*%
%ADD12C,3.200000*%
%ADD13RoundRect,0.225000X0.225000X0.475000X-0.225000X0.475000X-0.225000X-0.475000X0.225000X-0.475000X0*%
%ADD14O,0.900000X1.400000*%
%ADD15O,1.550000X0.890000*%
%ADD16O,0.950000X1.250000*%
%ADD17RoundRect,0.225000X-0.225000X-0.475000X0.225000X-0.475000X0.225000X0.475000X-0.225000X0.475000X0*%
%ADD18R,1.070000X1.800000*%
%ADD19O,1.070000X1.800000*%
%ADD20RoundRect,0.225000X0.475000X-0.225000X0.475000X0.225000X-0.475000X0.225000X-0.475000X-0.225000X0*%
%ADD21O,1.400000X0.900000*%
%ADD22C,1.620000*%
%ADD23C,0.500000*%
G04 APERTURE END LIST*
D10*
X51308000Y-43982000D03*
D11*
X51308000Y-44982000D03*
X51308000Y-45982000D03*
X51308000Y-46982000D03*
X51308000Y-47982000D03*
X51308000Y-48982000D03*
D12*
X46725000Y-33400000D03*
X46725000Y-60000000D03*
X80275000Y-33400000D03*
D13*
X72798000Y-59842400D03*
D14*
X71548000Y-59842400D03*
X70298000Y-59842400D03*
X69048000Y-59842400D03*
X67798000Y-59842400D03*
X66548000Y-59842400D03*
D15*
X45560000Y-42952000D03*
D16*
X48260000Y-43952000D03*
X48260000Y-48952000D03*
D15*
X45560000Y-49952000D03*
D17*
X66775000Y-33528000D03*
D14*
X68025000Y-33528000D03*
X69275000Y-33528000D03*
X70525000Y-33528000D03*
X71775000Y-33528000D03*
X73025000Y-33528000D03*
D18*
X52832000Y-34036000D03*
D19*
X54102000Y-34036000D03*
X55372000Y-34036000D03*
X56642000Y-34036000D03*
D12*
X80275000Y-60000000D03*
D20*
X81178400Y-53467000D03*
D21*
X81178400Y-52217000D03*
X81178400Y-50967000D03*
X81178400Y-49717000D03*
X81178400Y-48467000D03*
X81178400Y-47217000D03*
X81178400Y-45967000D03*
X81178400Y-44717000D03*
X81178400Y-43467000D03*
X81178400Y-42217000D03*
X81178400Y-40967000D03*
X81178400Y-39717000D03*
D13*
X60706000Y-59842400D03*
D14*
X59456000Y-59842400D03*
X58206000Y-59842400D03*
X56956000Y-59842400D03*
X55706000Y-59842400D03*
X54456000Y-59842400D03*
D22*
X62560200Y-36906200D03*
X60060200Y-34406200D03*
X62560200Y-31906200D03*
D23*
X58291800Y-48750700D03*
X56087500Y-42724100D03*
X61172400Y-40233200D03*
X62407400Y-39089500D03*
X65316600Y-51489800D03*
X55365700Y-43424100D03*
X53184200Y-42526900D03*
X57584500Y-38073800D03*
X51918200Y-42292700D03*
X49778400Y-53519500D03*
X57459200Y-57197900D03*
X64159900Y-52653400D03*
X65526700Y-58166500D03*
X68084400Y-52840400D03*
X65878900Y-52840400D03*
X61162200Y-51060100D03*
X64401000Y-41425000D03*
X66067000Y-42277400D03*
X68687500Y-46975100D03*
X59016100Y-48411700D03*
X79276200Y-45771200D03*
X59123800Y-45987700D03*
X59124700Y-44915200D03*
X68962300Y-45473900D03*
X71210900Y-47554900D03*
X68976800Y-47915200D03*
X68841900Y-55091600D03*
X62811700Y-52064300D03*
X65051000Y-58773800D03*
X66735000Y-58192500D03*
X76885800Y-47189000D03*
X77707900Y-46281300D03*
X71507700Y-44640500D03*
X72261200Y-44640500D03*
X67747100Y-52090100D03*
X73754900Y-40598800D03*
X50647200Y-42091100D03*
X47167000Y-42091100D03*
X47167000Y-50677200D03*
X52677500Y-50677200D03*
X58072200Y-50325300D03*
X59130900Y-49397400D03*
X67896200Y-47246500D03*
X61937900Y-42206000D03*
X69898500Y-34569700D03*
X72976000Y-40464400D03*
X60259300Y-50847700D03*
X68423900Y-46000700D03*
X62367200Y-57828200D03*
X67745700Y-43464800D03*
X66871900Y-42566700D03*
X56332600Y-41785100D03*
X52074700Y-53573300D03*
X58110200Y-46785900D03*
X51083900Y-37959300D03*
X71910300Y-38285100D03*
X59722600Y-57287000D03*
X64986000Y-54564700D03*
X61746000Y-40806900D03*
X68807200Y-43226100D03*
X55545900Y-44619700D03*
X57753400Y-52703600D03*
X75669500Y-36658300D03*
X76235200Y-50802400D03*
X49650200Y-54284900D03*
X60474400Y-57151400D03*
X76205200Y-45345500D03*
X78996300Y-43277200D03*
X73936700Y-35765400D03*
M02*
