%TF.GenerationSoftware,KiCad,Pcbnew,8.0.5*%
%TF.CreationDate,2024-09-28T14:46:47+05:30*%
%TF.ProjectId,MKM01V10,4d4b4d30-3156-4313-902e-6b696361645f,1.0*%
%TF.SameCoordinates,Original*%
%TF.FileFunction,Drillmap*%
%TF.FilePolarity,Positive*%
%FSLAX45Y45*%
G04 Gerber Fmt 4.5, Leading zero omitted, Abs format (unit mm)*
G04 Created by KiCad (PCBNEW 8.0.5) date 2024-09-28 14:46:47*
%MOMM*%
%LPD*%
G01*
G04 APERTURE LIST*
%ADD10C,0.100000*%
%ADD11C,0.200000*%
G04 APERTURE END LIST*
D10*
X4282000Y-2960000D02*
X8382000Y-2960000D01*
X8382000Y-6360000D01*
X4282000Y-6360000D01*
X4282000Y-2960000D01*
D11*
D10*
X4701700Y-4194110D02*
X4731700Y-4224110D01*
X4731700Y-4194110D02*
X4701700Y-4224110D01*
X4701700Y-5052720D02*
X4731700Y-5082720D01*
X4731700Y-5052720D02*
X4701700Y-5082720D01*
X4950020Y-5413490D02*
X4980020Y-5443490D01*
X4980020Y-5413490D02*
X4950020Y-5443490D01*
X4962840Y-5336950D02*
X4992840Y-5366950D01*
X4992840Y-5336950D02*
X4962840Y-5366950D01*
X5049720Y-4194110D02*
X5079720Y-4224110D01*
X5079720Y-4194110D02*
X5049720Y-4224110D01*
X5093390Y-3780930D02*
X5123390Y-3810930D01*
X5123390Y-3780930D02*
X5093390Y-3810930D01*
X5176820Y-4214270D02*
X5206820Y-4244270D01*
X5206820Y-4214270D02*
X5176820Y-4244270D01*
X5192470Y-5342330D02*
X5222470Y-5372330D01*
X5222470Y-5342330D02*
X5192470Y-5372330D01*
X5252750Y-5052720D02*
X5282750Y-5082720D01*
X5282750Y-5052720D02*
X5252750Y-5082720D01*
X5303420Y-4237690D02*
X5333420Y-4267690D01*
X5333420Y-4237690D02*
X5303420Y-4267690D01*
X5521570Y-4327410D02*
X5551570Y-4357410D01*
X5551570Y-4327410D02*
X5521570Y-4357410D01*
X5539590Y-4446970D02*
X5569590Y-4476970D01*
X5569590Y-4446970D02*
X5539590Y-4476970D01*
X5593750Y-4257410D02*
X5623750Y-4287410D01*
X5623750Y-4257410D02*
X5593750Y-4287410D01*
X5618260Y-4163510D02*
X5648260Y-4193510D01*
X5648260Y-4163510D02*
X5618260Y-4193510D01*
X5730920Y-5704790D02*
X5760920Y-5734790D01*
X5760920Y-5704790D02*
X5730920Y-5734790D01*
X5743450Y-3792380D02*
X5773450Y-3822380D01*
X5773450Y-3792380D02*
X5743450Y-3822380D01*
X5760340Y-5255360D02*
X5790340Y-5285360D01*
X5790340Y-5255360D02*
X5760340Y-5285360D01*
X5792220Y-5017530D02*
X5822220Y-5047530D01*
X5822220Y-5017530D02*
X5792220Y-5047530D01*
X5796020Y-4663590D02*
X5826020Y-4693590D01*
X5826020Y-4663590D02*
X5796020Y-4693590D01*
X5814180Y-4860070D02*
X5844180Y-4890070D01*
X5844180Y-4860070D02*
X5814180Y-4890070D01*
X5886610Y-4826170D02*
X5916610Y-4856170D01*
X5916610Y-4826170D02*
X5886610Y-4856170D01*
X5897380Y-4583770D02*
X5927380Y-4613770D01*
X5927380Y-4583770D02*
X5897380Y-4613770D01*
X5897470Y-4476520D02*
X5927470Y-4506520D01*
X5927470Y-4476520D02*
X5897470Y-4506520D01*
X5898090Y-4924740D02*
X5928090Y-4954740D01*
X5928090Y-4924740D02*
X5898090Y-4954740D01*
X5957260Y-5713700D02*
X5987260Y-5743700D01*
X5987260Y-5713700D02*
X5957260Y-5743700D01*
X6010930Y-5069770D02*
X6040930Y-5099770D01*
X6040930Y-5069770D02*
X6010930Y-5099770D01*
X6032440Y-5700140D02*
X6062440Y-5730140D01*
X6062440Y-5700140D02*
X6032440Y-5730140D01*
X6101220Y-5091010D02*
X6131220Y-5121010D01*
X6131220Y-5091010D02*
X6101220Y-5121010D01*
X6102240Y-4008320D02*
X6132240Y-4038320D01*
X6132240Y-4008320D02*
X6102240Y-4038320D01*
X6159600Y-4065690D02*
X6189600Y-4095690D01*
X6189600Y-4065690D02*
X6159600Y-4095690D01*
X6178790Y-4205600D02*
X6208790Y-4235600D01*
X6208790Y-4205600D02*
X6178790Y-4235600D01*
X6221720Y-5767820D02*
X6251720Y-5797820D01*
X6251720Y-5767820D02*
X6221720Y-5797820D01*
X6225740Y-3893950D02*
X6255740Y-3923950D01*
X6255740Y-3893950D02*
X6225740Y-3923950D01*
X6266170Y-5191430D02*
X6296170Y-5221430D01*
X6296170Y-5191430D02*
X6266170Y-5221430D01*
X6400990Y-5250340D02*
X6430990Y-5280340D01*
X6430990Y-5250340D02*
X6400990Y-5280340D01*
X6425100Y-4127500D02*
X6455100Y-4157500D01*
X6455100Y-4127500D02*
X6425100Y-4157500D01*
X6483600Y-5441470D02*
X6513600Y-5471470D01*
X6513600Y-5441470D02*
X6483600Y-5471470D01*
X6490100Y-5862380D02*
X6520100Y-5892380D01*
X6520100Y-5862380D02*
X6490100Y-5892380D01*
X6516660Y-5133980D02*
X6546660Y-5163980D01*
X6546660Y-5133980D02*
X6516660Y-5163980D01*
X6537670Y-5801650D02*
X6567670Y-5831650D01*
X6567670Y-5801650D02*
X6537670Y-5831650D01*
X6572890Y-5269040D02*
X6602890Y-5299040D01*
X6602890Y-5269040D02*
X6572890Y-5299040D01*
X6591700Y-4212740D02*
X6621700Y-4242740D01*
X6621700Y-4212740D02*
X6591700Y-4242740D01*
X6658500Y-5804250D02*
X6688500Y-5834250D01*
X6688500Y-5804250D02*
X6658500Y-5834250D01*
X6672190Y-4241670D02*
X6702190Y-4271670D01*
X6702190Y-4241670D02*
X6672190Y-4271670D01*
X6759570Y-4331480D02*
X6789570Y-4361480D01*
X6789570Y-4331480D02*
X6759570Y-4361480D01*
X6759710Y-5194010D02*
X6789710Y-5224010D01*
X6789710Y-5194010D02*
X6759710Y-5224010D01*
X6774620Y-4709650D02*
X6804620Y-4739650D01*
X6804620Y-4709650D02*
X6774620Y-4739650D01*
X6793440Y-5269040D02*
X6823440Y-5299040D01*
X6823440Y-5269040D02*
X6793440Y-5299040D01*
X6827390Y-4585070D02*
X6857390Y-4615070D01*
X6857390Y-4585070D02*
X6827390Y-4615070D01*
X6853750Y-4682510D02*
X6883750Y-4712510D01*
X6883750Y-4682510D02*
X6853750Y-4712510D01*
X6865720Y-4307610D02*
X6895720Y-4337610D01*
X6895720Y-4307610D02*
X6865720Y-4337610D01*
X6869190Y-5494160D02*
X6899190Y-5524160D01*
X6899190Y-5494160D02*
X6869190Y-5524160D01*
X6881230Y-4532390D02*
X6911230Y-4562390D01*
X6911230Y-4532390D02*
X6881230Y-4562390D01*
X6882680Y-4776520D02*
X6912680Y-4806520D01*
X6912680Y-4776520D02*
X6882680Y-4806520D01*
X6974850Y-3441970D02*
X7004850Y-3471970D01*
X7004850Y-3441970D02*
X6974850Y-3471970D01*
X7106090Y-4740490D02*
X7136090Y-4770490D01*
X7136090Y-4740490D02*
X7106090Y-4770490D01*
X7135770Y-4449050D02*
X7165770Y-4479050D01*
X7165770Y-4449050D02*
X7135770Y-4479050D01*
X7176030Y-3813510D02*
X7206030Y-3843510D01*
X7206030Y-3813510D02*
X7176030Y-3843510D01*
X7211120Y-4449050D02*
X7241120Y-4479050D01*
X7241120Y-4449050D02*
X7211120Y-4479050D01*
X7282600Y-4031440D02*
X7312600Y-4061440D01*
X7312600Y-4031440D02*
X7282600Y-4061440D01*
X7360490Y-4044880D02*
X7390490Y-4074880D01*
X7390490Y-4044880D02*
X7360490Y-4074880D01*
X7378670Y-3561540D02*
X7408670Y-3591540D01*
X7408670Y-3561540D02*
X7378670Y-3591540D01*
X7551950Y-3650830D02*
X7581950Y-3680830D01*
X7581950Y-3650830D02*
X7551950Y-3680830D01*
X7605520Y-4519550D02*
X7635520Y-4549550D01*
X7635520Y-4519550D02*
X7605520Y-4549550D01*
X7608520Y-5065240D02*
X7638520Y-5095240D01*
X7638520Y-5065240D02*
X7608520Y-5095240D01*
X7673580Y-4703900D02*
X7703580Y-4733900D01*
X7703580Y-4703900D02*
X7673580Y-4733900D01*
X7755790Y-4613130D02*
X7785790Y-4643130D01*
X7785790Y-4613130D02*
X7755790Y-4643130D01*
X7884630Y-4312720D02*
X7914630Y-4342720D01*
X7914630Y-4312720D02*
X7884630Y-4342720D01*
X7912620Y-4562120D02*
X7942620Y-4592120D01*
X7942620Y-4562120D02*
X7912620Y-4592120D01*
X4581000Y-4295200D02*
G75*
G02*
X4531000Y-4295200I-25000J0D01*
G01*
X4531000Y-4295200D02*
G75*
G02*
X4581000Y-4295200I25000J0D01*
G01*
X4588500Y-4270200D02*
X4523500Y-4270200D01*
X4523500Y-4320200D02*
G75*
G02*
X4523500Y-4270200I0J25000D01*
G01*
X4523500Y-4320200D02*
X4588500Y-4320200D01*
X4588500Y-4320200D02*
G75*
G03*
X4588500Y-4270200I0J25000D01*
G01*
X4581000Y-4995200D02*
G75*
G02*
X4531000Y-4995200I-25000J0D01*
G01*
X4531000Y-4995200D02*
G75*
G02*
X4581000Y-4995200I25000J0D01*
G01*
X4588500Y-4970200D02*
X4523500Y-4970200D01*
X4523500Y-5020200D02*
G75*
G02*
X4523500Y-4970200I0J25000D01*
G01*
X4523500Y-5020200D02*
X4588500Y-5020200D01*
X4588500Y-5020200D02*
G75*
G03*
X4588500Y-4970200I0J25000D01*
G01*
X5155800Y-4398200D02*
G75*
G02*
X5105800Y-4398200I-25000J0D01*
G01*
X5105800Y-4398200D02*
G75*
G02*
X5155800Y-4398200I25000J0D01*
G01*
X5155800Y-4498200D02*
G75*
G02*
X5105800Y-4498200I-25000J0D01*
G01*
X5105800Y-4498200D02*
G75*
G02*
X5155800Y-4498200I25000J0D01*
G01*
X5155800Y-4598200D02*
G75*
G02*
X5105800Y-4598200I-25000J0D01*
G01*
X5105800Y-4598200D02*
G75*
G02*
X5155800Y-4598200I25000J0D01*
G01*
X5155800Y-4698200D02*
G75*
G02*
X5105800Y-4698200I-25000J0D01*
G01*
X5105800Y-4698200D02*
G75*
G02*
X5155800Y-4698200I25000J0D01*
G01*
X5155800Y-4798200D02*
G75*
G02*
X5105800Y-4798200I-25000J0D01*
G01*
X5105800Y-4798200D02*
G75*
G02*
X5155800Y-4798200I25000J0D01*
G01*
X5155800Y-4898200D02*
G75*
G02*
X5105800Y-4898200I-25000J0D01*
G01*
X5105800Y-4898200D02*
G75*
G02*
X5155800Y-4898200I25000J0D01*
G01*
X4826000Y-4367700D02*
X4826000Y-4422700D01*
X4798500Y-4395200D02*
X4853500Y-4395200D01*
X4798500Y-4380200D02*
X4798500Y-4410200D01*
X4853500Y-4410200D02*
G75*
G02*
X4798500Y-4410200I-27500J0D01*
G01*
X4853500Y-4410200D02*
X4853500Y-4380200D01*
X4853500Y-4380200D02*
G75*
G03*
X4798500Y-4380200I-27500J0D01*
G01*
X4826000Y-4867700D02*
X4826000Y-4922700D01*
X4798500Y-4895200D02*
X4853500Y-4895200D01*
X4798500Y-4880200D02*
X4798500Y-4910200D01*
X4853500Y-4910200D02*
G75*
G02*
X4798500Y-4910200I-27500J0D01*
G01*
X4853500Y-4910200D02*
X4853500Y-4880200D01*
X4853500Y-4880200D02*
G75*
G03*
X4798500Y-4880200I-27500J0D01*
G01*
X5466813Y-6005453D02*
X5466813Y-5963027D01*
X5424387Y-5963027D01*
X5424387Y-6005453D01*
X5466813Y-6005453D01*
X5591813Y-6005453D02*
X5591813Y-5963027D01*
X5549387Y-5963027D01*
X5549387Y-6005453D01*
X5591813Y-6005453D01*
X5716813Y-6005453D02*
X5716813Y-5963027D01*
X5674387Y-5963027D01*
X5674387Y-6005453D01*
X5716813Y-6005453D01*
X5841813Y-6005453D02*
X5841813Y-5963027D01*
X5799387Y-5963027D01*
X5799387Y-6005453D01*
X5841813Y-6005453D01*
X5966813Y-6005453D02*
X5966813Y-5963027D01*
X5924387Y-5963027D01*
X5924387Y-6005453D01*
X5966813Y-6005453D01*
X6091813Y-6005453D02*
X6091813Y-5963027D01*
X6049387Y-5963027D01*
X6049387Y-6005453D01*
X6091813Y-6005453D01*
X6676013Y-6005453D02*
X6676013Y-5963027D01*
X6633587Y-5963027D01*
X6633587Y-6005453D01*
X6676013Y-6005453D01*
X6698713Y-3374013D02*
X6698713Y-3331587D01*
X6656287Y-3331587D01*
X6656287Y-3374013D01*
X6698713Y-3374013D01*
X6801013Y-6005453D02*
X6801013Y-5963027D01*
X6758587Y-5963027D01*
X6758587Y-6005453D01*
X6801013Y-6005453D01*
X6823713Y-3374013D02*
X6823713Y-3331587D01*
X6781287Y-3331587D01*
X6781287Y-3374013D01*
X6823713Y-3374013D01*
X6926013Y-6005453D02*
X6926013Y-5963027D01*
X6883587Y-5963027D01*
X6883587Y-6005453D01*
X6926013Y-6005453D01*
X6948713Y-3374013D02*
X6948713Y-3331587D01*
X6906287Y-3331587D01*
X6906287Y-3374013D01*
X6948713Y-3374013D01*
X7051013Y-6005453D02*
X7051013Y-5963027D01*
X7008587Y-5963027D01*
X7008587Y-6005453D01*
X7051013Y-6005453D01*
X7073713Y-3374013D02*
X7073713Y-3331587D01*
X7031287Y-3331587D01*
X7031287Y-3374013D01*
X7073713Y-3374013D01*
X7176013Y-6005453D02*
X7176013Y-5963027D01*
X7133587Y-5963027D01*
X7133587Y-6005453D01*
X7176013Y-6005453D01*
X7198713Y-3374013D02*
X7198713Y-3331587D01*
X7156287Y-3331587D01*
X7156287Y-3374013D01*
X7198713Y-3374013D01*
X7301013Y-6005453D02*
X7301013Y-5963027D01*
X7258587Y-5963027D01*
X7258587Y-6005453D01*
X7301013Y-6005453D01*
X7323713Y-3374013D02*
X7323713Y-3331587D01*
X7281287Y-3331587D01*
X7281287Y-3374013D01*
X7323713Y-3374013D01*
X8139053Y-3992913D02*
X8139053Y-3950487D01*
X8096627Y-3950487D01*
X8096627Y-3992913D01*
X8139053Y-3992913D01*
X8139053Y-4117913D02*
X8139053Y-4075487D01*
X8096627Y-4075487D01*
X8096627Y-4117913D01*
X8139053Y-4117913D01*
X8139053Y-4242913D02*
X8139053Y-4200487D01*
X8096627Y-4200487D01*
X8096627Y-4242913D01*
X8139053Y-4242913D01*
X8139053Y-4367913D02*
X8139053Y-4325487D01*
X8096627Y-4325487D01*
X8096627Y-4367913D01*
X8139053Y-4367913D01*
X8139053Y-4492913D02*
X8139053Y-4450487D01*
X8096627Y-4450487D01*
X8096627Y-4492913D01*
X8139053Y-4492913D01*
X8139053Y-4617913D02*
X8139053Y-4575487D01*
X8096627Y-4575487D01*
X8096627Y-4617913D01*
X8139053Y-4617913D01*
X8139053Y-4742913D02*
X8139053Y-4700487D01*
X8096627Y-4700487D01*
X8096627Y-4742913D01*
X8139053Y-4742913D01*
X8139053Y-4867913D02*
X8139053Y-4825487D01*
X8096627Y-4825487D01*
X8096627Y-4867913D01*
X8139053Y-4867913D01*
X8139053Y-4992913D02*
X8139053Y-4950487D01*
X8096627Y-4950487D01*
X8096627Y-4992913D01*
X8139053Y-4992913D01*
X8139053Y-5117913D02*
X8139053Y-5075487D01*
X8096627Y-5075487D01*
X8096627Y-5117913D01*
X8139053Y-5117913D01*
X8139053Y-5242913D02*
X8139053Y-5200487D01*
X8096627Y-5200487D01*
X8096627Y-5242913D01*
X8139053Y-5242913D01*
X8139053Y-5367913D02*
X8139053Y-5325487D01*
X8096627Y-5325487D01*
X8096627Y-5367913D01*
X8139053Y-5367913D01*
X5283200Y-3448600D02*
X5328200Y-3403600D01*
X5283200Y-3358600D01*
X5238200Y-3403600D01*
X5283200Y-3448600D01*
X5410200Y-3448600D02*
X5455200Y-3403600D01*
X5410200Y-3358600D01*
X5365200Y-3403600D01*
X5410200Y-3448600D01*
X5537200Y-3448600D02*
X5582200Y-3403600D01*
X5537200Y-3358600D01*
X5492200Y-3403600D01*
X5537200Y-3448600D01*
X5664200Y-3448600D02*
X5709200Y-3403600D01*
X5664200Y-3358600D01*
X5619200Y-3403600D01*
X5664200Y-3448600D01*
X6006020Y-3485620D02*
X6051020Y-3440620D01*
X6006020Y-3395620D01*
X5961020Y-3440620D01*
X6006020Y-3485620D01*
X6256020Y-3235620D02*
X6301020Y-3190620D01*
X6256020Y-3145620D01*
X6211020Y-3190620D01*
X6256020Y-3235620D01*
X6256020Y-3735620D02*
X6301020Y-3690620D01*
X6256020Y-3645620D01*
X6211020Y-3690620D01*
X6256020Y-3735620D01*
D11*
X4537777Y-6676484D02*
X4537777Y-6476484D01*
X4537777Y-6476484D02*
X4585396Y-6476484D01*
X4585396Y-6476484D02*
X4613967Y-6486008D01*
X4613967Y-6486008D02*
X4633015Y-6505055D01*
X4633015Y-6505055D02*
X4642539Y-6524103D01*
X4642539Y-6524103D02*
X4652063Y-6562198D01*
X4652063Y-6562198D02*
X4652063Y-6590769D01*
X4652063Y-6590769D02*
X4642539Y-6628865D01*
X4642539Y-6628865D02*
X4633015Y-6647912D01*
X4633015Y-6647912D02*
X4613967Y-6666960D01*
X4613967Y-6666960D02*
X4585396Y-6676484D01*
X4585396Y-6676484D02*
X4537777Y-6676484D01*
X4737777Y-6676484D02*
X4737777Y-6543150D01*
X4737777Y-6581246D02*
X4747301Y-6562198D01*
X4747301Y-6562198D02*
X4756824Y-6552674D01*
X4756824Y-6552674D02*
X4775872Y-6543150D01*
X4775872Y-6543150D02*
X4794920Y-6543150D01*
X4861586Y-6676484D02*
X4861586Y-6543150D01*
X4861586Y-6476484D02*
X4852063Y-6486008D01*
X4852063Y-6486008D02*
X4861586Y-6495531D01*
X4861586Y-6495531D02*
X4871110Y-6486008D01*
X4871110Y-6486008D02*
X4861586Y-6476484D01*
X4861586Y-6476484D02*
X4861586Y-6495531D01*
X4985396Y-6676484D02*
X4966348Y-6666960D01*
X4966348Y-6666960D02*
X4956824Y-6647912D01*
X4956824Y-6647912D02*
X4956824Y-6476484D01*
X5090158Y-6676484D02*
X5071110Y-6666960D01*
X5071110Y-6666960D02*
X5061586Y-6647912D01*
X5061586Y-6647912D02*
X5061586Y-6476484D01*
X5318729Y-6676484D02*
X5318729Y-6476484D01*
X5318729Y-6476484D02*
X5385396Y-6619341D01*
X5385396Y-6619341D02*
X5452063Y-6476484D01*
X5452063Y-6476484D02*
X5452063Y-6676484D01*
X5633015Y-6676484D02*
X5633015Y-6571722D01*
X5633015Y-6571722D02*
X5623491Y-6552674D01*
X5623491Y-6552674D02*
X5604443Y-6543150D01*
X5604443Y-6543150D02*
X5566348Y-6543150D01*
X5566348Y-6543150D02*
X5547301Y-6552674D01*
X5633015Y-6666960D02*
X5613967Y-6676484D01*
X5613967Y-6676484D02*
X5566348Y-6676484D01*
X5566348Y-6676484D02*
X5547301Y-6666960D01*
X5547301Y-6666960D02*
X5537777Y-6647912D01*
X5537777Y-6647912D02*
X5537777Y-6628865D01*
X5537777Y-6628865D02*
X5547301Y-6609817D01*
X5547301Y-6609817D02*
X5566348Y-6600293D01*
X5566348Y-6600293D02*
X5613967Y-6600293D01*
X5613967Y-6600293D02*
X5633015Y-6590769D01*
X5728253Y-6543150D02*
X5728253Y-6743150D01*
X5728253Y-6552674D02*
X5747301Y-6543150D01*
X5747301Y-6543150D02*
X5785396Y-6543150D01*
X5785396Y-6543150D02*
X5804443Y-6552674D01*
X5804443Y-6552674D02*
X5813967Y-6562198D01*
X5813967Y-6562198D02*
X5823491Y-6581246D01*
X5823491Y-6581246D02*
X5823491Y-6638388D01*
X5823491Y-6638388D02*
X5813967Y-6657436D01*
X5813967Y-6657436D02*
X5804443Y-6666960D01*
X5804443Y-6666960D02*
X5785396Y-6676484D01*
X5785396Y-6676484D02*
X5747301Y-6676484D01*
X5747301Y-6676484D02*
X5728253Y-6666960D01*
X5909205Y-6657436D02*
X5918729Y-6666960D01*
X5918729Y-6666960D02*
X5909205Y-6676484D01*
X5909205Y-6676484D02*
X5899682Y-6666960D01*
X5899682Y-6666960D02*
X5909205Y-6657436D01*
X5909205Y-6657436D02*
X5909205Y-6676484D01*
X5909205Y-6552674D02*
X5918729Y-6562198D01*
X5918729Y-6562198D02*
X5909205Y-6571722D01*
X5909205Y-6571722D02*
X5899682Y-6562198D01*
X5899682Y-6562198D02*
X5909205Y-6552674D01*
X5909205Y-6552674D02*
X5909205Y-6571722D01*
D10*
X4247000Y-6990000D02*
X4277000Y-7020000D01*
X4277000Y-6990000D02*
X4247000Y-7020000D01*
D11*
X4575872Y-6896484D02*
X4594920Y-6896484D01*
X4594920Y-6896484D02*
X4613967Y-6906008D01*
X4613967Y-6906008D02*
X4623491Y-6915531D01*
X4623491Y-6915531D02*
X4633015Y-6934579D01*
X4633015Y-6934579D02*
X4642539Y-6972674D01*
X4642539Y-6972674D02*
X4642539Y-7020293D01*
X4642539Y-7020293D02*
X4633015Y-7058388D01*
X4633015Y-7058388D02*
X4623491Y-7077436D01*
X4623491Y-7077436D02*
X4613967Y-7086960D01*
X4613967Y-7086960D02*
X4594920Y-7096484D01*
X4594920Y-7096484D02*
X4575872Y-7096484D01*
X4575872Y-7096484D02*
X4556824Y-7086960D01*
X4556824Y-7086960D02*
X4547301Y-7077436D01*
X4547301Y-7077436D02*
X4537777Y-7058388D01*
X4537777Y-7058388D02*
X4528253Y-7020293D01*
X4528253Y-7020293D02*
X4528253Y-6972674D01*
X4528253Y-6972674D02*
X4537777Y-6934579D01*
X4537777Y-6934579D02*
X4547301Y-6915531D01*
X4547301Y-6915531D02*
X4556824Y-6906008D01*
X4556824Y-6906008D02*
X4575872Y-6896484D01*
X4728253Y-7077436D02*
X4737777Y-7086960D01*
X4737777Y-7086960D02*
X4728253Y-7096484D01*
X4728253Y-7096484D02*
X4718729Y-7086960D01*
X4718729Y-7086960D02*
X4728253Y-7077436D01*
X4728253Y-7077436D02*
X4728253Y-7096484D01*
X4804444Y-6896484D02*
X4928253Y-6896484D01*
X4928253Y-6896484D02*
X4861586Y-6972674D01*
X4861586Y-6972674D02*
X4890158Y-6972674D01*
X4890158Y-6972674D02*
X4909205Y-6982198D01*
X4909205Y-6982198D02*
X4918729Y-6991722D01*
X4918729Y-6991722D02*
X4928253Y-7010769D01*
X4928253Y-7010769D02*
X4928253Y-7058388D01*
X4928253Y-7058388D02*
X4918729Y-7077436D01*
X4918729Y-7077436D02*
X4909205Y-7086960D01*
X4909205Y-7086960D02*
X4890158Y-7096484D01*
X4890158Y-7096484D02*
X4833015Y-7096484D01*
X4833015Y-7096484D02*
X4813967Y-7086960D01*
X4813967Y-7086960D02*
X4804444Y-7077436D01*
X5052063Y-6896484D02*
X5071110Y-6896484D01*
X5071110Y-6896484D02*
X5090158Y-6906008D01*
X5090158Y-6906008D02*
X5099682Y-6915531D01*
X5099682Y-6915531D02*
X5109205Y-6934579D01*
X5109205Y-6934579D02*
X5118729Y-6972674D01*
X5118729Y-6972674D02*
X5118729Y-7020293D01*
X5118729Y-7020293D02*
X5109205Y-7058388D01*
X5109205Y-7058388D02*
X5099682Y-7077436D01*
X5099682Y-7077436D02*
X5090158Y-7086960D01*
X5090158Y-7086960D02*
X5071110Y-7096484D01*
X5071110Y-7096484D02*
X5052063Y-7096484D01*
X5052063Y-7096484D02*
X5033015Y-7086960D01*
X5033015Y-7086960D02*
X5023491Y-7077436D01*
X5023491Y-7077436D02*
X5013967Y-7058388D01*
X5013967Y-7058388D02*
X5004444Y-7020293D01*
X5004444Y-7020293D02*
X5004444Y-6972674D01*
X5004444Y-6972674D02*
X5013967Y-6934579D01*
X5013967Y-6934579D02*
X5023491Y-6915531D01*
X5023491Y-6915531D02*
X5033015Y-6906008D01*
X5033015Y-6906008D02*
X5052063Y-6896484D01*
X5242539Y-6896484D02*
X5261586Y-6896484D01*
X5261586Y-6896484D02*
X5280634Y-6906008D01*
X5280634Y-6906008D02*
X5290158Y-6915531D01*
X5290158Y-6915531D02*
X5299682Y-6934579D01*
X5299682Y-6934579D02*
X5309205Y-6972674D01*
X5309205Y-6972674D02*
X5309205Y-7020293D01*
X5309205Y-7020293D02*
X5299682Y-7058388D01*
X5299682Y-7058388D02*
X5290158Y-7077436D01*
X5290158Y-7077436D02*
X5280634Y-7086960D01*
X5280634Y-7086960D02*
X5261586Y-7096484D01*
X5261586Y-7096484D02*
X5242539Y-7096484D01*
X5242539Y-7096484D02*
X5223491Y-7086960D01*
X5223491Y-7086960D02*
X5213967Y-7077436D01*
X5213967Y-7077436D02*
X5204444Y-7058388D01*
X5204444Y-7058388D02*
X5194920Y-7020293D01*
X5194920Y-7020293D02*
X5194920Y-6972674D01*
X5194920Y-6972674D02*
X5204444Y-6934579D01*
X5204444Y-6934579D02*
X5213967Y-6915531D01*
X5213967Y-6915531D02*
X5223491Y-6906008D01*
X5223491Y-6906008D02*
X5242539Y-6896484D01*
X5394920Y-7096484D02*
X5394920Y-6963150D01*
X5394920Y-6982198D02*
X5404444Y-6972674D01*
X5404444Y-6972674D02*
X5423491Y-6963150D01*
X5423491Y-6963150D02*
X5452063Y-6963150D01*
X5452063Y-6963150D02*
X5471110Y-6972674D01*
X5471110Y-6972674D02*
X5480634Y-6991722D01*
X5480634Y-6991722D02*
X5480634Y-7096484D01*
X5480634Y-6991722D02*
X5490158Y-6972674D01*
X5490158Y-6972674D02*
X5509205Y-6963150D01*
X5509205Y-6963150D02*
X5537777Y-6963150D01*
X5537777Y-6963150D02*
X5556825Y-6972674D01*
X5556825Y-6972674D02*
X5566348Y-6991722D01*
X5566348Y-6991722D02*
X5566348Y-7096484D01*
X5661586Y-7096484D02*
X5661586Y-6963150D01*
X5661586Y-6982198D02*
X5671110Y-6972674D01*
X5671110Y-6972674D02*
X5690158Y-6963150D01*
X5690158Y-6963150D02*
X5718729Y-6963150D01*
X5718729Y-6963150D02*
X5737777Y-6972674D01*
X5737777Y-6972674D02*
X5747301Y-6991722D01*
X5747301Y-6991722D02*
X5747301Y-7096484D01*
X5747301Y-6991722D02*
X5756824Y-6972674D01*
X5756824Y-6972674D02*
X5775872Y-6963150D01*
X5775872Y-6963150D02*
X5804443Y-6963150D01*
X5804443Y-6963150D02*
X5823491Y-6972674D01*
X5823491Y-6972674D02*
X5833015Y-6991722D01*
X5833015Y-6991722D02*
X5833015Y-7096484D01*
X6223491Y-6886960D02*
X6052063Y-7144103D01*
X6480634Y-6896484D02*
X6499682Y-6896484D01*
X6499682Y-6896484D02*
X6518729Y-6906008D01*
X6518729Y-6906008D02*
X6528253Y-6915531D01*
X6528253Y-6915531D02*
X6537777Y-6934579D01*
X6537777Y-6934579D02*
X6547301Y-6972674D01*
X6547301Y-6972674D02*
X6547301Y-7020293D01*
X6547301Y-7020293D02*
X6537777Y-7058388D01*
X6537777Y-7058388D02*
X6528253Y-7077436D01*
X6528253Y-7077436D02*
X6518729Y-7086960D01*
X6518729Y-7086960D02*
X6499682Y-7096484D01*
X6499682Y-7096484D02*
X6480634Y-7096484D01*
X6480634Y-7096484D02*
X6461586Y-7086960D01*
X6461586Y-7086960D02*
X6452063Y-7077436D01*
X6452063Y-7077436D02*
X6442539Y-7058388D01*
X6442539Y-7058388D02*
X6433015Y-7020293D01*
X6433015Y-7020293D02*
X6433015Y-6972674D01*
X6433015Y-6972674D02*
X6442539Y-6934579D01*
X6442539Y-6934579D02*
X6452063Y-6915531D01*
X6452063Y-6915531D02*
X6461586Y-6906008D01*
X6461586Y-6906008D02*
X6480634Y-6896484D01*
X6633015Y-7077436D02*
X6642539Y-7086960D01*
X6642539Y-7086960D02*
X6633015Y-7096484D01*
X6633015Y-7096484D02*
X6623491Y-7086960D01*
X6623491Y-7086960D02*
X6633015Y-7077436D01*
X6633015Y-7077436D02*
X6633015Y-7096484D01*
X6766348Y-6896484D02*
X6785396Y-6896484D01*
X6785396Y-6896484D02*
X6804444Y-6906008D01*
X6804444Y-6906008D02*
X6813967Y-6915531D01*
X6813967Y-6915531D02*
X6823491Y-6934579D01*
X6823491Y-6934579D02*
X6833015Y-6972674D01*
X6833015Y-6972674D02*
X6833015Y-7020293D01*
X6833015Y-7020293D02*
X6823491Y-7058388D01*
X6823491Y-7058388D02*
X6813967Y-7077436D01*
X6813967Y-7077436D02*
X6804444Y-7086960D01*
X6804444Y-7086960D02*
X6785396Y-7096484D01*
X6785396Y-7096484D02*
X6766348Y-7096484D01*
X6766348Y-7096484D02*
X6747301Y-7086960D01*
X6747301Y-7086960D02*
X6737777Y-7077436D01*
X6737777Y-7077436D02*
X6728253Y-7058388D01*
X6728253Y-7058388D02*
X6718729Y-7020293D01*
X6718729Y-7020293D02*
X6718729Y-6972674D01*
X6718729Y-6972674D02*
X6728253Y-6934579D01*
X6728253Y-6934579D02*
X6737777Y-6915531D01*
X6737777Y-6915531D02*
X6747301Y-6906008D01*
X6747301Y-6906008D02*
X6766348Y-6896484D01*
X7023491Y-7096484D02*
X6909206Y-7096484D01*
X6966348Y-7096484D02*
X6966348Y-6896484D01*
X6966348Y-6896484D02*
X6947301Y-6925055D01*
X6947301Y-6925055D02*
X6928253Y-6944103D01*
X6928253Y-6944103D02*
X6909206Y-6953627D01*
X7213967Y-7096484D02*
X7099682Y-7096484D01*
X7156825Y-7096484D02*
X7156825Y-6896484D01*
X7156825Y-6896484D02*
X7137777Y-6925055D01*
X7137777Y-6925055D02*
X7118729Y-6944103D01*
X7118729Y-6944103D02*
X7099682Y-6953627D01*
X7328253Y-6982198D02*
X7309206Y-6972674D01*
X7309206Y-6972674D02*
X7299682Y-6963150D01*
X7299682Y-6963150D02*
X7290158Y-6944103D01*
X7290158Y-6944103D02*
X7290158Y-6934579D01*
X7290158Y-6934579D02*
X7299682Y-6915531D01*
X7299682Y-6915531D02*
X7309206Y-6906008D01*
X7309206Y-6906008D02*
X7328253Y-6896484D01*
X7328253Y-6896484D02*
X7366348Y-6896484D01*
X7366348Y-6896484D02*
X7385396Y-6906008D01*
X7385396Y-6906008D02*
X7394920Y-6915531D01*
X7394920Y-6915531D02*
X7404444Y-6934579D01*
X7404444Y-6934579D02*
X7404444Y-6944103D01*
X7404444Y-6944103D02*
X7394920Y-6963150D01*
X7394920Y-6963150D02*
X7385396Y-6972674D01*
X7385396Y-6972674D02*
X7366348Y-6982198D01*
X7366348Y-6982198D02*
X7328253Y-6982198D01*
X7328253Y-6982198D02*
X7309206Y-6991722D01*
X7309206Y-6991722D02*
X7299682Y-7001246D01*
X7299682Y-7001246D02*
X7290158Y-7020293D01*
X7290158Y-7020293D02*
X7290158Y-7058388D01*
X7290158Y-7058388D02*
X7299682Y-7077436D01*
X7299682Y-7077436D02*
X7309206Y-7086960D01*
X7309206Y-7086960D02*
X7328253Y-7096484D01*
X7328253Y-7096484D02*
X7366348Y-7096484D01*
X7366348Y-7096484D02*
X7385396Y-7086960D01*
X7385396Y-7086960D02*
X7394920Y-7077436D01*
X7394920Y-7077436D02*
X7404444Y-7058388D01*
X7404444Y-7058388D02*
X7404444Y-7020293D01*
X7404444Y-7020293D02*
X7394920Y-7001246D01*
X7394920Y-7001246D02*
X7385396Y-6991722D01*
X7385396Y-6991722D02*
X7366348Y-6982198D01*
X7480634Y-6896484D02*
X7480634Y-6934579D01*
X7556825Y-6896484D02*
X7556825Y-6934579D01*
X7852063Y-7172674D02*
X7842539Y-7163150D01*
X7842539Y-7163150D02*
X7823491Y-7134579D01*
X7823491Y-7134579D02*
X7813968Y-7115531D01*
X7813968Y-7115531D02*
X7804444Y-7086960D01*
X7804444Y-7086960D02*
X7794920Y-7039341D01*
X7794920Y-7039341D02*
X7794920Y-7001246D01*
X7794920Y-7001246D02*
X7804444Y-6953627D01*
X7804444Y-6953627D02*
X7813968Y-6925055D01*
X7813968Y-6925055D02*
X7823491Y-6906008D01*
X7823491Y-6906008D02*
X7842539Y-6877436D01*
X7842539Y-6877436D02*
X7852063Y-6867912D01*
X8013968Y-6896484D02*
X7975872Y-6896484D01*
X7975872Y-6896484D02*
X7956825Y-6906008D01*
X7956825Y-6906008D02*
X7947301Y-6915531D01*
X7947301Y-6915531D02*
X7928253Y-6944103D01*
X7928253Y-6944103D02*
X7918729Y-6982198D01*
X7918729Y-6982198D02*
X7918729Y-7058388D01*
X7918729Y-7058388D02*
X7928253Y-7077436D01*
X7928253Y-7077436D02*
X7937777Y-7086960D01*
X7937777Y-7086960D02*
X7956825Y-7096484D01*
X7956825Y-7096484D02*
X7994920Y-7096484D01*
X7994920Y-7096484D02*
X8013968Y-7086960D01*
X8013968Y-7086960D02*
X8023491Y-7077436D01*
X8023491Y-7077436D02*
X8033015Y-7058388D01*
X8033015Y-7058388D02*
X8033015Y-7010769D01*
X8033015Y-7010769D02*
X8023491Y-6991722D01*
X8023491Y-6991722D02*
X8013968Y-6982198D01*
X8013968Y-6982198D02*
X7994920Y-6972674D01*
X7994920Y-6972674D02*
X7956825Y-6972674D01*
X7956825Y-6972674D02*
X7937777Y-6982198D01*
X7937777Y-6982198D02*
X7928253Y-6991722D01*
X7928253Y-6991722D02*
X7918729Y-7010769D01*
X8128253Y-7096484D02*
X8166348Y-7096484D01*
X8166348Y-7096484D02*
X8185396Y-7086960D01*
X8185396Y-7086960D02*
X8194920Y-7077436D01*
X8194920Y-7077436D02*
X8213968Y-7048865D01*
X8213968Y-7048865D02*
X8223491Y-7010769D01*
X8223491Y-7010769D02*
X8223491Y-6934579D01*
X8223491Y-6934579D02*
X8213968Y-6915531D01*
X8213968Y-6915531D02*
X8204444Y-6906008D01*
X8204444Y-6906008D02*
X8185396Y-6896484D01*
X8185396Y-6896484D02*
X8147301Y-6896484D01*
X8147301Y-6896484D02*
X8128253Y-6906008D01*
X8128253Y-6906008D02*
X8118729Y-6915531D01*
X8118729Y-6915531D02*
X8109206Y-6934579D01*
X8109206Y-6934579D02*
X8109206Y-6982198D01*
X8109206Y-6982198D02*
X8118729Y-7001246D01*
X8118729Y-7001246D02*
X8128253Y-7010769D01*
X8128253Y-7010769D02*
X8147301Y-7020293D01*
X8147301Y-7020293D02*
X8185396Y-7020293D01*
X8185396Y-7020293D02*
X8204444Y-7010769D01*
X8204444Y-7010769D02*
X8213968Y-7001246D01*
X8213968Y-7001246D02*
X8223491Y-6982198D01*
X8461587Y-7096484D02*
X8461587Y-6896484D01*
X8547301Y-7096484D02*
X8547301Y-6991722D01*
X8547301Y-6991722D02*
X8537777Y-6972674D01*
X8537777Y-6972674D02*
X8518730Y-6963150D01*
X8518730Y-6963150D02*
X8490158Y-6963150D01*
X8490158Y-6963150D02*
X8471111Y-6972674D01*
X8471111Y-6972674D02*
X8461587Y-6982198D01*
X8671111Y-7096484D02*
X8652063Y-7086960D01*
X8652063Y-7086960D02*
X8642539Y-7077436D01*
X8642539Y-7077436D02*
X8633015Y-7058388D01*
X8633015Y-7058388D02*
X8633015Y-7001246D01*
X8633015Y-7001246D02*
X8642539Y-6982198D01*
X8642539Y-6982198D02*
X8652063Y-6972674D01*
X8652063Y-6972674D02*
X8671111Y-6963150D01*
X8671111Y-6963150D02*
X8699682Y-6963150D01*
X8699682Y-6963150D02*
X8718730Y-6972674D01*
X8718730Y-6972674D02*
X8728253Y-6982198D01*
X8728253Y-6982198D02*
X8737777Y-7001246D01*
X8737777Y-7001246D02*
X8737777Y-7058388D01*
X8737777Y-7058388D02*
X8728253Y-7077436D01*
X8728253Y-7077436D02*
X8718730Y-7086960D01*
X8718730Y-7086960D02*
X8699682Y-7096484D01*
X8699682Y-7096484D02*
X8671111Y-7096484D01*
X8852063Y-7096484D02*
X8833015Y-7086960D01*
X8833015Y-7086960D02*
X8823492Y-7067912D01*
X8823492Y-7067912D02*
X8823492Y-6896484D01*
X9004444Y-7086960D02*
X8985396Y-7096484D01*
X8985396Y-7096484D02*
X8947301Y-7096484D01*
X8947301Y-7096484D02*
X8928253Y-7086960D01*
X8928253Y-7086960D02*
X8918730Y-7067912D01*
X8918730Y-7067912D02*
X8918730Y-6991722D01*
X8918730Y-6991722D02*
X8928253Y-6972674D01*
X8928253Y-6972674D02*
X8947301Y-6963150D01*
X8947301Y-6963150D02*
X8985396Y-6963150D01*
X8985396Y-6963150D02*
X9004444Y-6972674D01*
X9004444Y-6972674D02*
X9013968Y-6991722D01*
X9013968Y-6991722D02*
X9013968Y-7010769D01*
X9013968Y-7010769D02*
X8918730Y-7029817D01*
X9090158Y-7086960D02*
X9109206Y-7096484D01*
X9109206Y-7096484D02*
X9147301Y-7096484D01*
X9147301Y-7096484D02*
X9166349Y-7086960D01*
X9166349Y-7086960D02*
X9175873Y-7067912D01*
X9175873Y-7067912D02*
X9175873Y-7058388D01*
X9175873Y-7058388D02*
X9166349Y-7039341D01*
X9166349Y-7039341D02*
X9147301Y-7029817D01*
X9147301Y-7029817D02*
X9118730Y-7029817D01*
X9118730Y-7029817D02*
X9099682Y-7020293D01*
X9099682Y-7020293D02*
X9090158Y-7001246D01*
X9090158Y-7001246D02*
X9090158Y-6991722D01*
X9090158Y-6991722D02*
X9099682Y-6972674D01*
X9099682Y-6972674D02*
X9118730Y-6963150D01*
X9118730Y-6963150D02*
X9147301Y-6963150D01*
X9147301Y-6963150D02*
X9166349Y-6972674D01*
X9242539Y-7172674D02*
X9252063Y-7163150D01*
X9252063Y-7163150D02*
X9271111Y-7134579D01*
X9271111Y-7134579D02*
X9280634Y-7115531D01*
X9280634Y-7115531D02*
X9290158Y-7086960D01*
X9290158Y-7086960D02*
X9299682Y-7039341D01*
X9299682Y-7039341D02*
X9299682Y-7001246D01*
X9299682Y-7001246D02*
X9290158Y-6953627D01*
X9290158Y-6953627D02*
X9280634Y-6925055D01*
X9280634Y-6925055D02*
X9271111Y-6906008D01*
X9271111Y-6906008D02*
X9252063Y-6877436D01*
X9252063Y-6877436D02*
X9242539Y-6867912D01*
D10*
X4277000Y-7269000D02*
G75*
G02*
X4227000Y-7269000I-25000J0D01*
G01*
X4227000Y-7269000D02*
G75*
G02*
X4277000Y-7269000I25000J0D01*
G01*
D11*
X4575872Y-7160484D02*
X4594920Y-7160484D01*
X4594920Y-7160484D02*
X4613967Y-7170008D01*
X4613967Y-7170008D02*
X4623491Y-7179531D01*
X4623491Y-7179531D02*
X4633015Y-7198579D01*
X4633015Y-7198579D02*
X4642539Y-7236674D01*
X4642539Y-7236674D02*
X4642539Y-7284293D01*
X4642539Y-7284293D02*
X4633015Y-7322388D01*
X4633015Y-7322388D02*
X4623491Y-7341436D01*
X4623491Y-7341436D02*
X4613967Y-7350960D01*
X4613967Y-7350960D02*
X4594920Y-7360484D01*
X4594920Y-7360484D02*
X4575872Y-7360484D01*
X4575872Y-7360484D02*
X4556824Y-7350960D01*
X4556824Y-7350960D02*
X4547301Y-7341436D01*
X4547301Y-7341436D02*
X4537777Y-7322388D01*
X4537777Y-7322388D02*
X4528253Y-7284293D01*
X4528253Y-7284293D02*
X4528253Y-7236674D01*
X4528253Y-7236674D02*
X4537777Y-7198579D01*
X4537777Y-7198579D02*
X4547301Y-7179531D01*
X4547301Y-7179531D02*
X4556824Y-7170008D01*
X4556824Y-7170008D02*
X4575872Y-7160484D01*
X4728253Y-7341436D02*
X4737777Y-7350960D01*
X4737777Y-7350960D02*
X4728253Y-7360484D01*
X4728253Y-7360484D02*
X4718729Y-7350960D01*
X4718729Y-7350960D02*
X4728253Y-7341436D01*
X4728253Y-7341436D02*
X4728253Y-7360484D01*
X4918729Y-7160484D02*
X4823491Y-7160484D01*
X4823491Y-7160484D02*
X4813967Y-7255722D01*
X4813967Y-7255722D02*
X4823491Y-7246198D01*
X4823491Y-7246198D02*
X4842539Y-7236674D01*
X4842539Y-7236674D02*
X4890158Y-7236674D01*
X4890158Y-7236674D02*
X4909205Y-7246198D01*
X4909205Y-7246198D02*
X4918729Y-7255722D01*
X4918729Y-7255722D02*
X4928253Y-7274769D01*
X4928253Y-7274769D02*
X4928253Y-7322388D01*
X4928253Y-7322388D02*
X4918729Y-7341436D01*
X4918729Y-7341436D02*
X4909205Y-7350960D01*
X4909205Y-7350960D02*
X4890158Y-7360484D01*
X4890158Y-7360484D02*
X4842539Y-7360484D01*
X4842539Y-7360484D02*
X4823491Y-7350960D01*
X4823491Y-7350960D02*
X4813967Y-7341436D01*
X5052063Y-7160484D02*
X5071110Y-7160484D01*
X5071110Y-7160484D02*
X5090158Y-7170008D01*
X5090158Y-7170008D02*
X5099682Y-7179531D01*
X5099682Y-7179531D02*
X5109205Y-7198579D01*
X5109205Y-7198579D02*
X5118729Y-7236674D01*
X5118729Y-7236674D02*
X5118729Y-7284293D01*
X5118729Y-7284293D02*
X5109205Y-7322388D01*
X5109205Y-7322388D02*
X5099682Y-7341436D01*
X5099682Y-7341436D02*
X5090158Y-7350960D01*
X5090158Y-7350960D02*
X5071110Y-7360484D01*
X5071110Y-7360484D02*
X5052063Y-7360484D01*
X5052063Y-7360484D02*
X5033015Y-7350960D01*
X5033015Y-7350960D02*
X5023491Y-7341436D01*
X5023491Y-7341436D02*
X5013967Y-7322388D01*
X5013967Y-7322388D02*
X5004444Y-7284293D01*
X5004444Y-7284293D02*
X5004444Y-7236674D01*
X5004444Y-7236674D02*
X5013967Y-7198579D01*
X5013967Y-7198579D02*
X5023491Y-7179531D01*
X5023491Y-7179531D02*
X5033015Y-7170008D01*
X5033015Y-7170008D02*
X5052063Y-7160484D01*
X5242539Y-7160484D02*
X5261586Y-7160484D01*
X5261586Y-7160484D02*
X5280634Y-7170008D01*
X5280634Y-7170008D02*
X5290158Y-7179531D01*
X5290158Y-7179531D02*
X5299682Y-7198579D01*
X5299682Y-7198579D02*
X5309205Y-7236674D01*
X5309205Y-7236674D02*
X5309205Y-7284293D01*
X5309205Y-7284293D02*
X5299682Y-7322388D01*
X5299682Y-7322388D02*
X5290158Y-7341436D01*
X5290158Y-7341436D02*
X5280634Y-7350960D01*
X5280634Y-7350960D02*
X5261586Y-7360484D01*
X5261586Y-7360484D02*
X5242539Y-7360484D01*
X5242539Y-7360484D02*
X5223491Y-7350960D01*
X5223491Y-7350960D02*
X5213967Y-7341436D01*
X5213967Y-7341436D02*
X5204444Y-7322388D01*
X5204444Y-7322388D02*
X5194920Y-7284293D01*
X5194920Y-7284293D02*
X5194920Y-7236674D01*
X5194920Y-7236674D02*
X5204444Y-7198579D01*
X5204444Y-7198579D02*
X5213967Y-7179531D01*
X5213967Y-7179531D02*
X5223491Y-7170008D01*
X5223491Y-7170008D02*
X5242539Y-7160484D01*
X5394920Y-7360484D02*
X5394920Y-7227150D01*
X5394920Y-7246198D02*
X5404444Y-7236674D01*
X5404444Y-7236674D02*
X5423491Y-7227150D01*
X5423491Y-7227150D02*
X5452063Y-7227150D01*
X5452063Y-7227150D02*
X5471110Y-7236674D01*
X5471110Y-7236674D02*
X5480634Y-7255722D01*
X5480634Y-7255722D02*
X5480634Y-7360484D01*
X5480634Y-7255722D02*
X5490158Y-7236674D01*
X5490158Y-7236674D02*
X5509205Y-7227150D01*
X5509205Y-7227150D02*
X5537777Y-7227150D01*
X5537777Y-7227150D02*
X5556825Y-7236674D01*
X5556825Y-7236674D02*
X5566348Y-7255722D01*
X5566348Y-7255722D02*
X5566348Y-7360484D01*
X5661586Y-7360484D02*
X5661586Y-7227150D01*
X5661586Y-7246198D02*
X5671110Y-7236674D01*
X5671110Y-7236674D02*
X5690158Y-7227150D01*
X5690158Y-7227150D02*
X5718729Y-7227150D01*
X5718729Y-7227150D02*
X5737777Y-7236674D01*
X5737777Y-7236674D02*
X5747301Y-7255722D01*
X5747301Y-7255722D02*
X5747301Y-7360484D01*
X5747301Y-7255722D02*
X5756824Y-7236674D01*
X5756824Y-7236674D02*
X5775872Y-7227150D01*
X5775872Y-7227150D02*
X5804443Y-7227150D01*
X5804443Y-7227150D02*
X5823491Y-7236674D01*
X5823491Y-7236674D02*
X5833015Y-7255722D01*
X5833015Y-7255722D02*
X5833015Y-7360484D01*
X6223491Y-7150960D02*
X6052063Y-7408103D01*
X6480634Y-7160484D02*
X6499682Y-7160484D01*
X6499682Y-7160484D02*
X6518729Y-7170008D01*
X6518729Y-7170008D02*
X6528253Y-7179531D01*
X6528253Y-7179531D02*
X6537777Y-7198579D01*
X6537777Y-7198579D02*
X6547301Y-7236674D01*
X6547301Y-7236674D02*
X6547301Y-7284293D01*
X6547301Y-7284293D02*
X6537777Y-7322388D01*
X6537777Y-7322388D02*
X6528253Y-7341436D01*
X6528253Y-7341436D02*
X6518729Y-7350960D01*
X6518729Y-7350960D02*
X6499682Y-7360484D01*
X6499682Y-7360484D02*
X6480634Y-7360484D01*
X6480634Y-7360484D02*
X6461586Y-7350960D01*
X6461586Y-7350960D02*
X6452063Y-7341436D01*
X6452063Y-7341436D02*
X6442539Y-7322388D01*
X6442539Y-7322388D02*
X6433015Y-7284293D01*
X6433015Y-7284293D02*
X6433015Y-7236674D01*
X6433015Y-7236674D02*
X6442539Y-7198579D01*
X6442539Y-7198579D02*
X6452063Y-7179531D01*
X6452063Y-7179531D02*
X6461586Y-7170008D01*
X6461586Y-7170008D02*
X6480634Y-7160484D01*
X6633015Y-7341436D02*
X6642539Y-7350960D01*
X6642539Y-7350960D02*
X6633015Y-7360484D01*
X6633015Y-7360484D02*
X6623491Y-7350960D01*
X6623491Y-7350960D02*
X6633015Y-7341436D01*
X6633015Y-7341436D02*
X6633015Y-7360484D01*
X6766348Y-7160484D02*
X6785396Y-7160484D01*
X6785396Y-7160484D02*
X6804444Y-7170008D01*
X6804444Y-7170008D02*
X6813967Y-7179531D01*
X6813967Y-7179531D02*
X6823491Y-7198579D01*
X6823491Y-7198579D02*
X6833015Y-7236674D01*
X6833015Y-7236674D02*
X6833015Y-7284293D01*
X6833015Y-7284293D02*
X6823491Y-7322388D01*
X6823491Y-7322388D02*
X6813967Y-7341436D01*
X6813967Y-7341436D02*
X6804444Y-7350960D01*
X6804444Y-7350960D02*
X6785396Y-7360484D01*
X6785396Y-7360484D02*
X6766348Y-7360484D01*
X6766348Y-7360484D02*
X6747301Y-7350960D01*
X6747301Y-7350960D02*
X6737777Y-7341436D01*
X6737777Y-7341436D02*
X6728253Y-7322388D01*
X6728253Y-7322388D02*
X6718729Y-7284293D01*
X6718729Y-7284293D02*
X6718729Y-7236674D01*
X6718729Y-7236674D02*
X6728253Y-7198579D01*
X6728253Y-7198579D02*
X6737777Y-7179531D01*
X6737777Y-7179531D02*
X6747301Y-7170008D01*
X6747301Y-7170008D02*
X6766348Y-7160484D01*
X7023491Y-7360484D02*
X6909206Y-7360484D01*
X6966348Y-7360484D02*
X6966348Y-7160484D01*
X6966348Y-7160484D02*
X6947301Y-7189055D01*
X6947301Y-7189055D02*
X6928253Y-7208103D01*
X6928253Y-7208103D02*
X6909206Y-7217627D01*
X7118729Y-7360484D02*
X7156825Y-7360484D01*
X7156825Y-7360484D02*
X7175872Y-7350960D01*
X7175872Y-7350960D02*
X7185396Y-7341436D01*
X7185396Y-7341436D02*
X7204444Y-7312865D01*
X7204444Y-7312865D02*
X7213967Y-7274769D01*
X7213967Y-7274769D02*
X7213967Y-7198579D01*
X7213967Y-7198579D02*
X7204444Y-7179531D01*
X7204444Y-7179531D02*
X7194920Y-7170008D01*
X7194920Y-7170008D02*
X7175872Y-7160484D01*
X7175872Y-7160484D02*
X7137777Y-7160484D01*
X7137777Y-7160484D02*
X7118729Y-7170008D01*
X7118729Y-7170008D02*
X7109206Y-7179531D01*
X7109206Y-7179531D02*
X7099682Y-7198579D01*
X7099682Y-7198579D02*
X7099682Y-7246198D01*
X7099682Y-7246198D02*
X7109206Y-7265246D01*
X7109206Y-7265246D02*
X7118729Y-7274769D01*
X7118729Y-7274769D02*
X7137777Y-7284293D01*
X7137777Y-7284293D02*
X7175872Y-7284293D01*
X7175872Y-7284293D02*
X7194920Y-7274769D01*
X7194920Y-7274769D02*
X7204444Y-7265246D01*
X7204444Y-7265246D02*
X7213967Y-7246198D01*
X7280634Y-7160484D02*
X7413967Y-7160484D01*
X7413967Y-7160484D02*
X7328253Y-7360484D01*
X7480634Y-7160484D02*
X7480634Y-7198579D01*
X7556825Y-7160484D02*
X7556825Y-7198579D01*
X7852063Y-7436674D02*
X7842539Y-7427150D01*
X7842539Y-7427150D02*
X7823491Y-7398579D01*
X7823491Y-7398579D02*
X7813968Y-7379531D01*
X7813968Y-7379531D02*
X7804444Y-7350960D01*
X7804444Y-7350960D02*
X7794920Y-7303341D01*
X7794920Y-7303341D02*
X7794920Y-7265246D01*
X7794920Y-7265246D02*
X7804444Y-7217627D01*
X7804444Y-7217627D02*
X7813968Y-7189055D01*
X7813968Y-7189055D02*
X7823491Y-7170008D01*
X7823491Y-7170008D02*
X7842539Y-7141436D01*
X7842539Y-7141436D02*
X7852063Y-7131912D01*
X8013968Y-7160484D02*
X7975872Y-7160484D01*
X7975872Y-7160484D02*
X7956825Y-7170008D01*
X7956825Y-7170008D02*
X7947301Y-7179531D01*
X7947301Y-7179531D02*
X7928253Y-7208103D01*
X7928253Y-7208103D02*
X7918729Y-7246198D01*
X7918729Y-7246198D02*
X7918729Y-7322388D01*
X7918729Y-7322388D02*
X7928253Y-7341436D01*
X7928253Y-7341436D02*
X7937777Y-7350960D01*
X7937777Y-7350960D02*
X7956825Y-7360484D01*
X7956825Y-7360484D02*
X7994920Y-7360484D01*
X7994920Y-7360484D02*
X8013968Y-7350960D01*
X8013968Y-7350960D02*
X8023491Y-7341436D01*
X8023491Y-7341436D02*
X8033015Y-7322388D01*
X8033015Y-7322388D02*
X8033015Y-7274769D01*
X8033015Y-7274769D02*
X8023491Y-7255722D01*
X8023491Y-7255722D02*
X8013968Y-7246198D01*
X8013968Y-7246198D02*
X7994920Y-7236674D01*
X7994920Y-7236674D02*
X7956825Y-7236674D01*
X7956825Y-7236674D02*
X7937777Y-7246198D01*
X7937777Y-7246198D02*
X7928253Y-7255722D01*
X7928253Y-7255722D02*
X7918729Y-7274769D01*
X8271110Y-7360484D02*
X8271110Y-7160484D01*
X8356825Y-7360484D02*
X8356825Y-7255722D01*
X8356825Y-7255722D02*
X8347301Y-7236674D01*
X8347301Y-7236674D02*
X8328253Y-7227150D01*
X8328253Y-7227150D02*
X8299682Y-7227150D01*
X8299682Y-7227150D02*
X8280634Y-7236674D01*
X8280634Y-7236674D02*
X8271110Y-7246198D01*
X8480634Y-7360484D02*
X8461587Y-7350960D01*
X8461587Y-7350960D02*
X8452063Y-7341436D01*
X8452063Y-7341436D02*
X8442539Y-7322388D01*
X8442539Y-7322388D02*
X8442539Y-7265246D01*
X8442539Y-7265246D02*
X8452063Y-7246198D01*
X8452063Y-7246198D02*
X8461587Y-7236674D01*
X8461587Y-7236674D02*
X8480634Y-7227150D01*
X8480634Y-7227150D02*
X8509206Y-7227150D01*
X8509206Y-7227150D02*
X8528253Y-7236674D01*
X8528253Y-7236674D02*
X8537777Y-7246198D01*
X8537777Y-7246198D02*
X8547301Y-7265246D01*
X8547301Y-7265246D02*
X8547301Y-7322388D01*
X8547301Y-7322388D02*
X8537777Y-7341436D01*
X8537777Y-7341436D02*
X8528253Y-7350960D01*
X8528253Y-7350960D02*
X8509206Y-7360484D01*
X8509206Y-7360484D02*
X8480634Y-7360484D01*
X8661587Y-7360484D02*
X8642539Y-7350960D01*
X8642539Y-7350960D02*
X8633015Y-7331912D01*
X8633015Y-7331912D02*
X8633015Y-7160484D01*
X8813968Y-7350960D02*
X8794920Y-7360484D01*
X8794920Y-7360484D02*
X8756825Y-7360484D01*
X8756825Y-7360484D02*
X8737777Y-7350960D01*
X8737777Y-7350960D02*
X8728253Y-7331912D01*
X8728253Y-7331912D02*
X8728253Y-7255722D01*
X8728253Y-7255722D02*
X8737777Y-7236674D01*
X8737777Y-7236674D02*
X8756825Y-7227150D01*
X8756825Y-7227150D02*
X8794920Y-7227150D01*
X8794920Y-7227150D02*
X8813968Y-7236674D01*
X8813968Y-7236674D02*
X8823492Y-7255722D01*
X8823492Y-7255722D02*
X8823492Y-7274769D01*
X8823492Y-7274769D02*
X8728253Y-7293817D01*
X8899682Y-7350960D02*
X8918730Y-7360484D01*
X8918730Y-7360484D02*
X8956825Y-7360484D01*
X8956825Y-7360484D02*
X8975873Y-7350960D01*
X8975873Y-7350960D02*
X8985396Y-7331912D01*
X8985396Y-7331912D02*
X8985396Y-7322388D01*
X8985396Y-7322388D02*
X8975873Y-7303341D01*
X8975873Y-7303341D02*
X8956825Y-7293817D01*
X8956825Y-7293817D02*
X8928253Y-7293817D01*
X8928253Y-7293817D02*
X8909206Y-7284293D01*
X8909206Y-7284293D02*
X8899682Y-7265246D01*
X8899682Y-7265246D02*
X8899682Y-7255722D01*
X8899682Y-7255722D02*
X8909206Y-7236674D01*
X8909206Y-7236674D02*
X8928253Y-7227150D01*
X8928253Y-7227150D02*
X8956825Y-7227150D01*
X8956825Y-7227150D02*
X8975873Y-7236674D01*
X9223492Y-7284293D02*
X9375873Y-7284293D01*
X9299682Y-7360484D02*
X9299682Y-7208103D01*
X9613968Y-7179531D02*
X9623492Y-7170008D01*
X9623492Y-7170008D02*
X9642539Y-7160484D01*
X9642539Y-7160484D02*
X9690158Y-7160484D01*
X9690158Y-7160484D02*
X9709206Y-7170008D01*
X9709206Y-7170008D02*
X9718730Y-7179531D01*
X9718730Y-7179531D02*
X9728254Y-7198579D01*
X9728254Y-7198579D02*
X9728254Y-7217627D01*
X9728254Y-7217627D02*
X9718730Y-7246198D01*
X9718730Y-7246198D02*
X9604444Y-7360484D01*
X9604444Y-7360484D02*
X9728254Y-7360484D01*
X9956825Y-7350960D02*
X9975873Y-7360484D01*
X9975873Y-7360484D02*
X10013968Y-7360484D01*
X10013968Y-7360484D02*
X10033016Y-7350960D01*
X10033016Y-7350960D02*
X10042539Y-7331912D01*
X10042539Y-7331912D02*
X10042539Y-7322388D01*
X10042539Y-7322388D02*
X10033016Y-7303341D01*
X10033016Y-7303341D02*
X10013968Y-7293817D01*
X10013968Y-7293817D02*
X9985396Y-7293817D01*
X9985396Y-7293817D02*
X9966349Y-7284293D01*
X9966349Y-7284293D02*
X9956825Y-7265246D01*
X9956825Y-7265246D02*
X9956825Y-7255722D01*
X9956825Y-7255722D02*
X9966349Y-7236674D01*
X9966349Y-7236674D02*
X9985396Y-7227150D01*
X9985396Y-7227150D02*
X10013968Y-7227150D01*
X10013968Y-7227150D02*
X10033016Y-7236674D01*
X10156825Y-7360484D02*
X10137777Y-7350960D01*
X10137777Y-7350960D02*
X10128254Y-7331912D01*
X10128254Y-7331912D02*
X10128254Y-7160484D01*
X10261587Y-7360484D02*
X10242539Y-7350960D01*
X10242539Y-7350960D02*
X10233016Y-7341436D01*
X10233016Y-7341436D02*
X10223492Y-7322388D01*
X10223492Y-7322388D02*
X10223492Y-7265246D01*
X10223492Y-7265246D02*
X10233016Y-7246198D01*
X10233016Y-7246198D02*
X10242539Y-7236674D01*
X10242539Y-7236674D02*
X10261587Y-7227150D01*
X10261587Y-7227150D02*
X10290158Y-7227150D01*
X10290158Y-7227150D02*
X10309206Y-7236674D01*
X10309206Y-7236674D02*
X10318730Y-7246198D01*
X10318730Y-7246198D02*
X10328254Y-7265246D01*
X10328254Y-7265246D02*
X10328254Y-7322388D01*
X10328254Y-7322388D02*
X10318730Y-7341436D01*
X10318730Y-7341436D02*
X10309206Y-7350960D01*
X10309206Y-7350960D02*
X10290158Y-7360484D01*
X10290158Y-7360484D02*
X10261587Y-7360484D01*
X10385397Y-7227150D02*
X10461587Y-7227150D01*
X10413968Y-7160484D02*
X10413968Y-7331912D01*
X10413968Y-7331912D02*
X10423492Y-7350960D01*
X10423492Y-7350960D02*
X10442539Y-7360484D01*
X10442539Y-7360484D02*
X10461587Y-7360484D01*
X10518730Y-7350960D02*
X10537777Y-7360484D01*
X10537777Y-7360484D02*
X10575873Y-7360484D01*
X10575873Y-7360484D02*
X10594920Y-7350960D01*
X10594920Y-7350960D02*
X10604444Y-7331912D01*
X10604444Y-7331912D02*
X10604444Y-7322388D01*
X10604444Y-7322388D02*
X10594920Y-7303341D01*
X10594920Y-7303341D02*
X10575873Y-7293817D01*
X10575873Y-7293817D02*
X10547301Y-7293817D01*
X10547301Y-7293817D02*
X10528254Y-7284293D01*
X10528254Y-7284293D02*
X10518730Y-7265246D01*
X10518730Y-7265246D02*
X10518730Y-7255722D01*
X10518730Y-7255722D02*
X10528254Y-7236674D01*
X10528254Y-7236674D02*
X10547301Y-7227150D01*
X10547301Y-7227150D02*
X10575873Y-7227150D01*
X10575873Y-7227150D02*
X10594920Y-7236674D01*
X10671111Y-7436674D02*
X10680635Y-7427150D01*
X10680635Y-7427150D02*
X10699682Y-7398579D01*
X10699682Y-7398579D02*
X10709206Y-7379531D01*
X10709206Y-7379531D02*
X10718730Y-7350960D01*
X10718730Y-7350960D02*
X10728254Y-7303341D01*
X10728254Y-7303341D02*
X10728254Y-7265246D01*
X10728254Y-7265246D02*
X10718730Y-7217627D01*
X10718730Y-7217627D02*
X10709206Y-7189055D01*
X10709206Y-7189055D02*
X10699682Y-7170008D01*
X10699682Y-7170008D02*
X10680635Y-7141436D01*
X10680635Y-7141436D02*
X10671111Y-7131912D01*
D10*
X4249500Y-7505500D02*
X4249500Y-7560500D01*
X4222000Y-7533000D02*
X4277000Y-7533000D01*
D11*
X4575872Y-7424484D02*
X4594920Y-7424484D01*
X4594920Y-7424484D02*
X4613967Y-7434008D01*
X4613967Y-7434008D02*
X4623491Y-7443531D01*
X4623491Y-7443531D02*
X4633015Y-7462579D01*
X4633015Y-7462579D02*
X4642539Y-7500674D01*
X4642539Y-7500674D02*
X4642539Y-7548293D01*
X4642539Y-7548293D02*
X4633015Y-7586388D01*
X4633015Y-7586388D02*
X4623491Y-7605436D01*
X4623491Y-7605436D02*
X4613967Y-7614960D01*
X4613967Y-7614960D02*
X4594920Y-7624484D01*
X4594920Y-7624484D02*
X4575872Y-7624484D01*
X4575872Y-7624484D02*
X4556824Y-7614960D01*
X4556824Y-7614960D02*
X4547301Y-7605436D01*
X4547301Y-7605436D02*
X4537777Y-7586388D01*
X4537777Y-7586388D02*
X4528253Y-7548293D01*
X4528253Y-7548293D02*
X4528253Y-7500674D01*
X4528253Y-7500674D02*
X4537777Y-7462579D01*
X4537777Y-7462579D02*
X4547301Y-7443531D01*
X4547301Y-7443531D02*
X4556824Y-7434008D01*
X4556824Y-7434008D02*
X4575872Y-7424484D01*
X4728253Y-7605436D02*
X4737777Y-7614960D01*
X4737777Y-7614960D02*
X4728253Y-7624484D01*
X4728253Y-7624484D02*
X4718729Y-7614960D01*
X4718729Y-7614960D02*
X4728253Y-7605436D01*
X4728253Y-7605436D02*
X4728253Y-7624484D01*
X4918729Y-7424484D02*
X4823491Y-7424484D01*
X4823491Y-7424484D02*
X4813967Y-7519722D01*
X4813967Y-7519722D02*
X4823491Y-7510198D01*
X4823491Y-7510198D02*
X4842539Y-7500674D01*
X4842539Y-7500674D02*
X4890158Y-7500674D01*
X4890158Y-7500674D02*
X4909205Y-7510198D01*
X4909205Y-7510198D02*
X4918729Y-7519722D01*
X4918729Y-7519722D02*
X4928253Y-7538769D01*
X4928253Y-7538769D02*
X4928253Y-7586388D01*
X4928253Y-7586388D02*
X4918729Y-7605436D01*
X4918729Y-7605436D02*
X4909205Y-7614960D01*
X4909205Y-7614960D02*
X4890158Y-7624484D01*
X4890158Y-7624484D02*
X4842539Y-7624484D01*
X4842539Y-7624484D02*
X4823491Y-7614960D01*
X4823491Y-7614960D02*
X4813967Y-7605436D01*
X5109205Y-7424484D02*
X5013967Y-7424484D01*
X5013967Y-7424484D02*
X5004444Y-7519722D01*
X5004444Y-7519722D02*
X5013967Y-7510198D01*
X5013967Y-7510198D02*
X5033015Y-7500674D01*
X5033015Y-7500674D02*
X5080634Y-7500674D01*
X5080634Y-7500674D02*
X5099682Y-7510198D01*
X5099682Y-7510198D02*
X5109205Y-7519722D01*
X5109205Y-7519722D02*
X5118729Y-7538769D01*
X5118729Y-7538769D02*
X5118729Y-7586388D01*
X5118729Y-7586388D02*
X5109205Y-7605436D01*
X5109205Y-7605436D02*
X5099682Y-7614960D01*
X5099682Y-7614960D02*
X5080634Y-7624484D01*
X5080634Y-7624484D02*
X5033015Y-7624484D01*
X5033015Y-7624484D02*
X5013967Y-7614960D01*
X5013967Y-7614960D02*
X5004444Y-7605436D01*
X5242539Y-7424484D02*
X5261586Y-7424484D01*
X5261586Y-7424484D02*
X5280634Y-7434008D01*
X5280634Y-7434008D02*
X5290158Y-7443531D01*
X5290158Y-7443531D02*
X5299682Y-7462579D01*
X5299682Y-7462579D02*
X5309205Y-7500674D01*
X5309205Y-7500674D02*
X5309205Y-7548293D01*
X5309205Y-7548293D02*
X5299682Y-7586388D01*
X5299682Y-7586388D02*
X5290158Y-7605436D01*
X5290158Y-7605436D02*
X5280634Y-7614960D01*
X5280634Y-7614960D02*
X5261586Y-7624484D01*
X5261586Y-7624484D02*
X5242539Y-7624484D01*
X5242539Y-7624484D02*
X5223491Y-7614960D01*
X5223491Y-7614960D02*
X5213967Y-7605436D01*
X5213967Y-7605436D02*
X5204444Y-7586388D01*
X5204444Y-7586388D02*
X5194920Y-7548293D01*
X5194920Y-7548293D02*
X5194920Y-7500674D01*
X5194920Y-7500674D02*
X5204444Y-7462579D01*
X5204444Y-7462579D02*
X5213967Y-7443531D01*
X5213967Y-7443531D02*
X5223491Y-7434008D01*
X5223491Y-7434008D02*
X5242539Y-7424484D01*
X5394920Y-7624484D02*
X5394920Y-7491150D01*
X5394920Y-7510198D02*
X5404444Y-7500674D01*
X5404444Y-7500674D02*
X5423491Y-7491150D01*
X5423491Y-7491150D02*
X5452063Y-7491150D01*
X5452063Y-7491150D02*
X5471110Y-7500674D01*
X5471110Y-7500674D02*
X5480634Y-7519722D01*
X5480634Y-7519722D02*
X5480634Y-7624484D01*
X5480634Y-7519722D02*
X5490158Y-7500674D01*
X5490158Y-7500674D02*
X5509205Y-7491150D01*
X5509205Y-7491150D02*
X5537777Y-7491150D01*
X5537777Y-7491150D02*
X5556825Y-7500674D01*
X5556825Y-7500674D02*
X5566348Y-7519722D01*
X5566348Y-7519722D02*
X5566348Y-7624484D01*
X5661586Y-7624484D02*
X5661586Y-7491150D01*
X5661586Y-7510198D02*
X5671110Y-7500674D01*
X5671110Y-7500674D02*
X5690158Y-7491150D01*
X5690158Y-7491150D02*
X5718729Y-7491150D01*
X5718729Y-7491150D02*
X5737777Y-7500674D01*
X5737777Y-7500674D02*
X5747301Y-7519722D01*
X5747301Y-7519722D02*
X5747301Y-7624484D01*
X5747301Y-7519722D02*
X5756824Y-7500674D01*
X5756824Y-7500674D02*
X5775872Y-7491150D01*
X5775872Y-7491150D02*
X5804443Y-7491150D01*
X5804443Y-7491150D02*
X5823491Y-7500674D01*
X5823491Y-7500674D02*
X5833015Y-7519722D01*
X5833015Y-7519722D02*
X5833015Y-7624484D01*
X6223491Y-7414960D02*
X6052063Y-7672103D01*
X6480634Y-7424484D02*
X6499682Y-7424484D01*
X6499682Y-7424484D02*
X6518729Y-7434008D01*
X6518729Y-7434008D02*
X6528253Y-7443531D01*
X6528253Y-7443531D02*
X6537777Y-7462579D01*
X6537777Y-7462579D02*
X6547301Y-7500674D01*
X6547301Y-7500674D02*
X6547301Y-7548293D01*
X6547301Y-7548293D02*
X6537777Y-7586388D01*
X6537777Y-7586388D02*
X6528253Y-7605436D01*
X6528253Y-7605436D02*
X6518729Y-7614960D01*
X6518729Y-7614960D02*
X6499682Y-7624484D01*
X6499682Y-7624484D02*
X6480634Y-7624484D01*
X6480634Y-7624484D02*
X6461586Y-7614960D01*
X6461586Y-7614960D02*
X6452063Y-7605436D01*
X6452063Y-7605436D02*
X6442539Y-7586388D01*
X6442539Y-7586388D02*
X6433015Y-7548293D01*
X6433015Y-7548293D02*
X6433015Y-7500674D01*
X6433015Y-7500674D02*
X6442539Y-7462579D01*
X6442539Y-7462579D02*
X6452063Y-7443531D01*
X6452063Y-7443531D02*
X6461586Y-7434008D01*
X6461586Y-7434008D02*
X6480634Y-7424484D01*
X6633015Y-7605436D02*
X6642539Y-7614960D01*
X6642539Y-7614960D02*
X6633015Y-7624484D01*
X6633015Y-7624484D02*
X6623491Y-7614960D01*
X6623491Y-7614960D02*
X6633015Y-7605436D01*
X6633015Y-7605436D02*
X6633015Y-7624484D01*
X6766348Y-7424484D02*
X6785396Y-7424484D01*
X6785396Y-7424484D02*
X6804444Y-7434008D01*
X6804444Y-7434008D02*
X6813967Y-7443531D01*
X6813967Y-7443531D02*
X6823491Y-7462579D01*
X6823491Y-7462579D02*
X6833015Y-7500674D01*
X6833015Y-7500674D02*
X6833015Y-7548293D01*
X6833015Y-7548293D02*
X6823491Y-7586388D01*
X6823491Y-7586388D02*
X6813967Y-7605436D01*
X6813967Y-7605436D02*
X6804444Y-7614960D01*
X6804444Y-7614960D02*
X6785396Y-7624484D01*
X6785396Y-7624484D02*
X6766348Y-7624484D01*
X6766348Y-7624484D02*
X6747301Y-7614960D01*
X6747301Y-7614960D02*
X6737777Y-7605436D01*
X6737777Y-7605436D02*
X6728253Y-7586388D01*
X6728253Y-7586388D02*
X6718729Y-7548293D01*
X6718729Y-7548293D02*
X6718729Y-7500674D01*
X6718729Y-7500674D02*
X6728253Y-7462579D01*
X6728253Y-7462579D02*
X6737777Y-7443531D01*
X6737777Y-7443531D02*
X6747301Y-7434008D01*
X6747301Y-7434008D02*
X6766348Y-7424484D01*
X6909206Y-7443531D02*
X6918729Y-7434008D01*
X6918729Y-7434008D02*
X6937777Y-7424484D01*
X6937777Y-7424484D02*
X6985396Y-7424484D01*
X6985396Y-7424484D02*
X7004444Y-7434008D01*
X7004444Y-7434008D02*
X7013967Y-7443531D01*
X7013967Y-7443531D02*
X7023491Y-7462579D01*
X7023491Y-7462579D02*
X7023491Y-7481627D01*
X7023491Y-7481627D02*
X7013967Y-7510198D01*
X7013967Y-7510198D02*
X6899682Y-7624484D01*
X6899682Y-7624484D02*
X7023491Y-7624484D01*
X7213967Y-7624484D02*
X7099682Y-7624484D01*
X7156825Y-7624484D02*
X7156825Y-7424484D01*
X7156825Y-7424484D02*
X7137777Y-7453055D01*
X7137777Y-7453055D02*
X7118729Y-7472103D01*
X7118729Y-7472103D02*
X7099682Y-7481627D01*
X7280634Y-7424484D02*
X7413967Y-7424484D01*
X7413967Y-7424484D02*
X7328253Y-7624484D01*
X7480634Y-7424484D02*
X7480634Y-7462579D01*
X7556825Y-7424484D02*
X7556825Y-7462579D01*
X7852063Y-7700674D02*
X7842539Y-7691150D01*
X7842539Y-7691150D02*
X7823491Y-7662579D01*
X7823491Y-7662579D02*
X7813968Y-7643531D01*
X7813968Y-7643531D02*
X7804444Y-7614960D01*
X7804444Y-7614960D02*
X7794920Y-7567341D01*
X7794920Y-7567341D02*
X7794920Y-7529246D01*
X7794920Y-7529246D02*
X7804444Y-7481627D01*
X7804444Y-7481627D02*
X7813968Y-7453055D01*
X7813968Y-7453055D02*
X7823491Y-7434008D01*
X7823491Y-7434008D02*
X7842539Y-7405436D01*
X7842539Y-7405436D02*
X7852063Y-7395912D01*
X7966348Y-7424484D02*
X7985396Y-7424484D01*
X7985396Y-7424484D02*
X8004444Y-7434008D01*
X8004444Y-7434008D02*
X8013968Y-7443531D01*
X8013968Y-7443531D02*
X8023491Y-7462579D01*
X8023491Y-7462579D02*
X8033015Y-7500674D01*
X8033015Y-7500674D02*
X8033015Y-7548293D01*
X8033015Y-7548293D02*
X8023491Y-7586388D01*
X8023491Y-7586388D02*
X8013968Y-7605436D01*
X8013968Y-7605436D02*
X8004444Y-7614960D01*
X8004444Y-7614960D02*
X7985396Y-7624484D01*
X7985396Y-7624484D02*
X7966348Y-7624484D01*
X7966348Y-7624484D02*
X7947301Y-7614960D01*
X7947301Y-7614960D02*
X7937777Y-7605436D01*
X7937777Y-7605436D02*
X7928253Y-7586388D01*
X7928253Y-7586388D02*
X7918729Y-7548293D01*
X7918729Y-7548293D02*
X7918729Y-7500674D01*
X7918729Y-7500674D02*
X7928253Y-7462579D01*
X7928253Y-7462579D02*
X7937777Y-7443531D01*
X7937777Y-7443531D02*
X7947301Y-7434008D01*
X7947301Y-7434008D02*
X7966348Y-7424484D01*
X8271110Y-7624484D02*
X8271110Y-7424484D01*
X8356825Y-7624484D02*
X8356825Y-7519722D01*
X8356825Y-7519722D02*
X8347301Y-7500674D01*
X8347301Y-7500674D02*
X8328253Y-7491150D01*
X8328253Y-7491150D02*
X8299682Y-7491150D01*
X8299682Y-7491150D02*
X8280634Y-7500674D01*
X8280634Y-7500674D02*
X8271110Y-7510198D01*
X8480634Y-7624484D02*
X8461587Y-7614960D01*
X8461587Y-7614960D02*
X8452063Y-7605436D01*
X8452063Y-7605436D02*
X8442539Y-7586388D01*
X8442539Y-7586388D02*
X8442539Y-7529246D01*
X8442539Y-7529246D02*
X8452063Y-7510198D01*
X8452063Y-7510198D02*
X8461587Y-7500674D01*
X8461587Y-7500674D02*
X8480634Y-7491150D01*
X8480634Y-7491150D02*
X8509206Y-7491150D01*
X8509206Y-7491150D02*
X8528253Y-7500674D01*
X8528253Y-7500674D02*
X8537777Y-7510198D01*
X8537777Y-7510198D02*
X8547301Y-7529246D01*
X8547301Y-7529246D02*
X8547301Y-7586388D01*
X8547301Y-7586388D02*
X8537777Y-7605436D01*
X8537777Y-7605436D02*
X8528253Y-7614960D01*
X8528253Y-7614960D02*
X8509206Y-7624484D01*
X8509206Y-7624484D02*
X8480634Y-7624484D01*
X8661587Y-7624484D02*
X8642539Y-7614960D01*
X8642539Y-7614960D02*
X8633015Y-7595912D01*
X8633015Y-7595912D02*
X8633015Y-7424484D01*
X8813968Y-7614960D02*
X8794920Y-7624484D01*
X8794920Y-7624484D02*
X8756825Y-7624484D01*
X8756825Y-7624484D02*
X8737777Y-7614960D01*
X8737777Y-7614960D02*
X8728253Y-7595912D01*
X8728253Y-7595912D02*
X8728253Y-7519722D01*
X8728253Y-7519722D02*
X8737777Y-7500674D01*
X8737777Y-7500674D02*
X8756825Y-7491150D01*
X8756825Y-7491150D02*
X8794920Y-7491150D01*
X8794920Y-7491150D02*
X8813968Y-7500674D01*
X8813968Y-7500674D02*
X8823492Y-7519722D01*
X8823492Y-7519722D02*
X8823492Y-7538769D01*
X8823492Y-7538769D02*
X8728253Y-7557817D01*
X8899682Y-7614960D02*
X8918730Y-7624484D01*
X8918730Y-7624484D02*
X8956825Y-7624484D01*
X8956825Y-7624484D02*
X8975873Y-7614960D01*
X8975873Y-7614960D02*
X8985396Y-7595912D01*
X8985396Y-7595912D02*
X8985396Y-7586388D01*
X8985396Y-7586388D02*
X8975873Y-7567341D01*
X8975873Y-7567341D02*
X8956825Y-7557817D01*
X8956825Y-7557817D02*
X8928253Y-7557817D01*
X8928253Y-7557817D02*
X8909206Y-7548293D01*
X8909206Y-7548293D02*
X8899682Y-7529246D01*
X8899682Y-7529246D02*
X8899682Y-7519722D01*
X8899682Y-7519722D02*
X8909206Y-7500674D01*
X8909206Y-7500674D02*
X8928253Y-7491150D01*
X8928253Y-7491150D02*
X8956825Y-7491150D01*
X8956825Y-7491150D02*
X8975873Y-7500674D01*
X9223492Y-7548293D02*
X9375873Y-7548293D01*
X9299682Y-7624484D02*
X9299682Y-7472103D01*
X9613968Y-7443531D02*
X9623492Y-7434008D01*
X9623492Y-7434008D02*
X9642539Y-7424484D01*
X9642539Y-7424484D02*
X9690158Y-7424484D01*
X9690158Y-7424484D02*
X9709206Y-7434008D01*
X9709206Y-7434008D02*
X9718730Y-7443531D01*
X9718730Y-7443531D02*
X9728254Y-7462579D01*
X9728254Y-7462579D02*
X9728254Y-7481627D01*
X9728254Y-7481627D02*
X9718730Y-7510198D01*
X9718730Y-7510198D02*
X9604444Y-7624484D01*
X9604444Y-7624484D02*
X9728254Y-7624484D01*
X9956825Y-7614960D02*
X9975873Y-7624484D01*
X9975873Y-7624484D02*
X10013968Y-7624484D01*
X10013968Y-7624484D02*
X10033016Y-7614960D01*
X10033016Y-7614960D02*
X10042539Y-7595912D01*
X10042539Y-7595912D02*
X10042539Y-7586388D01*
X10042539Y-7586388D02*
X10033016Y-7567341D01*
X10033016Y-7567341D02*
X10013968Y-7557817D01*
X10013968Y-7557817D02*
X9985396Y-7557817D01*
X9985396Y-7557817D02*
X9966349Y-7548293D01*
X9966349Y-7548293D02*
X9956825Y-7529246D01*
X9956825Y-7529246D02*
X9956825Y-7519722D01*
X9956825Y-7519722D02*
X9966349Y-7500674D01*
X9966349Y-7500674D02*
X9985396Y-7491150D01*
X9985396Y-7491150D02*
X10013968Y-7491150D01*
X10013968Y-7491150D02*
X10033016Y-7500674D01*
X10156825Y-7624484D02*
X10137777Y-7614960D01*
X10137777Y-7614960D02*
X10128254Y-7595912D01*
X10128254Y-7595912D02*
X10128254Y-7424484D01*
X10261587Y-7624484D02*
X10242539Y-7614960D01*
X10242539Y-7614960D02*
X10233016Y-7605436D01*
X10233016Y-7605436D02*
X10223492Y-7586388D01*
X10223492Y-7586388D02*
X10223492Y-7529246D01*
X10223492Y-7529246D02*
X10233016Y-7510198D01*
X10233016Y-7510198D02*
X10242539Y-7500674D01*
X10242539Y-7500674D02*
X10261587Y-7491150D01*
X10261587Y-7491150D02*
X10290158Y-7491150D01*
X10290158Y-7491150D02*
X10309206Y-7500674D01*
X10309206Y-7500674D02*
X10318730Y-7510198D01*
X10318730Y-7510198D02*
X10328254Y-7529246D01*
X10328254Y-7529246D02*
X10328254Y-7586388D01*
X10328254Y-7586388D02*
X10318730Y-7605436D01*
X10318730Y-7605436D02*
X10309206Y-7614960D01*
X10309206Y-7614960D02*
X10290158Y-7624484D01*
X10290158Y-7624484D02*
X10261587Y-7624484D01*
X10385397Y-7491150D02*
X10461587Y-7491150D01*
X10413968Y-7424484D02*
X10413968Y-7595912D01*
X10413968Y-7595912D02*
X10423492Y-7614960D01*
X10423492Y-7614960D02*
X10442539Y-7624484D01*
X10442539Y-7624484D02*
X10461587Y-7624484D01*
X10518730Y-7614960D02*
X10537777Y-7624484D01*
X10537777Y-7624484D02*
X10575873Y-7624484D01*
X10575873Y-7624484D02*
X10594920Y-7614960D01*
X10594920Y-7614960D02*
X10604444Y-7595912D01*
X10604444Y-7595912D02*
X10604444Y-7586388D01*
X10604444Y-7586388D02*
X10594920Y-7567341D01*
X10594920Y-7567341D02*
X10575873Y-7557817D01*
X10575873Y-7557817D02*
X10547301Y-7557817D01*
X10547301Y-7557817D02*
X10528254Y-7548293D01*
X10528254Y-7548293D02*
X10518730Y-7529246D01*
X10518730Y-7529246D02*
X10518730Y-7519722D01*
X10518730Y-7519722D02*
X10528254Y-7500674D01*
X10528254Y-7500674D02*
X10547301Y-7491150D01*
X10547301Y-7491150D02*
X10575873Y-7491150D01*
X10575873Y-7491150D02*
X10594920Y-7500674D01*
X10671111Y-7700674D02*
X10680635Y-7691150D01*
X10680635Y-7691150D02*
X10699682Y-7662579D01*
X10699682Y-7662579D02*
X10709206Y-7643531D01*
X10709206Y-7643531D02*
X10718730Y-7614960D01*
X10718730Y-7614960D02*
X10728254Y-7567341D01*
X10728254Y-7567341D02*
X10728254Y-7529246D01*
X10728254Y-7529246D02*
X10718730Y-7481627D01*
X10718730Y-7481627D02*
X10709206Y-7453055D01*
X10709206Y-7453055D02*
X10699682Y-7434008D01*
X10699682Y-7434008D02*
X10680635Y-7405436D01*
X10680635Y-7405436D02*
X10671111Y-7395912D01*
D10*
X4268213Y-7818213D02*
X4268213Y-7775787D01*
X4225787Y-7775787D01*
X4225787Y-7818213D01*
X4268213Y-7818213D01*
D11*
X4575872Y-7688484D02*
X4594920Y-7688484D01*
X4594920Y-7688484D02*
X4613967Y-7698008D01*
X4613967Y-7698008D02*
X4623491Y-7707531D01*
X4623491Y-7707531D02*
X4633015Y-7726579D01*
X4633015Y-7726579D02*
X4642539Y-7764674D01*
X4642539Y-7764674D02*
X4642539Y-7812293D01*
X4642539Y-7812293D02*
X4633015Y-7850388D01*
X4633015Y-7850388D02*
X4623491Y-7869436D01*
X4623491Y-7869436D02*
X4613967Y-7878960D01*
X4613967Y-7878960D02*
X4594920Y-7888484D01*
X4594920Y-7888484D02*
X4575872Y-7888484D01*
X4575872Y-7888484D02*
X4556824Y-7878960D01*
X4556824Y-7878960D02*
X4547301Y-7869436D01*
X4547301Y-7869436D02*
X4537777Y-7850388D01*
X4537777Y-7850388D02*
X4528253Y-7812293D01*
X4528253Y-7812293D02*
X4528253Y-7764674D01*
X4528253Y-7764674D02*
X4537777Y-7726579D01*
X4537777Y-7726579D02*
X4547301Y-7707531D01*
X4547301Y-7707531D02*
X4556824Y-7698008D01*
X4556824Y-7698008D02*
X4575872Y-7688484D01*
X4728253Y-7869436D02*
X4737777Y-7878960D01*
X4737777Y-7878960D02*
X4728253Y-7888484D01*
X4728253Y-7888484D02*
X4718729Y-7878960D01*
X4718729Y-7878960D02*
X4728253Y-7869436D01*
X4728253Y-7869436D02*
X4728253Y-7888484D01*
X4909205Y-7688484D02*
X4871110Y-7688484D01*
X4871110Y-7688484D02*
X4852063Y-7698008D01*
X4852063Y-7698008D02*
X4842539Y-7707531D01*
X4842539Y-7707531D02*
X4823491Y-7736103D01*
X4823491Y-7736103D02*
X4813967Y-7774198D01*
X4813967Y-7774198D02*
X4813967Y-7850388D01*
X4813967Y-7850388D02*
X4823491Y-7869436D01*
X4823491Y-7869436D02*
X4833015Y-7878960D01*
X4833015Y-7878960D02*
X4852063Y-7888484D01*
X4852063Y-7888484D02*
X4890158Y-7888484D01*
X4890158Y-7888484D02*
X4909205Y-7878960D01*
X4909205Y-7878960D02*
X4918729Y-7869436D01*
X4918729Y-7869436D02*
X4928253Y-7850388D01*
X4928253Y-7850388D02*
X4928253Y-7802769D01*
X4928253Y-7802769D02*
X4918729Y-7783722D01*
X4918729Y-7783722D02*
X4909205Y-7774198D01*
X4909205Y-7774198D02*
X4890158Y-7764674D01*
X4890158Y-7764674D02*
X4852063Y-7764674D01*
X4852063Y-7764674D02*
X4833015Y-7774198D01*
X4833015Y-7774198D02*
X4823491Y-7783722D01*
X4823491Y-7783722D02*
X4813967Y-7802769D01*
X5052063Y-7688484D02*
X5071110Y-7688484D01*
X5071110Y-7688484D02*
X5090158Y-7698008D01*
X5090158Y-7698008D02*
X5099682Y-7707531D01*
X5099682Y-7707531D02*
X5109205Y-7726579D01*
X5109205Y-7726579D02*
X5118729Y-7764674D01*
X5118729Y-7764674D02*
X5118729Y-7812293D01*
X5118729Y-7812293D02*
X5109205Y-7850388D01*
X5109205Y-7850388D02*
X5099682Y-7869436D01*
X5099682Y-7869436D02*
X5090158Y-7878960D01*
X5090158Y-7878960D02*
X5071110Y-7888484D01*
X5071110Y-7888484D02*
X5052063Y-7888484D01*
X5052063Y-7888484D02*
X5033015Y-7878960D01*
X5033015Y-7878960D02*
X5023491Y-7869436D01*
X5023491Y-7869436D02*
X5013967Y-7850388D01*
X5013967Y-7850388D02*
X5004444Y-7812293D01*
X5004444Y-7812293D02*
X5004444Y-7764674D01*
X5004444Y-7764674D02*
X5013967Y-7726579D01*
X5013967Y-7726579D02*
X5023491Y-7707531D01*
X5023491Y-7707531D02*
X5033015Y-7698008D01*
X5033015Y-7698008D02*
X5052063Y-7688484D01*
X5242539Y-7688484D02*
X5261586Y-7688484D01*
X5261586Y-7688484D02*
X5280634Y-7698008D01*
X5280634Y-7698008D02*
X5290158Y-7707531D01*
X5290158Y-7707531D02*
X5299682Y-7726579D01*
X5299682Y-7726579D02*
X5309205Y-7764674D01*
X5309205Y-7764674D02*
X5309205Y-7812293D01*
X5309205Y-7812293D02*
X5299682Y-7850388D01*
X5299682Y-7850388D02*
X5290158Y-7869436D01*
X5290158Y-7869436D02*
X5280634Y-7878960D01*
X5280634Y-7878960D02*
X5261586Y-7888484D01*
X5261586Y-7888484D02*
X5242539Y-7888484D01*
X5242539Y-7888484D02*
X5223491Y-7878960D01*
X5223491Y-7878960D02*
X5213967Y-7869436D01*
X5213967Y-7869436D02*
X5204444Y-7850388D01*
X5204444Y-7850388D02*
X5194920Y-7812293D01*
X5194920Y-7812293D02*
X5194920Y-7764674D01*
X5194920Y-7764674D02*
X5204444Y-7726579D01*
X5204444Y-7726579D02*
X5213967Y-7707531D01*
X5213967Y-7707531D02*
X5223491Y-7698008D01*
X5223491Y-7698008D02*
X5242539Y-7688484D01*
X5394920Y-7888484D02*
X5394920Y-7755150D01*
X5394920Y-7774198D02*
X5404444Y-7764674D01*
X5404444Y-7764674D02*
X5423491Y-7755150D01*
X5423491Y-7755150D02*
X5452063Y-7755150D01*
X5452063Y-7755150D02*
X5471110Y-7764674D01*
X5471110Y-7764674D02*
X5480634Y-7783722D01*
X5480634Y-7783722D02*
X5480634Y-7888484D01*
X5480634Y-7783722D02*
X5490158Y-7764674D01*
X5490158Y-7764674D02*
X5509205Y-7755150D01*
X5509205Y-7755150D02*
X5537777Y-7755150D01*
X5537777Y-7755150D02*
X5556825Y-7764674D01*
X5556825Y-7764674D02*
X5566348Y-7783722D01*
X5566348Y-7783722D02*
X5566348Y-7888484D01*
X5661586Y-7888484D02*
X5661586Y-7755150D01*
X5661586Y-7774198D02*
X5671110Y-7764674D01*
X5671110Y-7764674D02*
X5690158Y-7755150D01*
X5690158Y-7755150D02*
X5718729Y-7755150D01*
X5718729Y-7755150D02*
X5737777Y-7764674D01*
X5737777Y-7764674D02*
X5747301Y-7783722D01*
X5747301Y-7783722D02*
X5747301Y-7888484D01*
X5747301Y-7783722D02*
X5756824Y-7764674D01*
X5756824Y-7764674D02*
X5775872Y-7755150D01*
X5775872Y-7755150D02*
X5804443Y-7755150D01*
X5804443Y-7755150D02*
X5823491Y-7764674D01*
X5823491Y-7764674D02*
X5833015Y-7783722D01*
X5833015Y-7783722D02*
X5833015Y-7888484D01*
X6223491Y-7678960D02*
X6052063Y-7936103D01*
X6480634Y-7688484D02*
X6499682Y-7688484D01*
X6499682Y-7688484D02*
X6518729Y-7698008D01*
X6518729Y-7698008D02*
X6528253Y-7707531D01*
X6528253Y-7707531D02*
X6537777Y-7726579D01*
X6537777Y-7726579D02*
X6547301Y-7764674D01*
X6547301Y-7764674D02*
X6547301Y-7812293D01*
X6547301Y-7812293D02*
X6537777Y-7850388D01*
X6537777Y-7850388D02*
X6528253Y-7869436D01*
X6528253Y-7869436D02*
X6518729Y-7878960D01*
X6518729Y-7878960D02*
X6499682Y-7888484D01*
X6499682Y-7888484D02*
X6480634Y-7888484D01*
X6480634Y-7888484D02*
X6461586Y-7878960D01*
X6461586Y-7878960D02*
X6452063Y-7869436D01*
X6452063Y-7869436D02*
X6442539Y-7850388D01*
X6442539Y-7850388D02*
X6433015Y-7812293D01*
X6433015Y-7812293D02*
X6433015Y-7764674D01*
X6433015Y-7764674D02*
X6442539Y-7726579D01*
X6442539Y-7726579D02*
X6452063Y-7707531D01*
X6452063Y-7707531D02*
X6461586Y-7698008D01*
X6461586Y-7698008D02*
X6480634Y-7688484D01*
X6633015Y-7869436D02*
X6642539Y-7878960D01*
X6642539Y-7878960D02*
X6633015Y-7888484D01*
X6633015Y-7888484D02*
X6623491Y-7878960D01*
X6623491Y-7878960D02*
X6633015Y-7869436D01*
X6633015Y-7869436D02*
X6633015Y-7888484D01*
X6766348Y-7688484D02*
X6785396Y-7688484D01*
X6785396Y-7688484D02*
X6804444Y-7698008D01*
X6804444Y-7698008D02*
X6813967Y-7707531D01*
X6813967Y-7707531D02*
X6823491Y-7726579D01*
X6823491Y-7726579D02*
X6833015Y-7764674D01*
X6833015Y-7764674D02*
X6833015Y-7812293D01*
X6833015Y-7812293D02*
X6823491Y-7850388D01*
X6823491Y-7850388D02*
X6813967Y-7869436D01*
X6813967Y-7869436D02*
X6804444Y-7878960D01*
X6804444Y-7878960D02*
X6785396Y-7888484D01*
X6785396Y-7888484D02*
X6766348Y-7888484D01*
X6766348Y-7888484D02*
X6747301Y-7878960D01*
X6747301Y-7878960D02*
X6737777Y-7869436D01*
X6737777Y-7869436D02*
X6728253Y-7850388D01*
X6728253Y-7850388D02*
X6718729Y-7812293D01*
X6718729Y-7812293D02*
X6718729Y-7764674D01*
X6718729Y-7764674D02*
X6728253Y-7726579D01*
X6728253Y-7726579D02*
X6737777Y-7707531D01*
X6737777Y-7707531D02*
X6747301Y-7698008D01*
X6747301Y-7698008D02*
X6766348Y-7688484D01*
X6909206Y-7707531D02*
X6918729Y-7698008D01*
X6918729Y-7698008D02*
X6937777Y-7688484D01*
X6937777Y-7688484D02*
X6985396Y-7688484D01*
X6985396Y-7688484D02*
X7004444Y-7698008D01*
X7004444Y-7698008D02*
X7013967Y-7707531D01*
X7013967Y-7707531D02*
X7023491Y-7726579D01*
X7023491Y-7726579D02*
X7023491Y-7745627D01*
X7023491Y-7745627D02*
X7013967Y-7774198D01*
X7013967Y-7774198D02*
X6899682Y-7888484D01*
X6899682Y-7888484D02*
X7023491Y-7888484D01*
X7090158Y-7688484D02*
X7213967Y-7688484D01*
X7213967Y-7688484D02*
X7147301Y-7764674D01*
X7147301Y-7764674D02*
X7175872Y-7764674D01*
X7175872Y-7764674D02*
X7194920Y-7774198D01*
X7194920Y-7774198D02*
X7204444Y-7783722D01*
X7204444Y-7783722D02*
X7213967Y-7802769D01*
X7213967Y-7802769D02*
X7213967Y-7850388D01*
X7213967Y-7850388D02*
X7204444Y-7869436D01*
X7204444Y-7869436D02*
X7194920Y-7878960D01*
X7194920Y-7878960D02*
X7175872Y-7888484D01*
X7175872Y-7888484D02*
X7118729Y-7888484D01*
X7118729Y-7888484D02*
X7099682Y-7878960D01*
X7099682Y-7878960D02*
X7090158Y-7869436D01*
X7385396Y-7688484D02*
X7347301Y-7688484D01*
X7347301Y-7688484D02*
X7328253Y-7698008D01*
X7328253Y-7698008D02*
X7318729Y-7707531D01*
X7318729Y-7707531D02*
X7299682Y-7736103D01*
X7299682Y-7736103D02*
X7290158Y-7774198D01*
X7290158Y-7774198D02*
X7290158Y-7850388D01*
X7290158Y-7850388D02*
X7299682Y-7869436D01*
X7299682Y-7869436D02*
X7309206Y-7878960D01*
X7309206Y-7878960D02*
X7328253Y-7888484D01*
X7328253Y-7888484D02*
X7366348Y-7888484D01*
X7366348Y-7888484D02*
X7385396Y-7878960D01*
X7385396Y-7878960D02*
X7394920Y-7869436D01*
X7394920Y-7869436D02*
X7404444Y-7850388D01*
X7404444Y-7850388D02*
X7404444Y-7802769D01*
X7404444Y-7802769D02*
X7394920Y-7783722D01*
X7394920Y-7783722D02*
X7385396Y-7774198D01*
X7385396Y-7774198D02*
X7366348Y-7764674D01*
X7366348Y-7764674D02*
X7328253Y-7764674D01*
X7328253Y-7764674D02*
X7309206Y-7774198D01*
X7309206Y-7774198D02*
X7299682Y-7783722D01*
X7299682Y-7783722D02*
X7290158Y-7802769D01*
X7480634Y-7688484D02*
X7480634Y-7726579D01*
X7556825Y-7688484D02*
X7556825Y-7726579D01*
X7852063Y-7964674D02*
X7842539Y-7955150D01*
X7842539Y-7955150D02*
X7823491Y-7926579D01*
X7823491Y-7926579D02*
X7813968Y-7907531D01*
X7813968Y-7907531D02*
X7804444Y-7878960D01*
X7804444Y-7878960D02*
X7794920Y-7831341D01*
X7794920Y-7831341D02*
X7794920Y-7793246D01*
X7794920Y-7793246D02*
X7804444Y-7745627D01*
X7804444Y-7745627D02*
X7813968Y-7717055D01*
X7813968Y-7717055D02*
X7823491Y-7698008D01*
X7823491Y-7698008D02*
X7842539Y-7669436D01*
X7842539Y-7669436D02*
X7852063Y-7659912D01*
X7909206Y-7688484D02*
X8033015Y-7688484D01*
X8033015Y-7688484D02*
X7966348Y-7764674D01*
X7966348Y-7764674D02*
X7994920Y-7764674D01*
X7994920Y-7764674D02*
X8013968Y-7774198D01*
X8013968Y-7774198D02*
X8023491Y-7783722D01*
X8023491Y-7783722D02*
X8033015Y-7802769D01*
X8033015Y-7802769D02*
X8033015Y-7850388D01*
X8033015Y-7850388D02*
X8023491Y-7869436D01*
X8023491Y-7869436D02*
X8013968Y-7878960D01*
X8013968Y-7878960D02*
X7994920Y-7888484D01*
X7994920Y-7888484D02*
X7937777Y-7888484D01*
X7937777Y-7888484D02*
X7918729Y-7878960D01*
X7918729Y-7878960D02*
X7909206Y-7869436D01*
X8156825Y-7688484D02*
X8175872Y-7688484D01*
X8175872Y-7688484D02*
X8194920Y-7698008D01*
X8194920Y-7698008D02*
X8204444Y-7707531D01*
X8204444Y-7707531D02*
X8213968Y-7726579D01*
X8213968Y-7726579D02*
X8223491Y-7764674D01*
X8223491Y-7764674D02*
X8223491Y-7812293D01*
X8223491Y-7812293D02*
X8213968Y-7850388D01*
X8213968Y-7850388D02*
X8204444Y-7869436D01*
X8204444Y-7869436D02*
X8194920Y-7878960D01*
X8194920Y-7878960D02*
X8175872Y-7888484D01*
X8175872Y-7888484D02*
X8156825Y-7888484D01*
X8156825Y-7888484D02*
X8137777Y-7878960D01*
X8137777Y-7878960D02*
X8128253Y-7869436D01*
X8128253Y-7869436D02*
X8118729Y-7850388D01*
X8118729Y-7850388D02*
X8109206Y-7812293D01*
X8109206Y-7812293D02*
X8109206Y-7764674D01*
X8109206Y-7764674D02*
X8118729Y-7726579D01*
X8118729Y-7726579D02*
X8128253Y-7707531D01*
X8128253Y-7707531D02*
X8137777Y-7698008D01*
X8137777Y-7698008D02*
X8156825Y-7688484D01*
X8461587Y-7888484D02*
X8461587Y-7688484D01*
X8547301Y-7888484D02*
X8547301Y-7783722D01*
X8547301Y-7783722D02*
X8537777Y-7764674D01*
X8537777Y-7764674D02*
X8518730Y-7755150D01*
X8518730Y-7755150D02*
X8490158Y-7755150D01*
X8490158Y-7755150D02*
X8471111Y-7764674D01*
X8471111Y-7764674D02*
X8461587Y-7774198D01*
X8671111Y-7888484D02*
X8652063Y-7878960D01*
X8652063Y-7878960D02*
X8642539Y-7869436D01*
X8642539Y-7869436D02*
X8633015Y-7850388D01*
X8633015Y-7850388D02*
X8633015Y-7793246D01*
X8633015Y-7793246D02*
X8642539Y-7774198D01*
X8642539Y-7774198D02*
X8652063Y-7764674D01*
X8652063Y-7764674D02*
X8671111Y-7755150D01*
X8671111Y-7755150D02*
X8699682Y-7755150D01*
X8699682Y-7755150D02*
X8718730Y-7764674D01*
X8718730Y-7764674D02*
X8728253Y-7774198D01*
X8728253Y-7774198D02*
X8737777Y-7793246D01*
X8737777Y-7793246D02*
X8737777Y-7850388D01*
X8737777Y-7850388D02*
X8728253Y-7869436D01*
X8728253Y-7869436D02*
X8718730Y-7878960D01*
X8718730Y-7878960D02*
X8699682Y-7888484D01*
X8699682Y-7888484D02*
X8671111Y-7888484D01*
X8852063Y-7888484D02*
X8833015Y-7878960D01*
X8833015Y-7878960D02*
X8823492Y-7859912D01*
X8823492Y-7859912D02*
X8823492Y-7688484D01*
X9004444Y-7878960D02*
X8985396Y-7888484D01*
X8985396Y-7888484D02*
X8947301Y-7888484D01*
X8947301Y-7888484D02*
X8928253Y-7878960D01*
X8928253Y-7878960D02*
X8918730Y-7859912D01*
X8918730Y-7859912D02*
X8918730Y-7783722D01*
X8918730Y-7783722D02*
X8928253Y-7764674D01*
X8928253Y-7764674D02*
X8947301Y-7755150D01*
X8947301Y-7755150D02*
X8985396Y-7755150D01*
X8985396Y-7755150D02*
X9004444Y-7764674D01*
X9004444Y-7764674D02*
X9013968Y-7783722D01*
X9013968Y-7783722D02*
X9013968Y-7802769D01*
X9013968Y-7802769D02*
X8918730Y-7821817D01*
X9090158Y-7878960D02*
X9109206Y-7888484D01*
X9109206Y-7888484D02*
X9147301Y-7888484D01*
X9147301Y-7888484D02*
X9166349Y-7878960D01*
X9166349Y-7878960D02*
X9175873Y-7859912D01*
X9175873Y-7859912D02*
X9175873Y-7850388D01*
X9175873Y-7850388D02*
X9166349Y-7831341D01*
X9166349Y-7831341D02*
X9147301Y-7821817D01*
X9147301Y-7821817D02*
X9118730Y-7821817D01*
X9118730Y-7821817D02*
X9099682Y-7812293D01*
X9099682Y-7812293D02*
X9090158Y-7793246D01*
X9090158Y-7793246D02*
X9090158Y-7783722D01*
X9090158Y-7783722D02*
X9099682Y-7764674D01*
X9099682Y-7764674D02*
X9118730Y-7755150D01*
X9118730Y-7755150D02*
X9147301Y-7755150D01*
X9147301Y-7755150D02*
X9166349Y-7764674D01*
X9242539Y-7964674D02*
X9252063Y-7955150D01*
X9252063Y-7955150D02*
X9271111Y-7926579D01*
X9271111Y-7926579D02*
X9280634Y-7907531D01*
X9280634Y-7907531D02*
X9290158Y-7878960D01*
X9290158Y-7878960D02*
X9299682Y-7831341D01*
X9299682Y-7831341D02*
X9299682Y-7793246D01*
X9299682Y-7793246D02*
X9290158Y-7745627D01*
X9290158Y-7745627D02*
X9280634Y-7717055D01*
X9280634Y-7717055D02*
X9271111Y-7698008D01*
X9271111Y-7698008D02*
X9252063Y-7669436D01*
X9252063Y-7669436D02*
X9242539Y-7659912D01*
D10*
X4232000Y-8106000D02*
X4277000Y-8061000D01*
X4232000Y-8016000D01*
X4187000Y-8061000D01*
X4232000Y-8106000D01*
D11*
X4575872Y-7952484D02*
X4594920Y-7952484D01*
X4594920Y-7952484D02*
X4613967Y-7962008D01*
X4613967Y-7962008D02*
X4623491Y-7971531D01*
X4623491Y-7971531D02*
X4633015Y-7990579D01*
X4633015Y-7990579D02*
X4642539Y-8028674D01*
X4642539Y-8028674D02*
X4642539Y-8076293D01*
X4642539Y-8076293D02*
X4633015Y-8114388D01*
X4633015Y-8114388D02*
X4623491Y-8133436D01*
X4623491Y-8133436D02*
X4613967Y-8142960D01*
X4613967Y-8142960D02*
X4594920Y-8152484D01*
X4594920Y-8152484D02*
X4575872Y-8152484D01*
X4575872Y-8152484D02*
X4556824Y-8142960D01*
X4556824Y-8142960D02*
X4547301Y-8133436D01*
X4547301Y-8133436D02*
X4537777Y-8114388D01*
X4537777Y-8114388D02*
X4528253Y-8076293D01*
X4528253Y-8076293D02*
X4528253Y-8028674D01*
X4528253Y-8028674D02*
X4537777Y-7990579D01*
X4537777Y-7990579D02*
X4547301Y-7971531D01*
X4547301Y-7971531D02*
X4556824Y-7962008D01*
X4556824Y-7962008D02*
X4575872Y-7952484D01*
X4728253Y-8133436D02*
X4737777Y-8142960D01*
X4737777Y-8142960D02*
X4728253Y-8152484D01*
X4728253Y-8152484D02*
X4718729Y-8142960D01*
X4718729Y-8142960D02*
X4728253Y-8133436D01*
X4728253Y-8133436D02*
X4728253Y-8152484D01*
X4833015Y-8152484D02*
X4871110Y-8152484D01*
X4871110Y-8152484D02*
X4890158Y-8142960D01*
X4890158Y-8142960D02*
X4899682Y-8133436D01*
X4899682Y-8133436D02*
X4918729Y-8104865D01*
X4918729Y-8104865D02*
X4928253Y-8066769D01*
X4928253Y-8066769D02*
X4928253Y-7990579D01*
X4928253Y-7990579D02*
X4918729Y-7971531D01*
X4918729Y-7971531D02*
X4909205Y-7962008D01*
X4909205Y-7962008D02*
X4890158Y-7952484D01*
X4890158Y-7952484D02*
X4852063Y-7952484D01*
X4852063Y-7952484D02*
X4833015Y-7962008D01*
X4833015Y-7962008D02*
X4823491Y-7971531D01*
X4823491Y-7971531D02*
X4813967Y-7990579D01*
X4813967Y-7990579D02*
X4813967Y-8038198D01*
X4813967Y-8038198D02*
X4823491Y-8057246D01*
X4823491Y-8057246D02*
X4833015Y-8066769D01*
X4833015Y-8066769D02*
X4852063Y-8076293D01*
X4852063Y-8076293D02*
X4890158Y-8076293D01*
X4890158Y-8076293D02*
X4909205Y-8066769D01*
X4909205Y-8066769D02*
X4918729Y-8057246D01*
X4918729Y-8057246D02*
X4928253Y-8038198D01*
X5052063Y-7952484D02*
X5071110Y-7952484D01*
X5071110Y-7952484D02*
X5090158Y-7962008D01*
X5090158Y-7962008D02*
X5099682Y-7971531D01*
X5099682Y-7971531D02*
X5109205Y-7990579D01*
X5109205Y-7990579D02*
X5118729Y-8028674D01*
X5118729Y-8028674D02*
X5118729Y-8076293D01*
X5118729Y-8076293D02*
X5109205Y-8114388D01*
X5109205Y-8114388D02*
X5099682Y-8133436D01*
X5099682Y-8133436D02*
X5090158Y-8142960D01*
X5090158Y-8142960D02*
X5071110Y-8152484D01*
X5071110Y-8152484D02*
X5052063Y-8152484D01*
X5052063Y-8152484D02*
X5033015Y-8142960D01*
X5033015Y-8142960D02*
X5023491Y-8133436D01*
X5023491Y-8133436D02*
X5013967Y-8114388D01*
X5013967Y-8114388D02*
X5004444Y-8076293D01*
X5004444Y-8076293D02*
X5004444Y-8028674D01*
X5004444Y-8028674D02*
X5013967Y-7990579D01*
X5013967Y-7990579D02*
X5023491Y-7971531D01*
X5023491Y-7971531D02*
X5033015Y-7962008D01*
X5033015Y-7962008D02*
X5052063Y-7952484D01*
X5242539Y-7952484D02*
X5261586Y-7952484D01*
X5261586Y-7952484D02*
X5280634Y-7962008D01*
X5280634Y-7962008D02*
X5290158Y-7971531D01*
X5290158Y-7971531D02*
X5299682Y-7990579D01*
X5299682Y-7990579D02*
X5309205Y-8028674D01*
X5309205Y-8028674D02*
X5309205Y-8076293D01*
X5309205Y-8076293D02*
X5299682Y-8114388D01*
X5299682Y-8114388D02*
X5290158Y-8133436D01*
X5290158Y-8133436D02*
X5280634Y-8142960D01*
X5280634Y-8142960D02*
X5261586Y-8152484D01*
X5261586Y-8152484D02*
X5242539Y-8152484D01*
X5242539Y-8152484D02*
X5223491Y-8142960D01*
X5223491Y-8142960D02*
X5213967Y-8133436D01*
X5213967Y-8133436D02*
X5204444Y-8114388D01*
X5204444Y-8114388D02*
X5194920Y-8076293D01*
X5194920Y-8076293D02*
X5194920Y-8028674D01*
X5194920Y-8028674D02*
X5204444Y-7990579D01*
X5204444Y-7990579D02*
X5213967Y-7971531D01*
X5213967Y-7971531D02*
X5223491Y-7962008D01*
X5223491Y-7962008D02*
X5242539Y-7952484D01*
X5394920Y-8152484D02*
X5394920Y-8019150D01*
X5394920Y-8038198D02*
X5404444Y-8028674D01*
X5404444Y-8028674D02*
X5423491Y-8019150D01*
X5423491Y-8019150D02*
X5452063Y-8019150D01*
X5452063Y-8019150D02*
X5471110Y-8028674D01*
X5471110Y-8028674D02*
X5480634Y-8047722D01*
X5480634Y-8047722D02*
X5480634Y-8152484D01*
X5480634Y-8047722D02*
X5490158Y-8028674D01*
X5490158Y-8028674D02*
X5509205Y-8019150D01*
X5509205Y-8019150D02*
X5537777Y-8019150D01*
X5537777Y-8019150D02*
X5556825Y-8028674D01*
X5556825Y-8028674D02*
X5566348Y-8047722D01*
X5566348Y-8047722D02*
X5566348Y-8152484D01*
X5661586Y-8152484D02*
X5661586Y-8019150D01*
X5661586Y-8038198D02*
X5671110Y-8028674D01*
X5671110Y-8028674D02*
X5690158Y-8019150D01*
X5690158Y-8019150D02*
X5718729Y-8019150D01*
X5718729Y-8019150D02*
X5737777Y-8028674D01*
X5737777Y-8028674D02*
X5747301Y-8047722D01*
X5747301Y-8047722D02*
X5747301Y-8152484D01*
X5747301Y-8047722D02*
X5756824Y-8028674D01*
X5756824Y-8028674D02*
X5775872Y-8019150D01*
X5775872Y-8019150D02*
X5804443Y-8019150D01*
X5804443Y-8019150D02*
X5823491Y-8028674D01*
X5823491Y-8028674D02*
X5833015Y-8047722D01*
X5833015Y-8047722D02*
X5833015Y-8152484D01*
X6223491Y-7942960D02*
X6052063Y-8200103D01*
X6480634Y-7952484D02*
X6499682Y-7952484D01*
X6499682Y-7952484D02*
X6518729Y-7962008D01*
X6518729Y-7962008D02*
X6528253Y-7971531D01*
X6528253Y-7971531D02*
X6537777Y-7990579D01*
X6537777Y-7990579D02*
X6547301Y-8028674D01*
X6547301Y-8028674D02*
X6547301Y-8076293D01*
X6547301Y-8076293D02*
X6537777Y-8114388D01*
X6537777Y-8114388D02*
X6528253Y-8133436D01*
X6528253Y-8133436D02*
X6518729Y-8142960D01*
X6518729Y-8142960D02*
X6499682Y-8152484D01*
X6499682Y-8152484D02*
X6480634Y-8152484D01*
X6480634Y-8152484D02*
X6461586Y-8142960D01*
X6461586Y-8142960D02*
X6452063Y-8133436D01*
X6452063Y-8133436D02*
X6442539Y-8114388D01*
X6442539Y-8114388D02*
X6433015Y-8076293D01*
X6433015Y-8076293D02*
X6433015Y-8028674D01*
X6433015Y-8028674D02*
X6442539Y-7990579D01*
X6442539Y-7990579D02*
X6452063Y-7971531D01*
X6452063Y-7971531D02*
X6461586Y-7962008D01*
X6461586Y-7962008D02*
X6480634Y-7952484D01*
X6633015Y-8133436D02*
X6642539Y-8142960D01*
X6642539Y-8142960D02*
X6633015Y-8152484D01*
X6633015Y-8152484D02*
X6623491Y-8142960D01*
X6623491Y-8142960D02*
X6633015Y-8133436D01*
X6633015Y-8133436D02*
X6633015Y-8152484D01*
X6766348Y-7952484D02*
X6785396Y-7952484D01*
X6785396Y-7952484D02*
X6804444Y-7962008D01*
X6804444Y-7962008D02*
X6813967Y-7971531D01*
X6813967Y-7971531D02*
X6823491Y-7990579D01*
X6823491Y-7990579D02*
X6833015Y-8028674D01*
X6833015Y-8028674D02*
X6833015Y-8076293D01*
X6833015Y-8076293D02*
X6823491Y-8114388D01*
X6823491Y-8114388D02*
X6813967Y-8133436D01*
X6813967Y-8133436D02*
X6804444Y-8142960D01*
X6804444Y-8142960D02*
X6785396Y-8152484D01*
X6785396Y-8152484D02*
X6766348Y-8152484D01*
X6766348Y-8152484D02*
X6747301Y-8142960D01*
X6747301Y-8142960D02*
X6737777Y-8133436D01*
X6737777Y-8133436D02*
X6728253Y-8114388D01*
X6728253Y-8114388D02*
X6718729Y-8076293D01*
X6718729Y-8076293D02*
X6718729Y-8028674D01*
X6718729Y-8028674D02*
X6728253Y-7990579D01*
X6728253Y-7990579D02*
X6737777Y-7971531D01*
X6737777Y-7971531D02*
X6747301Y-7962008D01*
X6747301Y-7962008D02*
X6766348Y-7952484D01*
X6899682Y-7952484D02*
X7023491Y-7952484D01*
X7023491Y-7952484D02*
X6956825Y-8028674D01*
X6956825Y-8028674D02*
X6985396Y-8028674D01*
X6985396Y-8028674D02*
X7004444Y-8038198D01*
X7004444Y-8038198D02*
X7013967Y-8047722D01*
X7013967Y-8047722D02*
X7023491Y-8066769D01*
X7023491Y-8066769D02*
X7023491Y-8114388D01*
X7023491Y-8114388D02*
X7013967Y-8133436D01*
X7013967Y-8133436D02*
X7004444Y-8142960D01*
X7004444Y-8142960D02*
X6985396Y-8152484D01*
X6985396Y-8152484D02*
X6928253Y-8152484D01*
X6928253Y-8152484D02*
X6909206Y-8142960D01*
X6909206Y-8142960D02*
X6899682Y-8133436D01*
X7204444Y-7952484D02*
X7109206Y-7952484D01*
X7109206Y-7952484D02*
X7099682Y-8047722D01*
X7099682Y-8047722D02*
X7109206Y-8038198D01*
X7109206Y-8038198D02*
X7128253Y-8028674D01*
X7128253Y-8028674D02*
X7175872Y-8028674D01*
X7175872Y-8028674D02*
X7194920Y-8038198D01*
X7194920Y-8038198D02*
X7204444Y-8047722D01*
X7204444Y-8047722D02*
X7213967Y-8066769D01*
X7213967Y-8066769D02*
X7213967Y-8114388D01*
X7213967Y-8114388D02*
X7204444Y-8133436D01*
X7204444Y-8133436D02*
X7194920Y-8142960D01*
X7194920Y-8142960D02*
X7175872Y-8152484D01*
X7175872Y-8152484D02*
X7128253Y-8152484D01*
X7128253Y-8152484D02*
X7109206Y-8142960D01*
X7109206Y-8142960D02*
X7099682Y-8133436D01*
X7385396Y-8019150D02*
X7385396Y-8152484D01*
X7337777Y-7942960D02*
X7290158Y-8085817D01*
X7290158Y-8085817D02*
X7413967Y-8085817D01*
X7480634Y-7952484D02*
X7480634Y-7990579D01*
X7556825Y-7952484D02*
X7556825Y-7990579D01*
X7852063Y-8228674D02*
X7842539Y-8219150D01*
X7842539Y-8219150D02*
X7823491Y-8190579D01*
X7823491Y-8190579D02*
X7813968Y-8171531D01*
X7813968Y-8171531D02*
X7804444Y-8142960D01*
X7804444Y-8142960D02*
X7794920Y-8095341D01*
X7794920Y-8095341D02*
X7794920Y-8057246D01*
X7794920Y-8057246D02*
X7804444Y-8009627D01*
X7804444Y-8009627D02*
X7813968Y-7981055D01*
X7813968Y-7981055D02*
X7823491Y-7962008D01*
X7823491Y-7962008D02*
X7842539Y-7933436D01*
X7842539Y-7933436D02*
X7852063Y-7923912D01*
X7909206Y-7952484D02*
X8042539Y-7952484D01*
X8042539Y-7952484D02*
X7956825Y-8152484D01*
X8271110Y-8152484D02*
X8271110Y-7952484D01*
X8356825Y-8152484D02*
X8356825Y-8047722D01*
X8356825Y-8047722D02*
X8347301Y-8028674D01*
X8347301Y-8028674D02*
X8328253Y-8019150D01*
X8328253Y-8019150D02*
X8299682Y-8019150D01*
X8299682Y-8019150D02*
X8280634Y-8028674D01*
X8280634Y-8028674D02*
X8271110Y-8038198D01*
X8480634Y-8152484D02*
X8461587Y-8142960D01*
X8461587Y-8142960D02*
X8452063Y-8133436D01*
X8452063Y-8133436D02*
X8442539Y-8114388D01*
X8442539Y-8114388D02*
X8442539Y-8057246D01*
X8442539Y-8057246D02*
X8452063Y-8038198D01*
X8452063Y-8038198D02*
X8461587Y-8028674D01*
X8461587Y-8028674D02*
X8480634Y-8019150D01*
X8480634Y-8019150D02*
X8509206Y-8019150D01*
X8509206Y-8019150D02*
X8528253Y-8028674D01*
X8528253Y-8028674D02*
X8537777Y-8038198D01*
X8537777Y-8038198D02*
X8547301Y-8057246D01*
X8547301Y-8057246D02*
X8547301Y-8114388D01*
X8547301Y-8114388D02*
X8537777Y-8133436D01*
X8537777Y-8133436D02*
X8528253Y-8142960D01*
X8528253Y-8142960D02*
X8509206Y-8152484D01*
X8509206Y-8152484D02*
X8480634Y-8152484D01*
X8661587Y-8152484D02*
X8642539Y-8142960D01*
X8642539Y-8142960D02*
X8633015Y-8123912D01*
X8633015Y-8123912D02*
X8633015Y-7952484D01*
X8813968Y-8142960D02*
X8794920Y-8152484D01*
X8794920Y-8152484D02*
X8756825Y-8152484D01*
X8756825Y-8152484D02*
X8737777Y-8142960D01*
X8737777Y-8142960D02*
X8728253Y-8123912D01*
X8728253Y-8123912D02*
X8728253Y-8047722D01*
X8728253Y-8047722D02*
X8737777Y-8028674D01*
X8737777Y-8028674D02*
X8756825Y-8019150D01*
X8756825Y-8019150D02*
X8794920Y-8019150D01*
X8794920Y-8019150D02*
X8813968Y-8028674D01*
X8813968Y-8028674D02*
X8823492Y-8047722D01*
X8823492Y-8047722D02*
X8823492Y-8066769D01*
X8823492Y-8066769D02*
X8728253Y-8085817D01*
X8899682Y-8142960D02*
X8918730Y-8152484D01*
X8918730Y-8152484D02*
X8956825Y-8152484D01*
X8956825Y-8152484D02*
X8975873Y-8142960D01*
X8975873Y-8142960D02*
X8985396Y-8123912D01*
X8985396Y-8123912D02*
X8985396Y-8114388D01*
X8985396Y-8114388D02*
X8975873Y-8095341D01*
X8975873Y-8095341D02*
X8956825Y-8085817D01*
X8956825Y-8085817D02*
X8928253Y-8085817D01*
X8928253Y-8085817D02*
X8909206Y-8076293D01*
X8909206Y-8076293D02*
X8899682Y-8057246D01*
X8899682Y-8057246D02*
X8899682Y-8047722D01*
X8899682Y-8047722D02*
X8909206Y-8028674D01*
X8909206Y-8028674D02*
X8928253Y-8019150D01*
X8928253Y-8019150D02*
X8956825Y-8019150D01*
X8956825Y-8019150D02*
X8975873Y-8028674D01*
X9052063Y-8228674D02*
X9061587Y-8219150D01*
X9061587Y-8219150D02*
X9080634Y-8190579D01*
X9080634Y-8190579D02*
X9090158Y-8171531D01*
X9090158Y-8171531D02*
X9099682Y-8142960D01*
X9099682Y-8142960D02*
X9109206Y-8095341D01*
X9109206Y-8095341D02*
X9109206Y-8057246D01*
X9109206Y-8057246D02*
X9099682Y-8009627D01*
X9099682Y-8009627D02*
X9090158Y-7981055D01*
X9090158Y-7981055D02*
X9080634Y-7962008D01*
X9080634Y-7962008D02*
X9061587Y-7933436D01*
X9061587Y-7933436D02*
X9052063Y-7923912D01*
M02*
